<?xml version="1.0" encoding="utf-8"?>
<!-- Generator: Adobe Illustrator 21.0.2, SVG Export Plug-In . SVG Version: 6.00 Build 0)  -->
<svg version="1.1" id="Ellipse_1_copy_xA0_Image_1_"
	 xmlns="http://www.w3.org/2000/svg" xmlns:xlink="http://www.w3.org/1999/xlink" x="0px" y="0px" viewBox="0 0 592.6 592.4"
	 style="enable-background:new 0 0 592.6 592.4;" xml:space="preserve">
<style type="text/css">
	.st0{fill:#FFFFFF;}
</style>
<path class="st0" d="M296.3,0C135.1,0,4,128.6,0,288.7V304c3.9,155.6,127.8,281.4,282.6,288.4c9.1,0,18.2,0,27.3,0
	c157.3-7.1,282.7-136.9,282.7-296C592.6,132.7,459.9,0,296.3,0z M288.6,543.8C163.4,540.4,45.5,431.9,48.6,289.5
	C51.3,161.6,161.1,46,296.8,48.3c132.9-2.5,249.8,112.9,247.7,251.8C542.6,428.6,432.1,547.7,288.6,543.8z"/>
</svg>
