<?xml version="1.0" encoding="utf-8"?>
<!-- Generator: Adobe Illustrator 21.0.2, SVG Export Plug-In . SVG Version: 6.00 Build 0)  -->
<svg version="1.1" id="brush" xmlns="http://www.w3.org/2000/svg" xmlns:xlink="http://www.w3.org/1999/xlink" x="0px" y="0px"
	 viewBox="0 0 224.2 5" style="enable-background:new 0 0 224.2 5;" xml:space="preserve">
<style type="text/css">
	.st0{fill:url(#SVGID_1_);}
</style>
<linearGradient id="SVGID_1_" gradientUnits="userSpaceOnUse" x1="0" y1="2.6391" x2="224.2704" y2="2.6391">
	<stop  offset="0" style="stop-color:#926121"/>
	<stop  offset="0.4307" style="stop-color:#3E0E04"/>
	<stop  offset="0.5866" style="stop-color:#3E0E04"/>
	<stop  offset="0.7574" style="stop-color:#976120"/>
	<stop  offset="1" style="stop-color:#976120"/>
</linearGradient>
<path class="st0" d="M223.9,4c-0.7,0-7.9-0.6-12.3-1.3h-34.9C174.4,3,173,3.9,171.3,4c-1.8,0.1-3.4-1.3-5.2-0.7
	c-2.4,0.7-3,1.5-4.4,1.5c-1.4,0-1.8-0.5-4.2-1.2c-1.7-0.5-3.6,0.9-5.4,0.8c-1.7-0.1-3.3-1.7-5.1-1.7h-38.7c-1.8,0-2.8,1.9-4.6,1.9
	s-4.6-1.8-6.2-1.9h-2.1c-2.2,0.5-3.4,2-5.2,2s-3.8-2-5.6-2H66.3c-2.4-0.4-3.8,2.2-5.6,2.2s-3.1-2.6-5.2-2.2h-2.1
	c-2-0.2-3.7,2.4-5.5,2.4c-1.8,0-3.5-2.4-5.3-2.4H32c-1.8,0-3.7,1.2-5.5,1.2S23,2.6,21.2,2.6l-9,0.2C10,3,9.1,3.3,7.6,3.4
	C5.3,3.6,0,3.5,0,3.5V1.6c0,0,1.4-0.4,3.7-0.3C6.1,1.5,8.4,1,8.6,1c0.2,0,3.1,0,4.2,0.1C17.5,0.6,23,0.4,29.8,0.4
	c11.1,0.1,152.3,0.1,184.5,0.1c2.9-0.3,9.1-0.4,9.7-0.3c0.5,0.7,0.1,0.6,0.2,1.8C224.3,3.2,224.3,3.7,223.9,4z"/>
</svg>
