<?xml version="1.0" encoding="utf-8"?>
<!-- Generator: Adobe Illustrator 21.0.2, SVG Export Plug-In . SVG Version: 6.00 Build 0)  -->
<svg version="1.1" id="Group_1_1_" opacity="0.2" xmlns="http://www.w3.org/2000/svg" xmlns:xlink="http://www.w3.org/1999/xlink"
	 x="0px" y="0px" viewBox="0 0 317 298" style="enable-background:new 0 0 317 298;" xml:space="preserve">
<style type="text/css">
	.st0{fill-rule:evenodd;clip-rule:evenodd;fill:#FFFFFF;}
</style>
<circle class="st0" cx="12.8" cy="12.8" r="12.8"/>
<circle class="st0" cx="60.7" cy="12.8" r="12.8"/>
<ellipse class="st0" cx="110.3" cy="12.8" rx="12.8" ry="12.8"/>
<ellipse class="st0" cx="158.2" cy="12.8" rx="12.8" ry="12.8"/>
<ellipse class="st0" cx="206" cy="12.8" rx="12.8" ry="12.8"/>
<circle class="st0" cx="255.6" cy="12.8" r="12.8"/>
<circle class="st0" cx="303.5" cy="12.8" r="12.8"/>
<circle class="st0" cx="12.8" cy="64.1" r="12.8"/>
<circle class="st0" cx="60.7" cy="64.1" r="12.8"/>
<ellipse class="st0" cx="110.3" cy="64.1" rx="12.8" ry="12.8"/>
<ellipse class="st0" cx="158.2" cy="64.1" rx="12.8" ry="12.8"/>
<ellipse class="st0" cx="206" cy="64.1" rx="12.8" ry="12.8"/>
<circle class="st0" cx="255.6" cy="64.1" r="12.8"/>
<circle class="st0" cx="303.5" cy="64.1" r="12.8"/>
<circle class="st0" cx="12.8" cy="115.4" r="12.8"/>
<circle class="st0" cx="60.7" cy="115.4" r="12.8"/>
<ellipse class="st0" cx="110.3" cy="115.4" rx="12.8" ry="12.8"/>
<ellipse class="st0" cx="158.2" cy="115.4" rx="12.8" ry="12.8"/>
<ellipse class="st0" cx="206" cy="115.4" rx="12.8" ry="12.8"/>
<circle class="st0" cx="255.6" cy="115.4" r="12.8"/>
<circle class="st0" cx="303.5" cy="115.4" r="12.8"/>
<circle class="st0" cx="12.8" cy="166.7" r="12.8"/>
<circle class="st0" cx="60.7" cy="166.7" r="12.8"/>
<ellipse class="st0" cx="110.3" cy="166.7" rx="12.8" ry="12.8"/>
<ellipse class="st0" cx="158.2" cy="166.7" rx="12.8" ry="12.8"/>
<ellipse class="st0" cx="206" cy="166.7" rx="12.8" ry="12.8"/>
<circle class="st0" cx="255.6" cy="166.7" r="12.8"/>
<circle class="st0" cx="303.5" cy="166.7" r="12.8"/>
<circle class="st0" cx="12.8" cy="216.3" r="12.8"/>
<circle class="st0" cx="60.7" cy="216.3" r="12.8"/>
<ellipse class="st0" cx="110.3" cy="216.3" rx="12.8" ry="12.8"/>
<ellipse class="st0" cx="158.2" cy="216.3" rx="12.8" ry="12.8"/>
<ellipse class="st0" cx="206" cy="216.3" rx="12.8" ry="12.8"/>
<circle class="st0" cx="255.6" cy="216.3" r="12.8"/>
<circle class="st0" cx="303.5" cy="216.3" r="12.8"/>
<ellipse class="st0" cx="12.8" cy="284.7" rx="12.8" ry="12.8"/>
<ellipse class="st0" cx="60.7" cy="284.7" rx="12.8" ry="12.8"/>
<circle class="st0" cx="110.3" cy="284.7" r="12.8"/>
<circle class="st0" cx="158.2" cy="284.7" r="12.8"/>
<circle class="st0" cx="206" cy="284.7" r="12.8"/>
<ellipse class="st0" cx="255.6" cy="284.7" rx="12.8" ry="12.8"/>
<ellipse class="st0" cx="303.5" cy="284.7" rx="12.8" ry="12.8"/>
</svg>
