<?xml version="1.0" encoding="utf-8"?>
<!-- Generator: Adobe Illustrator 21.0.2, SVG Export Plug-In . SVG Version: 6.00 Build 0)  -->
<svg version="1.1" id="Layer_1" xmlns="http://www.w3.org/2000/svg" xmlns:xlink="http://www.w3.org/1999/xlink" x="0px" y="0px"
	 viewBox="0 0 300 113.5" style="enable-background:new 0 0 300 113.5;" xml:space="preserve">
<style type="text/css">
	.st0{fill:#ED1C24;}
	.st1{fill:#2E3192;}
	.st2{clip-path:url(#SVGID_2_);fill:url(#SVGID_3_);}
	.st3{clip-path:url(#SVGID_5_);fill:url(#SVGID_6_);}
	.st4{fill:url(#SVGID_7_);}
	.st5{fill:#00653E;}
</style>
<path id="Vegetarian" class="st0" d="M292.7,109c0-0.7,0.1-1.4,0.1-2.1s0-1.3,0-1.9c0-0.7,0-1.3,0-2s0-1.3-0.1-2c0.2,0,0.3,0,0.5,0
	s0.4,0,0.6,0s0.4,0,0.6,0s0.3,0,0.5,0v1.1c0.3-0.5,0.7-0.8,1.1-1s0.9-0.3,1.4-0.3c0.4,0,0.8,0.1,1.1,0.2c0.3,0.1,0.6,0.3,0.8,0.6
	c0.2,0.2,0.3,0.5,0.4,0.8s0.1,0.9,0.1,1.6c0,0.1,0,0.4,0,0.9s0,0.9,0,1.2c0,0.5,0,1,0,1.5s0,0.9,0.1,1.3c-0.2,0-0.4,0-0.6-0.1
	c-0.2,0-0.4,0-0.6,0s-0.4,0-0.6,0s-0.4,0-0.6,0.1c0-0.5,0.1-1,0.1-1.7s0-1.4,0-2.2c0-1.2-0.1-2-0.3-2.3c-0.2-0.4-0.5-0.5-1-0.5
	s-0.8,0.2-1.1,0.6c-0.2,0.4-0.3,1.1-0.3,2.1c0,0.5,0,1,0,1.7s0,1.4,0.1,2.3c-0.2,0-0.4,0-0.6-0.1c-0.2,0-0.4,0-0.6,0s-0.4,0-0.6,0
	C293.2,108.9,293,108.9,292.7,109L292.7,109z M288.5,107.9c-0.2,0.4-0.5,0.7-0.9,0.9c-0.4,0.2-0.8,0.3-1.3,0.3
	c-0.7,0-1.2-0.2-1.6-0.6s-0.6-1-0.6-1.7c0-0.5,0.1-1,0.4-1.3s0.7-0.6,1.3-0.8c0.2-0.1,0.5-0.2,0.8-0.3c0.8-0.3,1.4-0.5,1.7-0.7v-0.1
	c0,0,0-0.1,0-0.2c0-0.5-0.1-0.9-0.4-1.2c-0.3-0.3-0.7-0.4-1.1-0.4s-0.7,0.1-1,0.3c-0.3,0.2-0.6,0.5-0.8,1c-0.1-0.3-0.1-0.5-0.2-0.6
	c-0.1-0.2-0.1-0.3-0.2-0.4c0.5-0.4,1-0.7,1.4-1c0.5-0.2,1-0.3,1.5-0.3c1,0,1.7,0.2,2.2,0.7s0.8,1.1,0.8,2v0.1l-0.1,2.9v0.3
	c0,0.7,0.1,1.1,0.2,1.3c0.1,0.2,0.4,0.3,0.9,0.3l0,0v0.4c-0.3,0.1-0.6,0.2-0.9,0.3c-0.3,0.1-0.6,0.1-0.8,0.1c-0.4,0-0.7-0.1-1-0.3
	C288.7,108.6,288.6,108.3,288.5,107.9L288.5,107.9z M288.4,104.6c-0.8,0.2-1.3,0.4-1.6,0.7c-0.3,0.3-0.5,0.8-0.5,1.3
	s0.1,0.8,0.3,1.1c0.2,0.2,0.4,0.4,0.8,0.4s0.6-0.1,0.8-0.4c0.2-0.3,0.3-0.6,0.3-1.1L288.4,104.6L288.4,104.6z M280.1,109
	c0-0.9,0.1-1.6,0.1-2.2s0-1.2,0-1.8c0-0.6,0-1.3,0-1.9c0-0.7,0-1.3-0.1-2.1c0.2,0,0.4,0,0.6,0s0.4,0,0.6,0s0.4,0,0.6,0s0.4,0,0.6,0
	c0,0.7-0.1,1.4-0.1,2.1s0,1.3,0,1.9c0,0.5,0,1.1,0,1.8c0,0.6,0,1.4,0.1,2.2c-0.2,0-0.4,0-0.6-0.1c-0.2,0-0.4,0-0.6,0s-0.4,0-0.6,0
	S280.3,108.9,280.1,109L280.1,109z M280,98c0-0.4,0.1-0.6,0.4-0.9c0.2-0.2,0.5-0.4,0.9-0.4c0.3,0,0.6,0.1,0.9,0.4
	c0.2,0.2,0.4,0.5,0.4,0.9s-0.1,0.7-0.4,0.9c-0.2,0.2-0.5,0.4-0.9,0.4c-0.3,0-0.6-0.1-0.9-0.4C280.2,98.6,280,98.3,280,98L280,98z
	 M273.8,109c0-0.5,0.1-1.2,0.1-1.8c0-0.7,0-1.4,0-2.2c0-1,0-1.8,0-2.4s0-1.1-0.1-1.6c0.2,0,0.3,0,0.5,0s0.4,0,0.6,0s0.4,0,0.6,0
	s0.4,0,0.5,0c0,0.5,0,0.9-0.1,1.3c0,0.3,0,0.6,0,0.9h0.1c0.2-0.8,0.5-1.3,0.9-1.7c0.4-0.4,1-0.6,1.6-0.6h0.1c0,0.2-0.1,0.4-0.1,0.6
	s0,0.4,0,0.6s0,0.4,0,0.6s0,0.4,0.1,0.6c-0.2-0.1-0.4-0.1-0.6-0.2c-0.2,0-0.3-0.1-0.5-0.1c-0.5,0-0.9,0.2-1.2,0.6
	c-0.2,0.4-0.4,1-0.4,1.8c0,0.6,0,1.3,0,1.9s0.1,1.2,0.1,1.7c-0.2,0-0.4,0-0.6-0.1c-0.2,0-0.4,0-0.6,0s-0.4,0-0.6,0
	C274.2,108.9,274,108.9,273.8,109L273.8,109z M269.5,107.9c-0.2,0.4-0.5,0.7-0.9,0.9c-0.4,0.2-0.8,0.3-1.3,0.3
	c-0.7,0-1.2-0.2-1.6-0.6s-0.6-1-0.6-1.7c0-0.5,0.1-1,0.4-1.3s0.7-0.6,1.3-0.8c0.2-0.1,0.5-0.2,0.8-0.3c0.8-0.3,1.4-0.5,1.7-0.7v-0.1
	c0,0,0-0.1,0-0.2c0-0.5-0.1-0.9-0.4-1.2c-0.3-0.3-0.7-0.4-1.1-0.4s-0.7,0.1-1,0.3c-0.3,0.2-0.6,0.5-0.8,1c-0.1-0.3-0.1-0.5-0.2-0.6
	c-0.1-0.2-0.1-0.3-0.2-0.4c0.5-0.4,1-0.7,1.4-1c0.5-0.2,1-0.3,1.5-0.3c1,0,1.7,0.2,2.2,0.7s0.8,1.1,0.8,2v0.1v2.9v0.3
	c0,0.7,0.1,1.1,0.2,1.3c0.1,0.2,0.4,0.3,0.9,0.3l0,0v0.4c-0.3,0.1-0.6,0.2-0.9,0.3c-0.3,0.1-0.6,0.1-0.9,0.1c-0.4,0-0.7-0.1-1-0.3
	C269.8,108.6,269.6,108.3,269.5,107.9L269.5,107.9z M269.4,104.6c-0.8,0.2-1.3,0.4-1.6,0.7c-0.3,0.3-0.5,0.8-0.5,1.3
	s0.1,0.8,0.3,1.1c0.2,0.2,0.4,0.4,0.8,0.4s0.6-0.1,0.8-0.4c0.2-0.3,0.3-0.6,0.3-1.1L269.4,104.6L269.4,104.6z M260.5,101.9h-0.3
	c-0.2,0-0.4,0-0.5,0s-0.2,0-0.3,0c0-0.1,0-0.1,0-0.2s0-0.1,0-0.3c0-0.1,0-0.2,0-0.3c0-0.1,0-0.1,0-0.2h0.1c0.4,0,0.7,0.1,0.8,0.1
	h0.2c0-0.1,0-0.2,0-0.2c0-0.1,0-0.2,0-0.4c0-0.2,0-0.4,0-0.7c0-0.2,0-0.5,0-0.9c0.4-0.1,0.7-0.3,1.1-0.5s0.7-0.3,1.1-0.5l0.2,0.1
	c0,0.6-0.1,1.2-0.1,1.6s0,0.7,0,1v0.5c0.3,0,0.6,0,0.8,0c0.3,0,0.5,0,0.8,0c0,0.1,0,0.2,0,0.3c0,0.1,0,0.1,0,0.2s0,0.2,0,0.4
	c0,0,0,0,0,0.1c-0.1,0-0.3,0-0.5,0s-0.6,0-1.1,0c0,0.1,0,0.2,0,0.4c0,1.2-0.1,2-0.1,2.5v0.7c0,1.3,0.1,2.1,0.2,2.4s0.4,0.5,0.7,0.5
	c0.2,0,0.5-0.1,0.9-0.2l0,0v0.6c-0.4,0.2-0.7,0.3-1,0.4s-0.6,0.1-0.9,0.1c-0.7,0-1.2-0.2-1.6-0.6s-0.5-0.9-0.5-1.6c0,0,0-0.5,0-1.4
	s0-1.8,0-2.7L260.5,101.9L260.5,101.9z M253.9,105c0,1,0.2,1.7,0.7,2.3c0.4,0.6,1.1,0.8,1.8,0.8c0.4,0,0.7-0.1,1.1-0.2
	c0.3-0.1,0.7-0.3,1-0.6l0.2,0.1l-0.4,0.9c-0.3,0.2-0.7,0.4-1.2,0.6c-0.5,0.1-1,0.2-1.5,0.2c-1.3,0-2.3-0.4-3-1.1
	c-0.7-0.8-1.1-1.8-1.1-3.2c0-1.2,0.4-2.2,1.1-3c0.7-0.7,1.7-1.1,2.8-1.1c1.1,0,2,0.3,2.6,1c0.6,0.6,0.9,1.5,0.9,2.7
	c0,0.1,0,0.2,0,0.3c0,0.1,0,0.1,0,0.2L253.9,105L253.9,105z M253.9,104.2h2.8c0-0.1,0-0.1,0-0.2s0-0.1,0-0.2c0-0.8-0.1-1.3-0.3-1.7
	c-0.2-0.4-0.5-0.6-1-0.6s-0.8,0.2-1.1,0.7C254,102.6,253.9,103.3,253.9,104.2L253.9,104.2L253.9,104.2z M245.5,109.4
	c-0.3,0.1-0.5,0.3-0.6,0.6c-0.1,0.3-0.2,0.6-0.2,0.9c0,0.6,0.2,1,0.6,1.4c0.4,0.3,0.9,0.5,1.5,0.5c0.7,0,1.3-0.2,1.7-0.5
	s0.6-0.7,0.6-1.3c0-0.5-0.1-0.9-0.4-1.1c-0.3-0.2-0.7-0.4-1.3-0.4L245.5,109.4L245.5,109.4z M244.8,109.4L244.8,109.4
	c-0.3-0.2-0.6-0.4-0.8-0.6s-0.3-0.5-0.3-0.8c0-0.4,0.1-0.7,0.4-1c0.3-0.3,0.7-0.6,1.2-0.8V106c-0.7-0.1-1.2-0.4-1.6-0.8
	c-0.4-0.4-0.5-0.9-0.5-1.6c0-0.8,0.3-1.5,0.9-2c0.6-0.5,1.4-0.7,2.4-0.7c0.1,0,0.5,0,1.1,0.1c0.6,0,1.2,0.1,1.7,0.1
	c0.2,0,0.4,0,0.7,0c0.2,0,0.5,0,0.8,0v0.8c-0.3,0-0.8,0-1.4-0.1c-0.1,0-0.2,0-0.2,0c0.3,0.2,0.5,0.4,0.6,0.7c0.1,0.3,0.2,0.6,0.2,1
	c0,0.9-0.3,1.5-1,2c-0.6,0.5-1.5,0.7-2.7,0.7H246c-0.2,0-0.4,0.1-0.5,0.3c-0.1,0.1-0.2,0.3-0.2,0.5c0,0.5,0.8,0.8,2.3,0.8h0.1
	c0,0,0.1,0,0.2,0c1,0,1.6,0.2,1.9,0.3c0.3,0.2,0.6,0.5,0.8,0.8s0.3,0.7,0.3,1.2c0,1-0.4,1.9-1.2,2.5c-0.8,0.7-1.9,1-3.2,1
	c-1.1,0-1.9-0.2-2.5-0.6s-0.9-0.9-0.9-1.6c0-0.5,0.1-0.9,0.4-1.2C243.8,109.8,244.2,109.5,244.8,109.4L244.8,109.4z M245.5,103.4
	c0,0.7,0.1,1.2,0.3,1.5s0.5,0.5,0.9,0.5s0.7-0.2,0.9-0.5s0.3-0.9,0.3-1.7c0-0.6-0.1-1.1-0.3-1.3c-0.2-0.3-0.5-0.4-0.9-0.4
	s-0.7,0.2-0.9,0.5S245.5,102.8,245.5,103.4L245.5,103.4z M237.2,105c0,1,0.2,1.7,0.7,2.3c0.4,0.6,1.1,0.8,1.8,0.8
	c0.4,0,0.7-0.1,1.1-0.2c0.3-0.1,0.7-0.3,1-0.6l0.2,0.1l-0.4,0.9c-0.3,0.2-0.7,0.4-1.2,0.6c-0.5,0.1-1,0.2-1.5,0.2
	c-1.3,0-2.3-0.4-3-1.1c-0.7-0.8-1.1-1.8-1.1-3.2c0-1.2,0.4-2.2,1.1-3c0.7-0.7,1.7-1.1,2.8-1.1s2,0.3,2.6,1c0.6,0.6,0.9,1.5,0.9,2.7
	c0,0.1,0,0.2,0,0.3c0,0.1,0,0.1,0,0.2L237.2,105L237.2,105z M237.2,104.2h2.8c0-0.1,0-0.1,0-0.2s0-0.1,0-0.2c0-0.8-0.1-1.3-0.3-1.7
	c-0.2-0.4-0.5-0.6-1-0.6s-0.8,0.2-1.1,0.7C237.3,102.6,237.2,103.3,237.2,104.2L237.2,104.2L237.2,104.2z M229.5,109
	c-0.4-1.2-1-2.9-1.8-4.9s-1.6-4.2-2.6-6.5c0.2,0,0.4,0,0.7,0c0.2,0,0.5,0,0.7,0c0.3,0,0.5,0,0.7,0s0.4,0,0.6,0
	c0.3,1,0.8,2.2,1.2,3.5c0.5,1.3,1,2.9,1.7,4.7c0.5-1.2,1-2.5,1.5-3.9s1-2.8,1.5-4.3c0.1,0,0.2,0,0.4,0c0.1,0,0.3,0,0.4,0
	c0.1,0,0.3,0,0.4,0c0.1,0,0.3,0,0.4,0c-0.8,1.9-1.6,3.8-2.4,5.7c-0.8,1.9-1.5,3.8-2.2,5.7c-0.1,0-0.2,0-0.4-0.1c-0.1,0-0.2,0-0.3,0
	s-0.2,0-0.3,0C229.8,108.9,229.6,108.9,229.5,109L229.5,109z"/>
<path id="Swaminarayan" class="st0" d="M212.6,109c0-0.7,0.1-1.4,0.1-2.1s0-1.3,0-1.9c0-0.7,0-1.3,0-2s-0.1-1.3-0.1-2
	c0.2,0,0.3,0,0.5,0s0.4,0,0.6,0c0.2,0,0.4,0,0.6,0c0.2,0,0.3,0,0.5,0v1.1c0.3-0.5,0.7-0.8,1.1-1c0.4-0.2,0.9-0.3,1.4-0.3
	c0.4,0,0.8,0.1,1.1,0.2s0.6,0.3,0.8,0.6c0.2,0.2,0.3,0.5,0.4,0.8c0.1,0.3,0.1,0.9,0.1,1.6c0,0.1,0,0.4,0,0.9s0,0.9,0,1.2
	c0,0.5,0,1,0,1.5s0,0.9,0.1,1.3c-0.2,0-0.4,0-0.6-0.1c-0.2,0-0.4,0-0.6,0c-0.2,0-0.4,0-0.6,0c-0.2,0-0.4,0-0.6,0.1
	c0-0.5,0.1-1,0.1-1.7s0-1.4,0-2.2c0-1.2-0.1-2-0.3-2.3c-0.2-0.4-0.5-0.5-1-0.5s-0.8,0.2-1.1,0.6c-0.2,0.4-0.3,1.1-0.3,2.1
	c0,0.5,0,1,0,1.7s0,1.4,0.1,2.3c-0.2,0-0.4,0-0.6-0.1c-0.2,0-0.4,0-0.6,0c-0.2,0-0.4,0-0.6,0C213,108.9,212.8,108.9,212.6,109
	L212.6,109z M208.3,107.9c-0.2,0.4-0.5,0.7-0.9,0.9c-0.4,0.2-0.8,0.3-1.3,0.3c-0.7,0-1.2-0.2-1.6-0.6c-0.4-0.4-0.6-1-0.6-1.7
	c0-0.5,0.1-1,0.4-1.3c0.3-0.3,0.7-0.6,1.3-0.8c0.2-0.1,0.5-0.2,0.8-0.3c0.8-0.3,1.4-0.5,1.7-0.7v-0.1c0,0,0-0.1,0-0.2
	c0-0.5-0.1-0.9-0.4-1.2c-0.3-0.3-0.7-0.4-1.1-0.4c-0.4,0-0.7,0.1-1,0.3c-0.3,0.2-0.6,0.5-0.8,1c-0.1-0.3-0.1-0.5-0.2-0.6
	c-0.1-0.2-0.1-0.3-0.2-0.4c0.5-0.4,1-0.7,1.4-1c0.5-0.2,1-0.3,1.5-0.3c1,0,1.7,0.2,2.2,0.7s0.8,1.1,0.8,2v0.1v2.9v0.3
	c0,0.7,0.1,1.1,0.2,1.3c0.1,0.2,0.4,0.3,0.9,0.3l0,0v0.4c-0.3,0.1-0.6,0.2-0.9,0.3c-0.3,0.1-0.6,0.1-0.9,0.1c-0.4,0-0.7-0.1-1-0.3
	C208.6,108.6,208.4,108.3,208.3,107.9L208.3,107.9z M208.2,104.6c-0.8,0.2-1.3,0.4-1.6,0.7c-0.3,0.3-0.5,0.8-0.5,1.3
	s0.1,0.8,0.3,1.1c0.2,0.2,0.4,0.4,0.8,0.4c0.4,0,0.6-0.1,0.8-0.4s0.3-0.6,0.3-1.1v-2H208.2z M197.7,111.5l1.2-2.5l-3.3-8
	c0.2,0,0.4,0,0.6,0c0.2,0,0.4,0,0.7,0c0.2,0,0.5,0,0.7,0s0.4,0,0.6,0c0.3,0.8,0.6,1.6,0.9,2.5c0.3,0.9,0.7,1.7,1.1,2.6l1.9-5.1
	c0.1,0,0.2,0,0.3,0s0.2,0,0.3,0s0.2,0,0.4,0c0.1,0,0.2,0,0.3,0c-0.9,2.1-1.8,4.2-2.7,6.3c-0.9,2.1-1.7,4.2-2.5,6.2
	c-0.1,0-0.2,0-0.3,0s-0.2,0-0.4,0c-0.1,0-0.2,0-0.4,0c-0.1,0-0.3,0-0.4,0c0.2-0.3,0.3-0.5,0.5-0.9
	C197.3,112.3,197.5,111.9,197.7,111.5L197.7,111.5z M192.3,107.9c-0.2,0.4-0.5,0.7-0.9,0.9c-0.4,0.2-0.8,0.3-1.3,0.3
	c-0.7,0-1.2-0.2-1.6-0.6c-0.4-0.4-0.6-1-0.6-1.7c0-0.5,0.1-1,0.4-1.3c0.3-0.3,0.7-0.6,1.3-0.8c0.2-0.1,0.5-0.2,0.8-0.3
	c0.8-0.3,1.4-0.5,1.7-0.7v-0.1c0,0,0-0.1,0-0.2c0-0.5-0.1-0.9-0.4-1.2c-0.3-0.3-0.7-0.4-1.1-0.4c-0.4,0-0.7,0.1-1,0.3
	c-0.3,0.2-0.6,0.5-0.8,1c-0.1-0.3-0.1-0.5-0.2-0.6c-0.1-0.2-0.1-0.3-0.2-0.4c0.5-0.4,1-0.7,1.4-1c0.5-0.2,1-0.3,1.5-0.3
	c1,0,1.7,0.2,2.2,0.7s0.8,1.1,0.8,2v0.1v2.9v0.3c0,0.7,0.1,1.1,0.2,1.3c0.1,0.2,0.4,0.3,0.9,0.3l0,0v0.4c-0.3,0.1-0.6,0.2-0.9,0.3
	c-0.3,0.1-0.6,0.1-0.8,0.1c-0.4,0-0.7-0.1-1-0.3C192.5,108.6,192.4,108.3,192.3,107.9L192.3,107.9z M192.2,104.6
	c-0.8,0.2-1.3,0.4-1.6,0.7c-0.3,0.3-0.5,0.8-0.5,1.3s0.1,0.8,0.3,1.1c0.2,0.2,0.4,0.4,0.8,0.4c0.4,0,0.6-0.1,0.8-0.4
	s0.3-0.6,0.3-1.1v-2H192.2z M182.1,109c0-0.5,0.1-1.2,0.1-1.8c0-0.7,0-1.4,0-2.2c0-1,0-1.8,0-2.4s0-1.1-0.1-1.6c0.2,0,0.3,0,0.5,0
	s0.4,0,0.6,0c0.2,0,0.4,0,0.6,0c0.2,0,0.4,0,0.5,0c0,0.5,0,0.9-0.1,1.3c0,0.3,0,0.6,0,0.9h0.1c0.2-0.8,0.5-1.3,0.9-1.7
	c0.4-0.4,1-0.6,1.6-0.6h0.1c0,0.2-0.1,0.4-0.1,0.6s0,0.4,0,0.6s0,0.4,0,0.6s0,0.4,0.1,0.6c-0.2-0.1-0.4-0.1-0.6-0.2
	c-0.2,0-0.3-0.1-0.5-0.1c-0.5,0-0.9,0.2-1.2,0.6c-0.2,0.4-0.4,1-0.4,1.8c0,0.6,0,1.3,0,1.9s0.1,1.2,0.1,1.7c-0.2,0-0.4,0-0.6-0.1
	c-0.2,0-0.4,0-0.6,0c-0.2,0-0.4,0-0.6,0C182.5,108.9,182.3,108.9,182.1,109L182.1,109z M177.8,107.9c-0.2,0.4-0.5,0.7-0.9,0.9
	c-0.4,0.2-0.8,0.3-1.3,0.3c-0.7,0-1.2-0.2-1.6-0.6c-0.4-0.4-0.6-1-0.6-1.7c0-0.5,0.1-1,0.4-1.3c0.3-0.3,0.7-0.6,1.3-0.8
	c0.2-0.1,0.5-0.2,0.8-0.3c0.8-0.3,1.4-0.5,1.7-0.7v-0.1c0,0,0-0.1,0-0.2c0-0.5-0.1-0.9-0.4-1.2c-0.3-0.3-0.7-0.4-1.1-0.4
	c-0.4,0-0.7,0.1-1,0.3c-0.3,0.2-0.6,0.5-0.8,1c-0.1-0.3-0.1-0.5-0.2-0.6c-0.1-0.2-0.1-0.3-0.2-0.4c0.5-0.4,1-0.7,1.4-1
	c0.5-0.2,1-0.3,1.5-0.3c1,0,1.7,0.2,2.2,0.7s0.8,1.1,0.8,2v0.1v2.9v0.3c0,0.7,0.1,1.1,0.2,1.3c0.1,0.2,0.4,0.3,0.9,0.3l0,0v0.4
	c-0.3,0.1-0.6,0.2-0.9,0.3c-0.3,0.1-0.6,0.1-0.9,0.1c-0.4,0-0.7-0.1-1-0.3C178.1,108.6,177.9,108.3,177.8,107.9L177.8,107.9z
	 M177.8,104.6c-0.8,0.2-1.3,0.4-1.6,0.7c-0.3,0.3-0.5,0.8-0.5,1.3s0.1,0.8,0.3,1.1c0.2,0.2,0.4,0.4,0.8,0.4c0.4,0,0.6-0.1,0.8-0.4
	s0.3-0.6,0.3-1.1v-2H177.8z M164.6,109c0-0.7,0.1-1.4,0.1-2.1s0-1.3,0-1.9c0-0.7,0-1.3,0-2s-0.1-1.3-0.1-2c0.2,0,0.3,0,0.5,0
	s0.4,0,0.6,0c0.2,0,0.4,0,0.6,0c0.2,0,0.3,0,0.5,0v1.1c0.3-0.5,0.7-0.8,1.1-1c0.4-0.2,0.9-0.3,1.4-0.3c0.4,0,0.8,0.1,1.1,0.2
	s0.6,0.3,0.8,0.6c0.2,0.2,0.3,0.5,0.4,0.8c0.1,0.3,0.1,0.9,0.1,1.6c0,0.1,0,0.4,0,0.9s0,0.9,0,1.2c0,0.5,0,1,0,1.5s0,0.9,0.1,1.3
	c-0.2,0-0.4,0-0.6-0.1c-0.2,0-0.4,0-0.6,0c-0.2,0-0.4,0-0.6,0c-0.2,0-0.4,0-0.6,0.1c0-0.5,0.1-1,0.1-1.7s0-1.4,0-2.2
	c0-1.2-0.1-2-0.3-2.3c-0.2-0.4-0.5-0.5-1-0.5s-0.8,0.2-1.1,0.6c-0.2,0.4-0.3,1.1-0.3,2.1c0,0.5,0,1,0,1.7s0,1.4,0.1,2.3
	c-0.2,0-0.4,0-0.6-0.1c-0.2,0-0.4,0-0.6,0c-0.2,0-0.4,0-0.6,0C165,108.9,164.8,108.9,164.6,109L164.6,109z M160.1,109
	c0-0.9,0.1-1.6,0.1-2.2s0-1.2,0-1.8c0-0.6,0-1.3,0-1.9c0-0.7,0-1.3-0.1-2.1c0.2,0,0.4,0,0.6,0c0.2,0,0.4,0,0.6,0c0.2,0,0.4,0,0.6,0
	c0.2,0,0.4,0,0.6,0c0,0.7-0.1,1.4-0.1,2.1s0,1.3,0,1.9c0,0.5,0,1.1,0,1.8c0,0.6,0,1.4,0.1,2.2c-0.2,0-0.4,0-0.6-0.1
	c-0.2,0-0.4,0-0.6,0c-0.2,0-0.4,0-0.6,0C160.6,108.9,160.3,108.9,160.1,109L160.1,109z M160.1,98c0-0.4,0.1-0.6,0.4-0.9
	c0.2-0.2,0.5-0.4,0.9-0.4c0.3,0,0.6,0.1,0.9,0.4c0.2,0.2,0.4,0.5,0.4,0.9s-0.1,0.7-0.4,0.9c-0.2,0.2-0.5,0.4-0.9,0.4
	c-0.3,0-0.6-0.1-0.9-0.4C160.2,98.6,160.1,98.3,160.1,98L160.1,98z M145.9,109c0-0.9,0.1-1.7,0.1-2.3c0-0.7,0-1.2,0-1.7
	c0-0.4,0-1,0-1.6c0-0.7,0-1.4-0.1-2.3c0.2,0,0.4,0,0.5,0c0.2,0,0.4,0,0.6,0c0.2,0,0.4,0,0.6,0c0.2,0,0.4,0,0.5,0v1.1
	c0.3-0.4,0.7-0.8,1.1-1c0.4-0.2,0.8-0.3,1.3-0.3s1,0.1,1.4,0.4s0.7,0.6,0.9,1.2c0.3-0.5,0.7-0.9,1.1-1.2c0.4-0.3,0.9-0.4,1.5-0.4
	c0.4,0,0.7,0.1,1.1,0.2c0.3,0.1,0.6,0.3,0.8,0.6c0.2,0.3,0.4,0.6,0.5,1s0.1,1.2,0.1,2.3v1c0,0.5,0,1,0,1.5s0,1,0.1,1.6
	c-0.2,0-0.5,0-0.7-0.1c-0.2,0-0.4,0-0.6,0c-0.2,0-0.4,0-0.6,0c-0.2,0-0.4,0-0.6,0.1c0-0.7,0.1-1.4,0.1-2s0-1.2,0-1.7
	c0-1.2-0.1-2.1-0.3-2.4c-0.2-0.4-0.5-0.6-1-0.6s-0.8,0.2-1,0.6s-0.3,1.1-0.3,2v2.6c0,0.3,0,0.7,0.1,1.4c0,0.1,0,0.1,0,0.2
	c-0.2,0-0.4,0-0.6-0.1c-0.2,0-0.4,0-0.6,0c-0.2,0-0.4,0-0.6,0c-0.2,0-0.4,0-0.6,0.1c0-0.6,0.1-1.2,0.1-1.8c0-0.6,0-1.1,0-1.7
	c0-1.5-0.1-2.4-0.3-2.7c-0.2-0.4-0.5-0.6-1-0.6s-0.8,0.2-1,0.6s-0.3,1.1-0.3,2v2.6c0,0.3,0,0.7,0.1,1.4c0,0.1,0,0.1,0,0.2
	c-0.2,0-0.4,0-0.6-0.1c-0.2,0-0.4,0-0.6,0c-0.2,0-0.4,0-0.5,0C146.4,108.9,146.2,108.9,145.9,109L145.9,109z M141.7,107.9
	c-0.2,0.4-0.5,0.7-0.9,0.9c-0.4,0.2-0.8,0.3-1.3,0.3c-0.7,0-1.2-0.2-1.6-0.6c-0.4-0.4-0.6-1-0.6-1.7c0-0.5,0.1-1,0.4-1.3
	c0.3-0.3,0.7-0.6,1.3-0.8c0.2-0.1,0.5-0.2,0.8-0.3c0.8-0.3,1.4-0.5,1.7-0.7v-0.1c0,0,0-0.1,0-0.2c0-0.5-0.1-0.9-0.4-1.2
	c-0.3-0.3-0.7-0.4-1.1-0.4c-0.4,0-0.7,0.1-1,0.3c-0.3,0.2-0.6,0.5-0.8,1c-0.1-0.3-0.1-0.5-0.2-0.6c-0.1-0.2-0.1-0.3-0.2-0.4
	c0.5-0.4,1-0.7,1.4-1c0.5-0.2,1-0.3,1.5-0.3c1,0,1.7,0.2,2.2,0.7s0.8,1.1,0.8,2v0.1v2.9v0.3c0,0.7,0.1,1.1,0.2,1.3
	c0.1,0.2,0.4,0.3,0.9,0.3l0,0v0.4c-0.3,0.1-0.6,0.2-0.9,0.3c-0.3,0.1-0.6,0.1-0.9,0.1c-0.4,0-0.7-0.1-1-0.3
	C141.9,108.6,141.8,108.3,141.7,107.9L141.7,107.9z M141.6,104.6c-0.8,0.2-1.3,0.4-1.6,0.7c-0.3,0.3-0.5,0.8-0.5,1.3
	s0.1,0.8,0.3,1.1c0.2,0.2,0.4,0.4,0.8,0.4c0.4,0,0.6-0.1,0.8-0.4s0.3-0.6,0.3-1.1v-2H141.6z M127.3,109c-0.3-1.2-0.7-2.4-1.1-3.7
	c-0.4-1.3-0.8-2.7-1.4-4.3c0.2,0,0.4,0,0.6,0s0.4,0,0.6,0s0.4,0,0.6,0s0.4,0,0.6,0c0.3,1.2,0.6,2.3,0.9,3.2c0.3,0.9,0.5,1.7,0.7,2.4
	c0.3-1,0.6-2,0.9-2.9c0.3-0.9,0.5-1.8,0.7-2.7c0.1,0,0.3,0,0.4,0c0.2,0,0.3,0,0.5,0s0.3,0,0.5,0s0.3,0,0.4,0
	c0.2,0.9,0.5,1.8,0.7,2.7c0.3,0.9,0.5,1.9,0.8,2.9c0.3-1.2,0.7-2.2,0.9-3.1c0.3-0.9,0.5-1.8,0.7-2.5c0.1,0,0.2,0,0.3,0s0.2,0,0.3,0
	s0.2,0,0.3,0s0.2,0,0.3,0c-0.5,1.3-0.9,2.6-1.4,3.9c-0.4,1.3-0.9,2.7-1.3,4c-0.2,0-0.3,0-0.5-0.1c-0.1,0-0.3,0-0.4,0
	c-0.1,0-0.3,0-0.4,0c-0.1,0-0.3,0-0.5,0.1c-0.2-0.7-0.4-1.6-0.7-2.4c-0.3-0.9-0.6-1.9-0.9-3c-0.3,0.9-0.5,1.7-0.8,2.6
	s-0.5,1.8-0.8,2.8c-0.2,0-0.3,0-0.5-0.1c-0.2,0-0.3,0-0.4,0s-0.3,0-0.4,0C127.7,108.9,127.5,108.9,127.3,109L127.3,109z
	 M117.2,108.4c0.1-0.3,0.2-0.7,0.3-1.1c0.1-0.4,0.2-0.8,0.3-1.2h0.2c0.1,0.6,0.4,1.1,0.8,1.5s0.9,0.5,1.5,0.5s1-0.2,1.3-0.5
	s0.5-0.7,0.5-1.2c0-0.4-0.1-0.7-0.3-1c-0.2-0.3-0.7-0.6-1.6-1.1c-1.3-0.7-2.1-1.3-2.5-1.8s-0.6-1.1-0.6-1.9c0-1,0.4-1.8,1.1-2.5
	c0.7-0.6,1.6-0.9,2.8-0.9c0.5,0,1,0.1,1.4,0.2s0.8,0.3,1.2,0.6c-0.1,0.3-0.2,0.6-0.3,0.9c-0.1,0.3-0.2,0.6-0.2,0.9H123
	c-0.2-0.5-0.4-0.9-0.8-1.2c-0.4-0.3-0.8-0.4-1.4-0.4c-0.5,0-0.9,0.1-1.2,0.4c-0.3,0.3-0.4,0.6-0.4,1.1c0,0.4,0.1,0.7,0.3,0.9
	c0.2,0.3,0.7,0.6,1.4,1c0.2,0.1,0.4,0.2,0.7,0.4c0.9,0.4,1.4,0.8,1.7,1c0.3,0.3,0.5,0.6,0.6,1s0.2,0.8,0.2,1.2c0,1.1-0.4,2-1.1,2.7
	s-1.7,1-3,1c-0.7,0-1.2-0.1-1.7-0.2C118,108.9,117.6,108.7,117.2,108.4L117.2,108.4z"/>
<rect id="Line" y="104.5" class="st1" width="110.6" height="0.4"/>
<g id="BAPS">
	<path d="M187.8,26.2c0.3,1.6,0.2,3.1-0.2,4.5c-0.6,1.9-1.6,3.6-2.9,5c-1.4,1.4-3.2,2.5-5.3,3.3c-1.1,0.4-2.2,0.7-3.1,0.9
		c-1,0.2-1.9,0.2-2.8,0.2l-2-2.2c0.5,0,0.9,0,1.3-0.1c0.4-0.1,0.8-0.2,1.2-0.3c2.2-0.8,3.5-2.1,4-3.8s0.2-3.9-1-6.7
		c-0.5-1.1-1-2.4-1.7-3.9c-0.6-1.4-1-2.3-1.2-2.7c-2-4.6-2.4-8.6-1.4-11.9s3.5-5.6,7.4-7c1.1-0.4,2.2-0.7,3.3-0.8s2.3-0.1,3.5-0.1
		l2,2c-0.5,0.1-1.1,0.2-1.6,0.3s-1,0.3-1.4,0.4c-2.2,0.8-3.5,2.1-3.8,4s0.3,4.6,1.8,8.1c0.1,0.2,0.3,0.7,0.7,1.7s0.8,1.9,1.2,2.7
		C186.8,22.5,187.5,24.6,187.8,26.2z"/>
	<path d="M167.2,6.9c-1.3-1.7-3.3-3.1-5.8-4.1c-1.2-0.5-3-0.8-5.2-1c-2.3-0.2-5.8-0.3-10.7-0.3H138l-2,1.8c0.2,3,0.3,6,0.4,8.8
		c0.1,2.8,0.1,5.6,0.1,8.4s0,5.5-0.1,8.5c-0.1,2.9-0.2,6-0.4,9.2l2,1.6c0.9-0.1,1.8-0.1,2.7-0.1s1.9,0,2.8,0c1,0,1.9,0,2.9,0
		c0.9,0,1.9,0.1,2.8,0.1c-0.3-2.4-0.6-4.7-0.8-7s-0.4-4.5-0.5-6.6c7.1-0.1,12.5-1.3,16.1-3.4c3.6-2.2,5.4-5.4,5.4-9.7
		C169.1,10.8,168.5,8.7,167.2,6.9z M155.5,20.4c-1.8,1.6-4.4,2.6-7.8,2.9v-2.9c0-2.5,0-5,0.1-7.6c0.1-2.7,0.1-5.4,0.3-8.2
		c3.3,0.4,5.8,1.4,7.6,3c1.7,1.6,2.6,3.8,2.6,6.5C158.2,16.7,157.3,18.8,155.5,20.4z"/>
	<path d="M133.3,34.5c-1.6,0.9-3.2,1.9-4.9,3.1c-1.7,1.1-3.5,2.4-5.4,3.8c-2.6-4.2-5.2-8.4-7.8-12.4c-2.6-4.1-5.3-8.1-7.9-12.2
		c-3,3.8-5.9,7.8-8.8,11.9s-5.8,8.3-8.6,12.7l-3.7-4.8c3.6-4.9,6.8-9.4,9.7-13.5c2.8-4,5.5-7.9,7.9-11.5l-3.9-5.2
		c1.7-1,3.4-2.1,5-3.2c1.7-1.1,3.3-2.2,4.9-3.3c3.7,5.9,7.5,11.7,11.5,17.4C125.1,23.2,129.1,28.8,133.3,34.5z"/>
	<path d="M82,22.9c-2.1-1.7-5.2-2.9-9.2-3.6c3.3-0.7,5.8-1.8,7.5-3.3c1.7-1.4,2.5-3.2,2.5-5.2s-0.7-3.7-2.2-5.1S76.9,3.2,74,2.5
		c-1.1-0.3-2.9-0.5-5.5-0.7S62.8,1.6,59,1.6h-8.1l-2.1,1.8c0.2,3.1,0.3,6,0.4,8.8c0.1,2.8,0.1,5.6,0.1,8.4c0,2.7,0,5.5-0.1,8.5
		c-0.1,2.9-0.2,6-0.4,9.2l2,1.6h10.8c4,0,7.4-0.1,10-0.4c2.6-0.3,4.7-0.6,6.1-1.2c2.5-0.9,4.4-2.2,5.6-3.7s1.9-3.4,1.9-5.5
		C85.2,26.7,84.1,24.6,82,22.9z M60.6,4.5c3.5,0.1,6.2,0.8,8.1,2.2c2,1.3,3,3.1,3,5.3s-1,3.9-2.9,5.2c-2,1.3-4.7,2-8.3,2.2L60.6,4.5
		z M70.5,34.7C68.2,36,65,36.8,60.6,37l-0.2-15.2c4.4,0.2,7.7,1,10,2.3c2.3,1.3,3.4,3.1,3.4,5.3C73.8,31.6,72.7,33.4,70.5,34.7z"/>
	<path class="st0" d="M106.5,27.3c3.7,0,6.6,2.7,6.6,6.1c0,3.4-3,6.1-6.6,6.1c-3.7,0-6.6-2.7-6.6-6.1
		C99.9,30.1,102.8,27.3,106.5,27.3L106.5,27.3z"/>
</g>
<g id="Shayona">
	<path class="st1" d="M51.5,51c-0.1,2.6-0.2,5-0.2,7.4c-0.1,2.4-0.1,4.7-0.1,6.9v3.1h15.7c0-3.4,0-6.5-0.1-9.3
		c0-2.8-0.1-5.5-0.2-8.1c1.4,0.1,2.5,0.1,3.2,0.2c0.7,0,1.4,0,2,0s1.3,0,2,0s1.7-0.1,2.9-0.2l2,1.9c-0.1,2.7-0.2,5.6-0.3,8.5
		c-0.1,2.9-0.1,6-0.1,9.2s0,6.3,0.1,9.3s0.2,6,0.3,8.9l-1.9,1.7c-0.8-0.1-1.7-0.1-2.6-0.1s-1.7,0-2.6,0s-1.7,0-2.6,0
		c-0.8,0-1.7,0.1-2.5,0.1c0.1-2.7,0.1-5.5,0.2-8.4c0-2.9,0.1-5.8,0.1-8.9H51.2V76c0,2.1,0,4.3,0.1,6.6c0.1,2.4,0.1,4.9,0.2,7.8
		c-0.8-0.1-1.7-0.1-2.5-0.1s-1.7,0-2.6,0c-0.8,0-1.7,0-2.6,0c-0.9,0-1.7,0.1-2.5,0.1l-2-1.7c0.2-3.3,0.3-6.5,0.4-9.5
		c0.1-3,0.1-5.9,0.1-8.7c0-2.8,0-5.7-0.1-8.6s-0.2-6-0.4-9.1l2.1-1.9c1.2,0.1,2.2,0.2,2.9,0.2s1.4,0,2,0s1.3,0,2,0
		C49.1,51.1,50.1,51.1,51.5,51L51.5,51z"/>
	<path class="st1" d="M102.8,75.3c1.2,1.4,2.5,2.8,3.9,4.2c1.3,1.4,2.7,2.7,4.2,4.1c-1.2,0.9-2.5,1.9-3.8,3s-2.7,2.3-4.3,3.6
		c-1.6-1.4-3-2.6-4.3-3.7s-2.6-2-3.8-2.9c1.4-1.3,2.8-2.7,4.2-4.1C100.2,78,101.6,76.7,102.8,75.3L102.8,75.3z M103.5,66.6
		c-3,3.9-6,8-8.9,12.2s-5.8,8.6-8.7,13.1L82.2,87c3.7-5.1,6.9-9.7,9.8-13.9c2.9-4.2,5.5-8.1,8-11.8L96,56c1.7-1,3.4-2.1,5.1-3.2
		c1.7-1.1,3.3-2.2,4.9-3.4c3.8,6,7.7,12,11.6,17.9c4,5.9,8,11.7,12.2,17.5c-1.6,0.9-3.3,2-5,3.2s-3.5,2.5-5.4,3.9
		c-2.6-4.3-5.2-8.6-7.9-12.8C108.9,74.9,106.2,70.7,103.5,66.6L103.5,66.6z"/>
	<path class="st1" d="M138,90.4l-1.4-1c0.3-2.2,0.6-4.3,0.7-6.4c0.2-2.1,0.2-4.1,0.2-6c0-0.9,0-1.6,0-2c0-0.5,0-0.9-0.1-1.3
		c-2.2-2.8-4.4-5.4-6.7-8c-2.2-2.6-4.5-5-6.7-7.4l0.6-1.8c1.5-0.9,3-1.9,4.5-3c1.5-1.1,3-2.3,4.6-3.7c1.7,2.8,3.5,5.5,5.5,8.4
		c2,2.8,4.1,5.6,6.4,8.5l11.7-16.8l3.9,5L149,71.7c0,0.4,0,0.8-0.1,1.2c0,0.5,0,1.2,0,2.1c0,2.4,0.1,4.8,0.4,7.4
		c0.2,2.6,0.6,5.2,1.1,7.9c-1,0-2.1-0.1-3.1-0.1s-2.1,0-3.2,0c-1,0-2,0-3.1,0C140.1,90.3,139,90.3,138,90.4L138,90.4z"/>
	<path class="st1" d="M179.5,54.1c-2,1.3-3.5,3.2-4.6,5.5s-1.6,5-1.6,8c0,4.9,1,8.9,3.1,12.2c2,3.3,5,5.6,8.8,7
		c2.1-1.4,3.7-3.2,4.8-5.5s1.6-4.9,1.6-7.9c0-4.9-1-8.9-3.1-12.3C186.4,57.7,183.4,55.4,179.5,54.1L179.5,54.1z M204.6,70.7
		c0,2.7-0.5,5.1-1.4,7.4c-0.9,2.2-2.3,4.3-4.1,6.1c-2.3,2.2-4.9,3.9-7.9,5.1c-3,1.1-6.3,1.7-9.8,1.7c-2.8,0-5.4-0.4-7.8-1.2
		c-2.4-0.8-4.5-2-6.3-3.5c-2.2-1.8-3.9-4.1-5.1-6.9c-1.2-2.8-1.9-5.7-1.9-8.7c0-3.1,0.6-6,1.9-8.6c1.3-2.6,3.1-4.9,5.5-6.7
		c2.2-1.6,4.6-2.9,7.2-3.7c2.7-0.8,5.5-1.3,8.6-1.3c2.7,0,5.1,0.3,7.3,1s4.2,1.7,6,3c2.5,1.9,4.4,4.2,5.7,7
		C203.9,64.3,204.6,67.4,204.6,70.7L204.6,70.7z"/>
	<path class="st1" d="M218.7,65.1v23.5l-6.1,2.8V58.8l-2.5-2.5c1.7-1.1,3.3-2.2,4.9-3.3c1.6-1.1,3.2-2.2,4.8-3.4
		c4.1,4.9,8.1,9.5,11.9,13.8c3.9,4.3,7.5,8.1,10.9,11.5V52.7l6-2.8v31.7l2.8,2.8c-1.6,1.2-3.1,2.5-4.5,3.7c-1.4,1.3-2.8,2.5-4.1,3.8
		c-4.1-4.7-8.2-9.3-12.2-13.7C226.6,73.7,222.6,69.4,218.7,65.1L218.7,65.1z"/>
	<path class="st1" d="M273,75.3c1.2,1.4,2.5,2.8,3.9,4.2c1.3,1.4,2.7,2.7,4.2,4.1c-1.2,0.9-2.5,1.9-3.8,3s-2.7,2.3-4.2,3.6
		c-1.6-1.4-3-2.6-4.3-3.7s-2.6-2-3.8-2.9c1.5-1.3,2.9-2.7,4.2-4.1C270.4,78,271.7,76.7,273,75.3L273,75.3z M273.6,66.6
		c-3,3.9-6,8-8.9,12.2s-5.8,8.6-8.7,13.1l-3.7-4.9c3.7-5.1,6.9-9.7,9.8-13.9c2.9-4.2,5.5-8.1,8-11.8l-4-5.3c1.7-1,3.4-2.1,5.1-3.2
		c1.7-1.1,3.3-2.2,4.9-3.4c3.8,6,7.7,12,11.6,17.9c4,5.9,8,11.7,12.2,17.5c-1.6,0.9-3.3,2-5,3.2s-3.5,2.5-5.4,3.9
		c-2.6-4.3-5.2-8.6-7.9-12.8C279,74.9,276.4,70.7,273.6,66.6L273.6,66.6z"/>
	<path class="st1" d="M2.8,91.2L0,87c0.8,0.1,1.5,0.2,2.2,0.2s1.5-0.1,2.2-0.2c3.9-0.7,6.6-2.4,7.9-5.2c1.3-2.7,1.4-6.6,0.3-11.6
		c-0.5-2-1.1-4.4-1.7-7c-0.7-2.6-1.1-4.2-1.2-4.9C7.7,50,8,43.2,10.7,38s7.5-8.4,14.4-9.6c1.9-0.3,3.8-0.5,5.7-0.4s3.8,0.4,5.9,0.9
		l2.8,3.9c-1,0-1.9,0-2.8,0.1c-0.9,0.1-1.7,0.2-2.4,0.3c-3.9,0.7-6.4,2.6-7.5,5.6s-0.9,7.8,0.6,14.2c0.1,0.3,0.3,1.3,0.8,3.1
		c0.4,1.7,0.8,3.3,1.2,4.8c1.1,4.8,1.6,8.5,1.6,11.4c0,2.8-0.6,5.3-1.6,7.5c-1.5,3.1-3.7,5.6-6.4,7.5s-6,3.2-9.9,3.9
		c-2,0.4-3.8,0.5-5.5,0.6C5.9,91.7,4.4,91.5,2.8,91.2L2.8,91.2z"/>
</g>
<g id="Tulsi">
	<g>
		<defs>
			<path id="SVGID_1_" d="M197.3,14.9c-1.4,1,0.1,3,1.3,3.3c-0.1,1.1,0.9,2.6,3.1,3.3c-1.4,1.2,0.9,4.2,2.9,4.4
				c-0.9,2.8,5.7,2.9,8.5,3.6c0.8,0.3,1.1,0.8,0.5,1.5v-2.1c3.1-11.2-0.4-9.4-0.5-10.1c-0.2-3.9-3.4-5.6-3.7-5.2
				c-2.4-5.1-2.8-2.5-3-3c-0.1-0.3-2.9-1.9-3.6-1.1c-0.7-0.3-4.5-1-5.4,0.5C195.6,12.7,197,14.4,197.3,14.9L197.3,14.9z"/>
		</defs>
		<clipPath id="SVGID_2_">
			<use xlink:href="#SVGID_1_"  style="overflow:visible;"/>
		</clipPath>
		<linearGradient id="SVGID_3_" gradientUnits="userSpaceOnUse" x1="217.6" y1="19.5" x2="195.3" y2="19.5">
			<stop  offset="0" style="stop-color:#25B34B"/>
			<stop  offset="1" style="stop-color:#91C951"/>
		</linearGradient>
		<path class="st2" d="M195.3,19.6c0,3.6,0,7.3,0,10.9c0,0.6,0.1,0.7,0.7,0.7c7,0,13.9,0,20.9,0c0.6,0,0.7-0.1,0.7-0.7
			c0-7.3,0-14.7,0-22c0-0.6-0.1-0.7-0.7-0.7c-7,0-13.9,0-20.9,0c-0.6,0-0.7,0.1-0.7,0.7C195.3,12.2,195.3,15.9,195.3,19.6z
			 M212.6,8.1c-5.4,0-10.8,0-16.2,0c-0.5,0-0.7,0.2-0.7,0.7c0,5.1,0,10.2,0,15.3c0.6,0.2,1-0.3,1.3-0.6c3.9-3.8,8-7.5,12-11.2
			c1-1,2.1-1.9,3.1-3C212.5,8.9,212.9,8.6,212.6,8.1z M200.2,30.7c0.7,0,1.5,0,2.2,0c0.3-0.1,0.6-0.3,0.8-0.5
			c2.7-2.7,5.5-5.2,8.3-7.8c1.6-1.5,3.1-3.1,4.8-4.4c0.3-0.3,0.6-0.6,0.7-1c0-0.7,0-1.3,0-2c-0.5-0.3-0.7,0.1-1,0.4
			c-1.8,1.4-3.3,3-5,4.6c-2.9,2.8-6,5.4-8.8,8.3c-0.5,0.5-1.1,0.9-1.6,1.4C200.4,29.9,199.9,30.2,200.2,30.7z M212.6,8.1
			c-0.6,1.3-1.7,2.1-2.7,3c-1.5,1.2-2.8,2.7-4.3,4c-3,2.7-5.9,5.6-8.8,8.3c-0.3,0.3-0.7,0.5-1,0.7c0,0.4,0,0.9,0,1.3
			c0.7,0.3,1.1-0.2,1.5-0.6c0.9-0.9,1.7-1.9,2.8-2.6c4.5-4.3,9.1-8.6,13.7-12.8c0.4-0.3,1-0.6,0.7-1.3
			C213.8,8.1,213.2,8.1,212.6,8.1z M195.8,29c0,0.4,0,0.9,0,1.3c0.5,0.3,0.8-0.1,1-0.4c2.8-2.8,5.7-5.4,8.6-8.1
			c3.8-3.5,7.5-7.1,11.4-10.6c0.1-0.1,0.2-0.2,0.3-0.3c0-0.4,0-0.9,0-1.3c-0.4-0.3-0.7,0.1-1,0.3c-2,1.7-3.9,3.6-5.9,5.4
			c-4,3.8-8.2,7.5-12.1,11.4C197.3,27.5,196.4,28.1,195.8,29z M197.5,30.7c0.4,0,0.9,0,1.3,0c1.2-1.1,2.4-2.2,3.6-3.3
			c4.1-4,8.4-7.7,12.4-11.7c0.7-0.7,1.6-1.2,2.2-2c0-0.4,0-0.9,0-1.3c-0.5-0.3-0.8,0.2-1.1,0.5c-3.8,3.6-7.6,7.1-11.3,10.6
			c-2.1,2-4.4,4-6.5,6.1C197.8,29.8,197.2,30,197.5,30.7z M217.1,13.6c-0.9,0.3-1.5,1.1-2.2,1.8c-3.1,2.8-6,5.7-9.1,8.6
			c-2.1,1.9-4.2,3.9-6.2,5.8c-0.3,0.3-0.7,0.5-0.7,1c0.4,0,0.9,0,1.3,0c0-0.4,0.3-0.6,0.6-0.9c3.6-3.2,7.1-6.5,10.6-9.9
			c1.6-1.5,3.3-3,4.9-4.5c0.2-0.2,0.4-0.5,0.8-0.5C217.1,14.5,217.1,14.1,217.1,13.6z M195.8,27.2c0,0.3,0,0.6,0,0.9
			c0.5,0.3,0.7-0.1,1-0.4c1.8-1.4,3.3-3,5-4.6c2.9-2.8,5.9-5.5,8.8-8.3c1.9-1.8,3.8-3.6,5.8-5.4c0.3-0.2,0.5-0.4,0.7-0.7
			c0.2-0.9-0.4-0.7-0.9-0.6c-0.8,0.7-1.6,1.4-2.4,2.1c-2.9,2.9-5.9,5.6-8.9,8.4c-2.6,2.4-5.1,4.9-7.8,7.2
			C196.6,26.2,196.1,26.7,195.8,27.2z M217.1,8.7c-1.2,0.6-2,1.6-2.9,2.4c-3.1,2.8-6,5.7-9,8.5c-2.9,2.7-5.9,5.4-8.8,8.1
			c-0.2,0.2-0.3,0.3-0.6,0.3c0,0.3,0,0.6,0,0.9c1-0.4,1.6-1.3,2.4-1.9c1.4-1.1,2.7-2.4,4-3.7c4.1-3.9,8.2-7.8,12.3-11.6
			c0.8-0.7,1.5-1.7,2.6-2.2C217.1,9.3,217.1,9,217.1,8.7z M195.8,27.2c1-0.4,1.7-1.3,2.5-2c1.8-1.6,3.5-3.4,5.3-5
			c3.6-3.3,7.1-6.7,10.7-10c0.7-0.6,1.6-1.1,2-2.1c-0.3,0-0.6,0-0.9,0c-0.3,0.1-0.5,0.3-0.7,0.5c-3,3-6.2,5.8-9.3,8.8
			c-1.8,1.7-3.6,3.4-5.4,5.1c-1.3,1.4-2.9,2.5-4.1,3.9C195.8,26.6,195.8,26.9,195.8,27.2z M217.1,10.9c-0.5,0.1-0.9,0.4-1.3,0.8
			c-1.5,1.4-3,2.9-4.6,4.3c-3.9,3.7-7.7,7.4-11.7,11c-1,0.9-1.9,1.8-2.8,2.6c-0.3,0.2-0.5,0.6-0.9,0.6c0,0.8,0.5,0.3,0.9,0.4
			c1.8-1.5,3.5-3.1,5.1-4.7c4.9-4.6,9.8-9.1,14.7-13.7c0.2-0.2,0.4-0.4,0.6-0.6C217.1,11.4,217.1,11.2,217.1,10.9z M217.1,11.6
			c-1.1,0.4-1.7,1.4-2.6,2.2c-1.5,1.2-2.9,2.7-4.4,4.1c-3.9,3.7-7.8,7.3-11.7,11c-0.6,0.6-1.5,0.9-1.8,1.9c0.3,0,0.6,0,0.9,0
			c0.6-1.3,1.7-2.1,2.7-3c1.6-1.3,2.9-2.8,4.4-4.1c3.1-2.8,6-5.8,9.1-8.5c1.1-0.9,1.9-2.1,3.2-2.8C217.1,12.1,217.1,11.8,217.1,11.6
			z M217.1,17c-2.2,1.7-4.1,3.8-6.2,5.7c-2.6,2.4-5.1,4.8-7.6,7.2c-0.3,0.3-0.5,0.6-0.8,0.9c0.4,0,0.7,0,1.1,0
			c1.8-1.3,3.4-2.8,4.9-4.5c0.4-0.6,1-1.2,1.6-1.6c0.1-0.1,0.2-0.2,0.4-0.3c1.4-1.7,3-3.1,4.6-4.5c0.6-0.7,1.7-0.9,2.1-2
			C217.1,17.5,217.1,17.3,217.1,17z M200,22.5c5.2-4.7,10.4-9.4,15.3-14.4c-0.3,0-0.6,0-0.9,0c0,0.5-0.4,0.7-0.7,1
			c-3.5,3.2-7,6.5-10.5,9.8c-1.1,1.1-2.3,2.1-3.3,3.3C199.8,22.2,199.8,22.4,200,22.5z M217.1,22.5c0-0.3,0-0.6,0-0.9
			c-0.5-0.1-0.7,0.3-1,0.6c-2.1,2.2-4.4,4.2-6.6,6.3c-0.7,0.7-1.6,1.2-1.9,2.2c0.3,0,0.6,0,0.9,0c0.3-0.1,0.6-0.3,0.8-0.5
			c2.2-2.3,4.6-4.4,6.9-6.5C216.6,23.3,216.9,23,217.1,22.5z M207.5,30.7c1.3-1.5,2.8-2.6,4.1-4c1.5-1.5,3.3-2.6,4.5-4.5
			c-0.5-0.3-0.8,0.1-1.1,0.4c-0.6,0.5-1,1.1-1.6,1.4c-1.5,1.3-3.1,2.6-4.5,4.1c-0.6,0.6-1.2,1.3-1.9,1.8c-0.2,0.2-0.5,0.4-0.4,0.7
			C206.9,30.7,207.2,30.7,207.5,30.7z M217.1,24.5c0-0.3,0-0.6,0-0.9c-1,0.1-1.4,0.9-2.1,1.5c-1.6,1.5-3.2,2.9-4.7,4.4
			c-0.3,0.3-0.8,0.5-0.7,1.1c0.3,0,0.6,0,0.9,0c1-0.5,1.7-1.3,2.5-2c1.2-1,2.2-2.3,3.5-3.2C216.7,25.2,216.9,24.9,217.1,24.5z
			 M206.6,30.7c2.3-2.1,4.6-4.3,6.9-6.4c0.3-0.2,0.7-0.4,0.5-0.9c-0.1-0.1-0.3-0.2-0.5-0.2c-0.5,0.1-0.8,0.5-1.1,0.9
			c-0.3,0.5-0.8,0.9-1.2,1.3c-0.1,0.1-0.1,0.1-0.2,0.2c-0.3,0.3-0.6,0.6-1,0.8c-0.8,0.8-1.9,1.1-2.5,2.1c-0.4,0.8-1.5,1.1-1.6,2.1
			C206.2,30.7,206.4,30.7,206.6,30.7z M209.5,30.7c1.6-1.5,3.1-3.1,4.8-4.5c0.9-0.8,1.8-1.7,2.7-2.6c0-0.2,0-0.4,0-0.7
			c-1,0.3-1.6,1.2-2.3,1.8c-1.8,1.7-3.7,3.3-5.4,5.1c-0.2,0.2-0.6,0.4-0.5,0.8C209.1,30.7,209.3,30.7,209.5,30.7z M217.1,24.5
			c-2.3,2-4.5,4-6.6,6.2c0.3,0,0.6,0,0.9,0c1-0.6,1.9-1.4,2.7-2.2c1-1,2.1-1.9,3-3.1C217.1,25.1,217.1,24.8,217.1,24.5z M217.1,25.4
			c-2.1,1.6-3.9,3.5-5.7,5.3c0.4,0,0.7,0,1.1,0c1.1-0.6,1.8-1.6,2.6-2.5c0.4-0.5,0.8-1,1.4-1.3c0.2-0.2,0.4-0.3,0.4-0.6
			C217,26,217.2,25.7,217.1,25.4z M208.9,30.7c2.1-2.1,4.2-4.1,6.4-6.1c0.6-0.5,1.2-1.1,1.8-1.7c0-0.1,0-0.3,0-0.4
			c-2.9,2.7-6,5.2-8.6,8.2C208.6,30.7,208.7,30.7,208.9,30.7z M204.6,30.7c0.2,0,0.4,0,0.7,0c0.7-0.6,1.4-1.2,2.1-1.9
			c0.7-1,1.7-1.6,2.6-2.4c0.6-0.5,1.1-0.9,1.5-1.6c0.1-0.2,0.2-0.4,0-0.6c-0.6-0.2-0.9,0.3-1.2,0.6c-1,0.9-1.8,1.9-2.8,2.7
			c-0.6,0.5-1.1,1.2-1.8,1.5c-0.1,0.1-0.3,0.2-0.4,0.3C205.1,29.7,204.5,30,204.6,30.7z M205.5,29.4c0.1-0.1,0.1-0.1,0.2-0.2
			c0.7-0.5,1.2-1.2,1.9-1.7c0.9-0.8,1.8-1.5,2.6-2.4c0.2-0.2,0.6-0.4,0.4-0.8c-0.2-0.1-0.3-0.1-0.4,0.1c-0.1,0.1-0.1,0.1-0.2,0.2
			c-0.7,0.4-1.1,1.1-1.8,1.6c-1.2,1.5-2.7,2.6-4,3.9c-0.2,0.2-0.5,0.5-0.6,0.8c0.1,0,0.3,0,0.4,0C204.7,30.5,204.9,29.7,205.5,29.4z
			 M200,22.5c0-0.1,0-0.3,0-0.4c-1.2,0.5-1.8,1.6-2.7,2.4c-0.4,0.4-0.8,0.9-1.5,0.9c0,0.3,0,0.6,0,0.9C197.3,25.2,198.8,24,200,22.5
			z M214.6,30.7c2.5,0.1,2.5,0.1,2.4-2.4C215.9,28.7,215.1,29.6,214.6,30.7z M216.9,26.3c-0.2,0.1-0.4,0.2-0.5,0.5
			c-0.6,0.4-1,1-1.6,1.3c-0.8,0.9-1.6,1.8-2.4,2.6c0.2,0,0.4,0,0.7,0c1-0.6,1.9-1.4,2.8-2.3c0.4-0.5,1-0.9,1.2-1.5
			C217.1,26.7,217.2,26.4,216.9,26.3z M213.5,23.4c0.1,0,0.3,0,0.4,0c1.3-0.6,2.3-1.4,3.1-2.7c0-0.3,0-0.6,0-0.9
			c-0.9,0.1-1.4,0.8-2,1.4c-0.3,0.5-0.6,0.9-1.1,1.2C213.7,22.7,213.4,22.9,213.5,23.4z M217.1,19c0-0.2,0-0.4,0-0.7
			c-0.9,0.3-1.4,1.3-2.3,1.7c-0.6,0.8-1.7,1.2-1.9,2.4c0.1,0.1,0.3,0.1,0.4,0.1c0.6-0.4,1.2-1,1.9-1.3
			C215.8,20.4,216.7,19.9,217.1,19z M217.1,20.7c-1,0.9-2.1,1.8-3.1,2.7c0,0.4-0.3,0.6-0.4,0.9c0.7-0.1,1-0.8,1.5-1.2
			c0.4-0.3,0.6-0.8,1.1-0.8c0.3-0.2,0.6-0.4,0.9-0.7C217.1,21.3,217.1,21,217.1,20.7z M214.6,30.7c0.7-0.9,1.5-1.7,2.4-2.4
			c0-0.1,0-0.3,0-0.4c-0.7-0.2-1,0.5-1.4,0.8c-0.4,0.4-0.7,0.7-1.2,1c-0.3,0.2-0.8,0.5-0.5,1C214.2,30.7,214.4,30.7,214.6,30.7z
			 M214,30.7c0.2-1,1.4-1.1,1.8-2c0.1-0.1,0.1-0.3,0-0.4c-0.9,0.8-1.9,1.4-2.7,2.4C213.4,30.7,213.7,30.7,214,30.7z M217.1,19
			c-0.7,0.6-1.4,1.2-2,2c-0.2,0.1-0.4,0.2-0.2,0.5c0.2,0.1,0.3,0.1,0.4-0.1c0.4-0.7,1.2-1,1.7-1.6C217.1,19.6,217.1,19.3,217.1,19z
			 M207.3,28.7c-0.7,0.6-1.6,1-2,2c0.2,0,0.4,0,0.7,0c0.6-0.7,1.2-1.3,1.8-2C207.6,28.6,207.5,28.6,207.3,28.7z M214.9,20.1
			c1-0.3,1.4-1.3,2.2-1.8c0-0.1,0-0.3,0-0.4c-0.7,0.6-1.5,1.2-2.2,1.8C214.7,19.8,214.7,19.9,214.9,20.1z M215.8,28.3
			c0,0.1,0,0.3,0,0.4c0.4-0.3,0.9-0.6,1.3-0.9c0-0.3,0-0.6,0-0.9C216.6,27.3,216.1,27.8,215.8,28.3z M205.5,29.4
			c-0.8,0.2-1.1,0.8-1.6,1.3c0.2,0,0.4,0,0.7,0C204.9,30.3,205.2,29.8,205.5,29.4z M214.9,20.1c0-0.1,0-0.3,0-0.4
			c-1.6,1.5-3.4,2.8-4.7,4.7c0.1,0,0.3,0,0.4,0c0.9-0.5,1.6-1.2,2.2-2C213.5,21.5,214.2,20.8,214.9,20.1z M208.2,26.1
			c0.8-0.2,1.3-1,1.8-1.6C209.1,24.7,208.7,25.5,208.2,26.1z M207.3,28.7c0.1,0,0.3,0,0.4,0c0.5-1.1,1.9-1.2,2.4-2.2
			c0.4-0.3,0.7-0.6,1.1-0.9l0,0c0.1-0.3,0.6-0.5,0.4-0.9c-0.2-0.1-0.3-0.1-0.4,0.1c-0.9,1.3-2.3,1.9-3.2,3.1
			C207.8,28.1,207.6,28.4,207.3,28.7z M216.5,20.7c-0.3,0-0.8,0-1,0c-1.8,0-2.3,1.2-3.3,2.4c-0.8,1.7-3.6,2.4-3.3,4.9
			c0.5,0.2,0.8,0.2,1-0.2c0.5-1,1.3-1.7,2.3-2.2C213.1,23.6,215.7,22.9,216.5,20.7z M212.6,24.3c-0.1,0-0.3,0-0.4,0
			c-0.4-0.1-0.5,0.1-0.4,0.4c-0.1,0.3-0.5,0.5-0.4,0.9C211.8,25.3,212.3,24.8,212.6,24.3z M211.3,25.6c-0.6,0.1-0.8,0.5-1.1,0.9
			C210.8,26.5,211,26,211.3,25.6z M214.9,28.1c0.8-0.2,1.1-0.8,1.6-1.3C215.7,26.9,215.3,27.5,214.9,28.1z M212.9,22.3
			c-0.9,0.5-1.6,1.2-2.2,2c-0.8,1.3-2.2,1.9-3.1,3.1c-0.1,0-0.1,0.1-0.1,0.1s0,0.1,0.1,0.1c1-0.3,1.4-1.2,2.1-1.7
			c0.7-0.5,1-1.4,1.9-1.6c0.8-0.4,1.3-1.1,1.8-1.7c0-0.1,0-0.2,0-0.3C213.2,22.3,213,22.3,212.9,22.3z M213.3,22.5
			c-0.7,0.5-1.3,1.1-1.8,1.8c-0.1,0.1-0.1,0.3-0.2,0.4c0.1,0,0.3,0,0.4,0c0.1-0.2,0.2-0.4,0.4-0.4c0.5-0.6,1-1.2,1.6-1.8
			C213.6,22.4,213.5,22.4,213.3,22.5z M207.5,27.6c0-0.1,0-0.1,0-0.2c-0.7,0.5-1.3,1.1-1.8,1.8C206.6,29,207,28.2,207.5,27.6z
			 M213.3,22.5c0.1,0,0.3,0,0.4,0c0.3-0.5,0.7-0.8,1.1-1.1c0.1-0.1,0.1-0.3,0.2-0.4c-0.7,0.2-1.4,0.7-1.8,1.3
			C213.3,22.4,213.3,22.4,213.3,22.5z"/>
	</g>
	<g>
		<defs>
			<path id="SVGID_4_" d="M218.2,15.4c1.4,1.5,3.2-7.6,7.5-6c0.5-1,5.7-4.6,5.6-2c2-0.5,8.5-3.5,7.6-1.3c2.1-1,7.6-1.7,7.3,0.3
				c1.5-0.5,3.6,0,4.2,1.5c2.6,0.7,4.8,3.9,5.2,3.6c0.5,0.6-0.6,5.1-2.4,5.9c1.2,0.7-0.7,2.7-3.8,4.6c1.7,0.9-6.6,4.1-5.4,4.3
				c1.2,0.4-2.9,2.2-4.8,2.3c0,0.7,0.8,1.8-9,2c-1,1.7-9.1-3.8-14.2,3.8c-0.1,0.1-0.5,0.5-0.6,0.6c0.1-0.4,0.4-1,0.5-1.4
				c0.3-0.4,0.3-0.9,0.5-1.3C218.6,27.5,212.2,21.9,218.2,15.4L218.2,15.4z"/>
		</defs>
		<clipPath id="SVGID_5_">
			<use xlink:href="#SVGID_4_"  style="overflow:visible;"/>
		</clipPath>
		<linearGradient id="SVGID_6_" gradientUnits="userSpaceOnUse" x1="211.9" y1="19.3551" x2="257.3" y2="19.3551">
			<stop  offset="0" style="stop-color:#25B34B"/>
			<stop  offset="1" style="stop-color:#91C951"/>
		</linearGradient>
		<path class="st3" d="M211.9,3.3c0,10.4,0,20.8,0,31.3c0,0.7,0.1,0.8,0.8,0.8c14.6,0,29.2,0,43.8,0c0.7,0,0.8-0.1,0.8-0.8
			c0-10.2,0-20.3,0-30.5c0-0.7-0.1-0.8-0.8-0.8C241.6,3.3,226.7,3.3,211.9,3.3z M215.4,3.5c-1,0-2.3-0.4-2.9,0.1
			c-0.6,0.5-0.2,1.8-0.2,2.7c0,9.1,0,18.2,0,27.3c0,0.9,0.2,1.2,1.1,1.1c2-0.1,4,0,6-0.1c0.4-0.4,0.3-0.9,0.2-1.4
			c-1.2-9.4-2.4-18.8-3.7-28.3C215.9,4.6,215.9,4,215.4,3.5z M241.5,36.5c1.8,1.2,3.1,2.1,4.9,3.4c1.5,0.7,1.3,0,1.5-0.2
			c0.1-6.8-0.2-14-0.1-20.7c0.1-4.9,0.2-9.7-0.2-14.9c-0.2-0.6,0-0.9-0.8-1.7c-1.8-1.2-3.1-2.1-4.9-3.4c-3.7-1.3-1.6,1.4-1.8,2.6
			c-0.2,6,0.2,12.1,0,18.1c-0.1,4.9,0.3,10,0.2,14.9C239.7,34.5,240.3,35.4,241.5,36.5z M225,34.8c0.4,0,0.7,0,1.1,0
			c0.4-1.4-0.1-2.7-0.2-4c-0.5-3.8-1-7.6-1.5-11.4c-0.4-3-0.8-6.1-1.2-9.1c-0.3-1.9-0.5-3.9-0.8-5.8c0-0.3-0.1-0.7-0.3-0.9
			c-0.4,0-0.7,0-1.1,0c-0.4,1.1,0,2.2,0.2,3.3c0.9,6.5,1.7,13,2.6,19.5c0.4,2.6,0.7,5.1,1,7.7C224.7,34.3,224.8,34.6,225,34.8z
			 M242.1,34.8c0.3,0,0.6,0,0.9,0c0.4-0.4,0.3-0.8,0.2-1.3c-1.2-9.4-2.5-18.8-3.7-28.3c-0.1-0.6-0.1-1.3-0.5-1.8c-0.3,0-0.6,0-0.9,0
			c-0.4,1.3,0.1,2.6,0.2,3.9c0.5,3.8,1,7.5,1.5,11.3c0.5,3.7,1,7.3,1.4,11c0.2,1.4,0.4,2.7,0.6,4.1
			C241.8,34.2,241.8,34.6,242.1,34.8z M215.4,3.5c0.3,2.6,0.7,5.2,1,7.7c0.3,2.6,0.7,5.2,1,7.7c0.4,3.1,0.8,6.2,1.2,9.4
			c0.3,2.1,0.5,4.3,0.8,6.4c0.3,0,0.6,0,0.9,0c0.3-0.7,0.1-1.5,0-2.2c-0.4-3.2-0.8-6.4-1.2-9.5c-0.4-3-0.8-6-1.2-9
			c-0.4-3.1-0.8-6.3-1.3-9.4c-0.1-0.4,0-0.9-0.5-1.1C215.9,3.5,215.6,3.5,215.4,3.5z M239,3.5c0.2,2.1,0.5,4.2,0.7,6.2
			c0.3,2.6,0.7,5.2,1.1,7.8c0.5,3.7,1,7.5,1.5,11.2c0.3,2,0.5,4,0.7,6c0.3,0,0.6,0,0.9,0c0.3-1.1-0.1-2.2-0.2-3.3
			c-0.6-5-1.3-10-1.9-15c-0.5-4-1.1-8-1.6-12.1c0-0.4-0.2-0.7-0.5-0.9C239.5,3.5,239.2,3.5,239,3.5z M241.3,3.5c-0.6,0-1.1,0-1.7,0
			c-0.6,1.8,0.6,3.5,0.9,5.3c0.7,3.7,1.8,7.5,2.6,11.2c0.7,3.1,1.5,6.2,2.2,9.3c0.4,1.4,0.6,2.9,0.9,4.3c0.2,0.5,0.2,1,1.1,1.3
			c0.4,0,0.7,0,1.3,0c0.4-0.2,0.4-0.5,0.4-0.8c-0.4-0.5-0.2-1.1-0.4-1.6c0-0.1,0-0.2-0.2-0.3c-0.4-0.5-0.2-1-0.4-1.5
			c0-0.1,0-0.2-0.2-0.3c-0.4-0.4-0.2-0.9-0.4-1.3c0-0.1,0-0.2-0.2-0.3c-0.4-0.5-0.2-1-0.2-1.5c0-0.1,0-0.2-0.2-0.3
			c-0.4-0.5-0.2-1-0.4-1.5c0-0.1,0-0.2-0.2-0.3c-0.4-0.4-0.2-0.9-0.4-1.3c0-0.1,0-0.2-0.2-0.3c-0.4-0.5-0.2-1-0.2-1.5
			c0-0.1,0-0.2-0.2-0.3c-0.4-0.5-0.2-1-0.4-1.5c0-0.1,0-0.2-0.2-0.3c-0.4-0.4-0.2-0.9-0.4-1.3c0-0.1,0-0.2-0.2-0.3
			c-0.4-0.5-0.2-1-0.2-1.5c0-0.1,0-0.2-0.2-0.3c-0.4-0.5-0.2-1-0.4-1.5c0-0.1,0-0.2-0.2-0.3c-0.2-0.5,0-1-0.2-1.5
			c-0.6-2.7-1.3-5.3-1.8-8C242.2,4.7,242,4.1,241.3,3.5z M223.4,3.5c-0.2,0-0.4,0-0.7,0c-0.7,1-0.1,2.1,0,3.1
			c0.5,3.8,1,7.5,1.5,11.3c0.6,4.3,1.1,8.6,1.7,12.9c0.1,0.9,0.3,1.8,0.3,2.6c0,0.5,0.1,1,0.5,1.3c0.2,0,0.4,0,0.7,0
			c0.3-0.3,0.3-0.7,0.2-1c-0.8-5.9-1.6-11.8-2.3-17.6c-0.5-3.7-1-7.4-1.4-11.2C223.9,4.5,223.8,4,223.4,3.5z M256.5,20.6
			c0-5.4,0-10.9,0-16.3c0-0.6-0.1-0.9-0.8-0.8c-0.5,0.1-1.1,0-1.7,0c-0.5,0.7-0.1,1.4,0,2c0.5,3.7,0.9,7.4,1.4,11.1
			c0.1,0.9,0.3,1.8,0.3,2.6C255.9,19.8,255.9,20.4,256.5,20.6z M227,3.5c-0.2,0-0.4,0-0.7,0c-0.3,0.3-0.2,0.7-0.1,1
			c0.4,3.2,0.8,6.4,1.2,9.6c0.3,2.4,0.6,4.8,1,7.2c0.5,3.7,1,7.4,1.4,11.1c0.1,0.8,0.2,1.6,0.5,2.4c0.3,0,0.6,0,0.9,0
			c0.1-0.1,0.2-0.3,0.1-0.5c-0.1-0.5-0.1-1-0.1-1.4c0-0.1,0-0.2-0.1-0.3c-0.2-0.4-0.1-0.8-0.2-1.3c0-0.1,0-0.2-0.1-0.3
			c-0.2-0.5-0.1-1-0.2-1.4c0-0.1,0-0.2-0.1-0.3c-0.2-0.5-0.1-1-0.2-1.5c0-0.1,0-0.2-0.1-0.3c-0.2-0.5-0.1-1-0.2-1.4
			c-0.6-4.3-1.1-8.7-1.7-13c-0.4-2.9-0.8-5.8-1.1-8.7C227.5,4,227.3,3.7,227,3.5z M254.1,34.8c0.3,0,0.6,0,0.9,0
			c0.3-1.3-0.1-2.6-0.2-3.8c-0.6-4.4-1.1-8.8-1.7-13.2c-0.5-3.7-0.9-7.4-1.5-11.1c-0.1-0.7-0.2-1.5-0.3-2.2
			c-0.1-0.4-0.2-0.8-0.5-1.1c-0.1,0-0.3,0-0.4,0c-0.7,1.2-0.1,2.4,0,3.6c0.6,4.9,1.3,9.8,1.9,14.7c0.5,4.1,1.1,8.3,1.6,12.4
			C253.9,34.5,254,34.7,254.1,34.8z M238.6,34.8c0.2,0,0.4,0,0.7,0c0.3-1.8-0.3-3.6-0.5-5.4c-0.4-3.7-1-7.5-1.4-11.2
			c-0.4-3.1-0.8-6.1-1.2-9.2c-0.2-1.5-0.4-2.9-0.6-4.4c-0.1-0.4,0-0.9-0.5-1.1c-0.1,0-0.3,0-0.4,0c-0.7,1.1-0.1,2.2,0,3.3
			c0.5,4.5,1.1,8.9,1.7,13.4c0.6,4.2,1,8.4,1.7,12.6C238.1,33.6,237.9,34.3,238.6,34.8z M226.8,34.8c-0.3-2.1-0.6-4.3-0.9-6.4
			c-0.5-3.8-1-7.6-1.5-11.3c-0.4-3.1-0.8-6.2-1.2-9.3c-0.2-1.4-0.5-2.8-0.4-4.3c-0.2,0-0.4,0-0.7,0c0,2.2,0.5,4.3,0.7,6.4
			c0.3,2.6,0.7,5.2,1,7.8c0.4,3.2,0.9,6.5,1.3,9.7c0.3,2.4,0.6,4.9,0.9,7.3C226.3,34.8,226.5,34.8,226.8,34.8z M225,34.8
			c0.1-2.3-0.5-4.6-0.7-6.9c-0.3-2.6-0.7-5.2-1-7.8c-0.5-3.7-1-7.5-1.5-11.2c-0.2-1.5-0.3-2.9-0.5-4.4c0-0.3,0-0.7-0.2-1
			c-0.2,0-0.3,0-0.5,0c-0.7,1.2-0.1,2.3,0,3.5c0.4,3.8,1,7.6,1.5,11.4c0.4,3,0.8,6.1,1.2,9.1c0.3,2,0.6,4,0.8,6
			c0.1,0.5,0.1,1,0.5,1.3C224.7,34.8,224.8,34.8,225,34.8z M245.2,34.8c-0.3-2.1-0.6-4.1-0.9-6.2c-0.5-3.8-1-7.6-1.5-11.3
			c-0.4-3.1-0.7-6.2-1.2-9.3c-0.2-1.5-0.2-3-0.6-4.5c-0.2,0-0.3,0-0.5,0c-0.7,1-0.1,2.1,0,3.1c0.5,3.8,1,7.5,1.5,11.3
			c0.6,4.3,1.1,8.6,1.7,12.9c0.1,0.9,0.3,1.8,0.3,2.6c0,0.5,0.1,1,0.5,1.3C244.8,34.8,245,34.8,245.2,34.8z M229.2,3.5
			c-0.2,0-0.4,0-0.7,0c-0.3,1,0,2.1,0.2,3.1c1,7.7,1.9,15.4,3,23.1c0.2,1.3,0.3,2.6,0.5,3.9c0,0.5,0.1,0.9,0.5,1.2
			c0.1,0,0.3,0,0.4,0c0.7-1.1,0.1-2.2,0-3.2c-0.5-3.8-1-7.6-1.5-11.4c-0.4-3-0.8-6.1-1.2-9.1c-0.3-2-0.6-4.1-0.8-6.1
			C229.7,4.4,229.6,3.9,229.2,3.5z M245,3.5c0,2.2,0.5,4.3,0.7,6.4c0.3,2.6,0.7,5.2,1,7.8c0.5,3.7,1,7.5,1.5,11.2
			c0.3,1.9,0.5,3.9,0.7,5.8c0.2,0,0.4,0,0.7,0c0.3-1,0-2.1-0.2-3.1c-0.7-5.4-1.4-10.8-2.1-16.2c-0.5-3.6-1-7.2-1.4-10.9
			c-0.1-0.5-0.1-0.9-0.5-1.2C245.3,3.5,245.2,3.5,245,3.5z M236.3,34.8c0.2,0,0.4,0,0.7,0c0.4-1.3-0.1-2.6-0.2-3.9
			c-0.4-3.3-0.8-6.5-1.2-9.8c-0.4-3-0.8-6.1-1.2-9.1c-0.3-2.5-0.6-5.1-1-7.6c0-0.3-0.1-0.7-0.3-0.9c-0.2,0-0.4,0-0.7,0
			c-0.5,0.7-0.1,1.4,0,2c0.6,4.3,1.1,8.6,1.7,12.9c0.5,4.2,1.1,8.4,1.7,12.6C235.8,32.3,235.7,33.7,236.3,34.8z M253.9,34.4
			c-1.4-4-2.9-8.1-4.6-12.1c-1.4-3.7-3.2-7.3-4.3-11c-0.9-2.7-2.3-5.4-2.9-8.2c-0.6,0-1.2,0-2,0c-1.4,0.6-0.3,1.3-0.3,1.9
			c1.2,3.7,2.6,7.3,4,11c1.7,4.3,3.2,8.6,4.9,13c0.9,1.8,0.6,3.7,2.6,5.4C252.7,34.4,253.3,34.4,253.9,34.4z M219,3.5
			c-0.2,0-0.4,0-0.7,0c-0.5,0.8-0.1,1.6,0,2.4c0.9,6.5,1.6,13,2.6,19.4c0.4,2.9,0.7,5.8,1.1,8.7c0,0.3,0.1,0.6,0.3,0.8
			c0.2,0,0.4,0,0.7,0c0.4-0.7,0.1-1.5,0-2.2c-0.7-5-1.3-10-2-15c-0.6-4.4-1.1-8.8-1.7-13.2C219.3,4.1,219.2,3.8,219,3.5z M226.9,1.7
			c-0.8-0.3-1.5-0.7-2.7-1.2c-2.2-0.2-1,1.2-0.9,2c0.6,4.9,0.9,9.7,1.5,14.7c0.4,5.4,1.2,11.1,1.7,16.5c0.2,0.7-0.1,1.4,1.2,2.5
			c0.8,0.3,1.5,0.7,2.7,1.2c2.1-0.5,0.6-2.6,0.8-3.9c-0.3-3.7-0.5-7.3-0.8-11c-0.4-3.4-0.7-6.9-1.1-10.3c-0.2-2.8-0.3-5.7-0.9-8.6
			C227.4,2.6,227.6,2.3,226.9,1.7z M240.8,34.8c0.1,0,0.3,0,0.4,0c0.6-1,0.1-2,0-2.9c-0.6-4.4-1.1-8.8-1.7-13.3
			c-0.6-4.6-1.2-9.2-1.8-13.8c-0.1-0.5-0.1-1-0.5-1.3c-0.2,0-0.4,0-0.7,0c-0.3,0.5-0.1,1-0.1,1.4c0.6,4.3,1.1,8.6,1.7,12.8
			c0.6,4.3,1.2,8.6,1.6,13c0.1,1.1,0.4,2.2,0.4,3.3C240.3,34.4,240.4,34.7,240.8,34.8z M232.8,34.8c-0.3-2.1-0.6-4.1-0.9-6.2
			c-0.5-3.8-1-7.6-1.5-11.3c-0.4-3.2-0.8-6.3-1.2-9.5c-0.2-1.4-0.4-2.8-0.7-4.2c-0.2,0-0.3,0-0.5,0c-0.6,0.9-0.1,1.9,0,2.8
			c0.4,3.3,0.8,6.6,1.3,9.9c0.6,4.2,1.1,8.4,1.7,12.6c0.2,1.4,0.3,2.9,0.5,4.3c0.1,0.6,0.1,1.3,0.5,1.8
			C232.3,34.8,232.6,34.8,232.8,34.8z M234.8,34.8c0.2,0,0.4,0,0.7,0c0.4-0.8,0.1-1.5,0-2.3c-0.7-5-1.3-10-1.9-14.9
			c-0.6-4.4-1.1-8.9-1.8-13.3c0-0.3-0.1-0.6-0.3-0.8c-0.2,0-0.4,0-0.7,0c-0.5,0.6-0.1,1.3-0.1,1.9c0.4,3.7,0.9,7.3,1.4,11
			s1,7.5,1.5,11.2c0.3,2.1,0.5,4.3,0.9,6.4C234.5,34.3,234.5,34.6,234.8,34.8z M248.1,3.5c-0.2,0-0.3,0-0.5,0
			c-0.6,0.9-0.1,1.8,0,2.7c0.7,5.6,1.4,11.1,2.2,16.7c0.5,3.5,0.9,7,1.4,10.6c0.1,0.5,0.1,1,0.5,1.3c0.2,0,0.4,0,0.7,0
			c0.4-1.3-0.1-2.6-0.2-3.8c-0.6-4.4-1.1-8.8-1.7-13.2c-0.6-4.5-1.2-8.9-1.8-13.4C248.6,4.1,248.5,3.7,248.1,3.5z M227.9,34.8
			c0.1,0,0.3,0,0.4,0c0.4-0.4,0.3-1,0.2-1.5c0-0.1,0-0.2,0-0.3c-0.2-0.5-0.1-1-0.2-1.5c0-0.1,0-0.2-0.1-0.3
			c-0.1-0.4-0.1-0.9-0.2-1.3c0-0.1,0-0.2-0.1-0.3c-0.1-0.5-0.1-1-0.2-1.5c0-0.1,0-0.2-0.1-0.3c-0.2-0.5-0.1-1-0.2-1.5
			c0-0.1,0-0.2-0.1-0.3c-0.1-0.4-0.1-0.9-0.2-1.3c0-0.1,0-0.2-0.1-0.3c-0.1-0.5-0.1-1-0.2-1.5c0-0.1,0-0.2-0.1-0.3
			c-0.2-0.5-0.1-1-0.2-1.5c0-0.1,0-0.2-0.1-0.3c-0.1-0.4-0.1-0.9-0.2-1.3c0-0.1,0-0.2-0.1-0.3c-0.1-0.5-0.1-1-0.2-1.5
			c0-0.1,0-0.2-0.1-0.3c-0.2-0.5-0.1-1-0.2-1.5c0-0.1,0-0.2-0.1-0.3c-0.1-0.4-0.1-0.9-0.2-1.4c0-0.1,0-0.2-0.1-0.3
			c-0.1-0.6-0.1-1.1-0.2-1.7c-0.3-2.6-0.7-5.2-1-7.9c0-0.4-0.1-0.8-0.5-1.1c-0.1,0-0.3,0-0.4,0c-0.2,0.2-0.2,0.5-0.2,0.8
			c0.5,3.5,0.9,7.1,1.4,10.6c0.6,4.4,1.2,8.7,1.7,13.1c0.2,1.9,0.5,3.8,0.7,5.7C227.6,34.2,227.6,34.5,227.9,34.8z M251.7,34.8
			c-0.2-2-0.5-4.1-0.7-6.1c-0.3-2.7-0.7-5.3-1-8c-0.3-2.5-0.7-4.9-1-7.4c-0.3-2.6-0.7-5.2-1-7.7c-0.1-0.7-0.2-1.4-0.2-2.1
			c-0.2,0-0.4,0-0.7,0c-0.3,0.7-0.1,1.5,0,2.2c0.4,3.2,0.8,6.4,1.2,9.5c0.4,3,0.8,5.9,1.2,8.9c0.4,3.2,0.8,6.4,1.3,9.7
			c0.1,0.4,0,0.7,0.3,1C251.2,34.8,251.5,34.8,251.7,34.8z M242.1,34.8c-0.1-2.8-0.7-5.6-1-8.4c-0.3-2.6-0.7-5.2-1-7.7s-0.6-5-1-7.5
			c-0.3-2.1-0.5-4.1-0.8-6.2c-0.1-0.5-0.1-0.9-0.2-1.4c-0.1,0-0.3,0-0.4,0c-0.3,0.4-0.2,0.8-0.1,1.3c0.7,4.9,1.3,9.8,1.9,14.7
			c0.6,4.2,1,8.3,1.7,12.5c0.1,0.9,0,1.9,0.5,2.8C241.8,34.8,242,34.8,242.1,34.8z M248.1,3.5c0.4,1.4,0.4,2.8,0.6,4.2
			c0.4,2.6,0.7,5.2,1.1,7.9c0.3,2.6,0.6,5.2,1,7.8c0.3,2.5,0.6,4.9,1,7.4c0.2,1.3,0.4,2.7,0.6,4c0.1,0,0.3,0,0.4,0
			c0.3-0.3,0.3-0.7,0.2-1c-0.9-7-1.8-13.9-2.8-20.9c-0.4-2.8-0.7-5.6-1.1-8.4c-0.1-0.3-0.1-0.7-0.3-0.9
			C248.6,3.5,248.4,3.5,248.1,3.5z M254.1,34.8c-0.1-2.9-0.7-5.8-1-8.6c-0.3-2.6-0.7-5.2-1-7.8c-0.4-3.1-0.8-6.2-1.2-9.3
			c-0.2-1.9-0.6-3.7-0.6-5.6c-0.2,0-0.4,0-0.7,0c-0.5,0.7-0.1,1.4,0,2c0.4,3,0.8,6,1.2,9c0.4,3.2,0.8,6.4,1.2,9.7s0.8,6.5,1.3,9.8
			c0,0.3,0.1,0.6,0.3,0.8C253.8,34.8,254,34.8,254.1,34.8z M231,32.7c0,0.1,0,0.1,0,0.2c0.3,0.5-0.1,1.1,0.2,1.6c0,0.1,0,0.3,0,0.4
			c0.1,0,0.3,0,0.4,0c0.3-0.4,0.2-0.8,0.1-1.3c-0.7-4.9-1.3-9.8-1.9-14.7c-0.6-4.3-1.1-8.6-1.7-12.8c-0.1-0.8-0.1-1.7-0.5-2.5
			c-0.2,0-0.4,0-0.7,0c0.2,1.4,0.5,2.8,0.7,4.2c0.4,3.2,0.9,6.5,1.3,9.7c0.3,2.6,0.6,5.2,0.9,7.8c0,0.3,0.1,0.7,0.2,1
			c0.3,0.4-0.1,0.9,0.2,1.3c0,0.1,0,0.1,0,0.2c0.3,0.5-0.1,1.1,0.2,1.6c0,0.1,0,0.1,0,0.2c0.3,0.5-0.1,1.1,0.2,1.6
			c0,0.1,0,0.1,0,0.2C231.1,31.7,230.7,32.2,231,32.7z M248.8,3.5c0.3,2,0.5,4.1,0.8,6.1c0.3,2.7,0.7,5.3,1,8c0.3,2.5,0.7,4.9,1,7.4
			c0.3,2.6,0.7,5.2,1,7.7c0.1,0.7,0.2,1.4,0.2,2.1c0.1,0,0.3,0,0.4,0c0.5-1.1,0-2.1-0.1-3.1c-0.7-5.6-1.4-11.1-2.1-16.7
			c-0.4-3.5-0.9-7-1.4-10.4c0-0.4-0.1-0.7-0.4-1C249.1,3.5,248.9,3.5,248.8,3.5z M245.5,3.5c0.3,2.1,0.6,4.2,0.9,6.3
			c0.3,2.5,0.7,5.1,1,7.6c0.3,2.6,0.7,5.2,1,7.8c0.3,2.5,0.6,5.1,1,7.6c0.1,0.6-0.1,1.3,0.3,1.9c0.2,0,0.3,0,0.5,0
			c0.3-0.3,0.2-0.7,0.2-1c-0.8-5.6-1.5-11.3-2.2-16.9c-0.6-4.1-1-8.3-1.6-12.4c0-0.3,0-0.7-0.3-0.9C245.9,3.5,245.7,3.5,245.5,3.5z
			 M256.5,33.5c0-1.2,0-2.4,0-3.6c-0.3-4.1-0.9-8.2-1.5-12.3c-0.5-3.7-0.9-7.4-1.5-11.1c-0.2-1-0.1-2.1-0.6-3c-0.2,0-0.4,0-0.7,0
			c-0.3,0.5-0.1,1-0.1,1.5c0.4,3.1,0.8,6.1,1.2,9.2c0.5,3.7,1,7.4,1.5,11.2c0.3,2.4,0.7,4.8,0.9,7.2C255.9,33.1,256,33.5,256.5,33.5
			z M250.8,3.5c0.5,2,0.6,4,0.9,6c0.5,3.8,1,7.6,1.5,11.3c0.4,3.1,0.8,6.1,1.2,9.2c0.2,1.6,0.4,3.2,0.7,4.8c0.1,0,0.3,0,0.4,0
			c0.4-0.6,0.1-1.2,0-1.8c-0.5-3.7-1-7.3-1.4-11c-0.5-3.8-1-7.6-1.5-11.4c-0.3-2.1-0.5-4.2-0.8-6.3c0-0.3-0.1-0.6-0.3-0.8
			C251.2,3.5,251,3.5,250.8,3.5z M236.3,34.8c-0.2-2.1-0.5-4.2-0.7-6.2c-0.3-2.6-0.7-5.2-1.1-7.8c-0.4-3.2-0.9-6.5-1.3-9.7
			c-0.3-2.5-0.6-5-0.9-7.5c-0.1,0-0.3,0-0.4,0c-0.6,1.1,0,2.1,0.1,3.1c0.5,4,1.1,7.9,1.5,11.9c0,0.3,0.2,0.6,0.2,1
			c0.1,0.4,0.2,0.8,0.2,1.3c0,0.1,0,0.2,0,0.3c0.1,0.5,0.1,1,0.2,1.4c0,0.1,0,0.2,0,0.3c0.1,0.5,0.1,1,0.2,1.4c0,0.1,0,0.2,0,0.3
			c0.1,0.4,0.2,0.8,0.2,1.3c0,0.1,0,0.2,0,0.3c0.1,0.5,0.1,1,0.2,1.4c0,0.1,0,0.2,0,0.3c0.1,0.5,0.1,1,0.2,1.4c0,0.1,0,0.2,0,0.3
			c0.1,0.4,0.2,0.8,0.2,1.3c0,0.1,0,0.2,0,0.3c0.1,0.5,0.1,1,0.2,1.4c0,0.1,0,0.2,0,0.3c0.2,0.5,0.1,1,0.2,1.4
			c0,0.1,0.1,0.2,0.2,0.3C236,34.8,236.2,34.8,236.3,34.8z M241.9,3.5c0.3,2.6,0.6,5.3,1,7.9c0.1,0.7-0.1,1.4,0.3,2
			c0.3,0.5-0.1,1.1,0.2,1.6c0.3,0.6-0.1,1.2,0.2,1.8c0.3,0.6-0.1,1.2,0.2,1.8c0.3,0.5-0.1,1.1,0.2,1.6c0.3,0.6-0.1,1.2,0.2,1.8
			c0.3,0.6-0.1,1.2,0.2,1.8c0.3,0.5-0.1,1.1,0.2,1.6c0.3,0.6-0.1,1.2,0.2,1.8c0.3,0.6-0.1,1.2,0.2,1.8c0.3,0.5-0.1,1.1,0.2,1.6
			c0.3,0.6-0.1,1.2,0.2,1.8c0.3,0.6-0.1,1.2,0.2,1.8c0,0.3,0,0.6,0,0.9c0.2,0,0.4,0,0.7,0c0.1-0.1,0.2-0.3,0.1-0.5
			c-0.1-0.5-0.1-1-0.1-1.5c0-0.1,0-0.2-0.1-0.3c-0.2-0.5-0.1-1-0.2-1.4c0-0.1,0-0.2-0.1-0.3c-0.2-0.4-0.1-0.8-0.2-1.3
			c0-0.1,0-0.2-0.1-0.3c-0.2-0.5-0.1-1-0.2-1.4c0-0.1,0-0.2-0.1-0.3c-0.2-0.5-0.1-1-0.2-1.4c0-0.1,0-0.2-0.1-0.3
			c-0.2-0.4-0.1-0.8-0.2-1.3c0-0.1,0-0.2-0.1-0.3c-0.2-0.5-0.1-1-0.2-1.4c0-0.1,0-0.2-0.1-0.3c-0.2-0.5-0.1-1-0.2-1.5
			c0-0.1,0-0.2-0.1-0.3c-0.2-0.4-0.1-0.9-0.2-1.4c0-0.1,0-0.2-0.1-0.4c-0.6-4.8-1.2-9.7-1.9-14.5c0-0.3-0.1-0.6-0.3-0.8
			C242.3,3.5,242.1,3.5,241.9,3.5z M224.3,3.5c0.3,2.2,0.6,4.4,0.9,6.5c0.1,0.9,0,1.8,0.4,2.6c0.3,0.6-0.1,1.2,0.2,1.8
			c0.3,0.5-0.1,1.1,0.2,1.6c0.3,0.6-0.1,1.2,0.2,1.8c0.3,0.6-0.1,1.2,0.2,1.8c0.3,0.5-0.1,1.1,0.2,1.6c0.3,0.6-0.1,1.2,0.2,1.8
			c0.3,0.6-0.1,1.2,0.2,1.8c0.3,0.5-0.1,1.1,0.2,1.6c0.3,0.6-0.1,1.2,0.2,1.8c0.3,0.6-0.1,1.2,0.2,1.8l0,0c0.3,0.5-0.1,1.1,0.2,1.6
			l0,0c0.3,0.6-0.1,1.2,0.2,1.8l0,0c0.3,0.6-0.1,1.2,0.2,1.7c0.1,0,0.3,0,0.4,0c-0.2-2.1-0.5-4.2-0.7-6.2c-0.3-2.6-0.7-5.2-1.1-7.8
			c-0.4-3.2-0.9-6.5-1.3-9.7c-0.3-2.5-0.6-5-0.9-7.5C224.8,3.5,224.5,3.5,224.3,3.5z M234.6,24.6c0-0.1,0-0.1,0-0.2
			c-0.3-0.5,0.1-1.1-0.2-1.6c0-0.1,0-0.1,0-0.2c-0.3-0.5,0.1-1.1-0.2-1.6c0-0.1,0-0.1,0-0.2c-0.3-0.4,0.1-0.9-0.2-1.3
			c-0.3-2.1-0.5-4.3-0.8-6.4c-0.2-1.9-0.5-3.8-0.8-5.7c-0.2-1.3-0.4-2.6-0.4-3.9c-0.1,0-0.3,0-0.4,0c0.1,2.2,0.5,4.4,0.8,6.6
			c0.3,2.7,0.7,5.3,1,8c0.3,2.5,0.7,5,1,7.5c0.3,2.6,0.7,5.2,1,7.7c0.1,0.5,0.1,1,0.2,1.5c0.1,0,0.3,0,0.4,0c0-0.1,0-0.1,0-0.2
			c-0.3-0.5,0.1-1.1-0.2-1.6c0-0.1,0-0.1,0-0.2c-0.3-0.5,0.1-1.1-0.2-1.6c0-0.1,0-0.1,0-0.2c-0.3-0.4,0.1-0.9-0.2-1.3
			c0-0.1,0-0.1,0-0.2c-0.3-0.5,0.1-1.1-0.2-1.6c0-0.1,0-0.1,0-0.2c-0.3-0.5,0.1-1.1-0.2-1.6c0-0.1,0-0.1,0-0.2
			C234.5,25.6,234.8,25.1,234.6,24.6z M235,3.5c0.4,1.5,0.4,3,0.6,4.5c0.4,2.6,0.7,5.2,1.1,7.9c0.3,2.6,0.6,5.2,1,7.8
			c0.3,2.5,0.6,5,1,7.4c0.2,1.3,0.2,2.6,0.6,3.8c0.1,0,0.2,0,0.2,0c0.7-1.1,0.1-2.3,0-3.3c-0.5-3.8-0.9-7.5-1.5-11.3
			c-0.6-4.3-1.1-8.6-1.7-13c-0.1-0.8-0.3-1.7-0.3-2.5c0-0.5-0.1-0.9-0.5-1.2C235.3,3.5,235.2,3.5,235,3.5z M251,34.8
			c-0.1-2.9-0.7-5.7-1-8.5c-0.3-2.6-0.7-5.2-1-7.7s-0.6-5-0.9-7.5c-0.3-2.1-0.6-4.3-0.8-6.4c0-0.4-0.1-0.7-0.2-1.1
			c-0.1,0-0.1,0-0.2,0c-0.4,0.5-0.3,1-0.2,1.6c0.5,3.8,1,7.7,1.5,11.5c0.6,4.7,1.2,9.4,1.9,14.2c0.1,0.9,0.2,1.8,0.3,2.7
			C250.5,34.1,250.5,34.6,251,34.8C250.9,34.8,250.9,34.8,251,34.8z M256.5,33.5c-0.7-0.7-0.4-1.7-0.6-2.5
			c-0.6-3.7-0.9-7.4-1.4-11.1c-0.4-3.1-0.9-6.2-1.3-9.3c-0.3-2-0.5-4-0.7-6c0-0.4-0.1-0.7-0.2-1.1c-0.1,0-0.1,0-0.2,0
			c-0.7,1-0.1,2,0,3c0.5,3.9,1,7.8,1.5,11.7c0.6,4.2,1.1,8.3,1.6,12.5c0.1,0.9,0.3,1.8,0.3,2.7c0,0.5,0.1,1,0.5,1.3
			C257.1,34.6,256.4,34,256.5,33.5z M253,3.5c0.1,2.1,0.5,4.2,0.7,6.3c0.3,2.7,0.7,5.4,1,8.1c0.4,3.1,0.8,6.2,1.2,9.4
			c0.1,0.9,0,1.8,0.5,2.7c0-1.3,0-2.5,0-3.8c-0.3-2.8-0.6-5.6-1-8.3c-0.4-3.1-0.8-6.3-1.2-9.4c-0.2-1.4-0.3-2.7-0.6-4.1
			c-0.1-0.3-0.1-0.6-0.3-0.8C253.3,3.5,253.2,3.5,253,3.5z M236.3,3.5c-0.1,0-0.3,0-0.4,0c-0.3,1.3,0.1,2.5,0.3,3.7
			c1.2,8.8,2.3,17.6,3.4,26.3c0.1,0.4,0,0.9,0.3,1.3c0.1,0,0.3,0,0.4,0c0.2-1.2-0.1-2.3-0.3-3.4c-0.7-5.6-1.4-11.2-2.2-16.8
			c-0.5-3.5-0.9-7.1-1.4-10.6C236.5,3.9,236.5,3.7,236.3,3.5z M247.2,34.8c-0.2-2.1-0.5-4.2-0.8-6.3c-0.3-2.7-0.7-5.3-1-8
			c-0.3-2.5-0.7-4.9-1-7.4c-0.3-2.6-0.7-5.2-1-7.7c-0.1-0.6-0.1-1.2-0.2-1.9c-0.1,0-0.3,0-0.4,0c-0.1,1.5,0.3,3,0.5,4.5
			c0.4,3.2,0.8,6.4,1.2,9.5c0.2,0.5,0,1.1,0.2,1.6c0,0.1,0,0.2,0,0.3c0.1,0.4,0.1,0.9,0.2,1.3c0,0.1,0,0.2,0,0.3
			c0.1,0.5,0,1,0.2,1.4c0,0.1,0,0.2,0,0.3c0.1,0.5,0,1,0.2,1.4c0,0.1,0,0.2,0,0.3c0.1,0.4,0.1,0.9,0.2,1.3c0,0.1,0,0.2,0,0.3
			c0.1,0.5,0,1,0.2,1.4c0,0.1,0,0.2,0,0.3c0.1,0.5,0,1,0.2,1.4c0,0.1,0,0.2,0,0.3c0.1,0.4,0.1,0.9,0.2,1.3c0,0.1,0,0.2,0,0.3
			c0.1,0.5,0,1,0.2,1.5c0,0.1,0,0.2,0.1,0.3c0.1,0.6,0,1.1,0.3,1.7C246.9,34.8,247.1,34.8,247.2,34.8z M227.7,3.5
			c0.4,3.2,0.9,6.3,1.3,9.5c0.3,2.6,0.6,5.2,0.9,7.8c0.3,2.5,0.7,4.9,1,7.4c0.3,2.2,0.5,4.4,0.8,6.7c0.1,0,0.3,0,0.4,0
			c-0.3-2.6-0.7-5.2-1-7.7c-0.3-2.6-0.7-5.2-1-7.7s-0.7-5.1-1-7.6c-0.3-2.7-0.7-5.5-1-8.2C228,3.5,227.8,3.5,227.7,3.5z M249.2,3.5
			c0.3,2,0.6,4.1,0.9,6.1c0.3,2.7,0.6,5.3,1,8c0.3,2.6,0.7,5.2,1,7.8c0.4,2.6,0.7,5.2,1.1,7.8c0.1,0.5,0,1,0,1.5c0.1,0,0.3,0,0.4,0
			c-0.2-2.1-0.5-4.2-0.7-6.2c-0.3-2.6-0.7-5.2-1.1-7.8c-0.4-3.2-0.9-6.5-1.3-9.7c-0.3-2.5-0.6-5-0.9-7.5
			C249.5,3.5,249.4,3.5,249.2,3.5z M239.7,3.5c0.3,2.1,0.6,4.2,0.9,6.3c0.3,2.5,0.7,5.1,1,7.6c0.3,2.6,0.6,5.2,1,7.9
			c0.4,3.2,0.7,6.3,1.3,9.5c0.1,0,0.2,0,0.2,0c0.3-1.3-0.1-2.6-0.3-3.8c-1-8-2.1-16.1-3.2-24.1c-0.2-1.1-0.1-2.3-0.6-3.3
			C240,3.5,239.8,3.5,239.7,3.5z M230.1,3.5c-0.1,0-0.3,0-0.4,0c-0.4,0.7,0,1.5,0,2.2c1.2,9.3,2.4,18.6,3.6,27.9
			c0.1,0.4,0,0.9,0.3,1.3c0.1,0,0.3,0,0.4,0c0.4-1.3-0.1-2.5-0.2-3.7c-0.6-5-1.3-10.1-2-15.1c-0.5-3.9-1-7.8-1.5-11.7
			C230.4,4,230.3,3.7,230.1,3.5z M227.9,34.8c-0.5-4-1-8.1-1.6-12.1c-0.5-3.7-1.1-7.3-1.5-11c-0.3-2.7-0.8-5.4-1-8.2
			c-0.1,0-0.3,0-0.4,0c0.3,2.6,0.6,5.2,1,7.9c0.3,2.6,0.7,5.2,1,7.7c0.5,3.7,1,7.5,1.5,11.2c0.2,1.5,0.3,3,0.5,4.5
			C227.6,34.8,227.7,34.8,227.9,34.8z M237.4,34.8c0.1,0,0.2,0,0.2,0c0.7-1,0.1-2.1,0-3.1c-0.5-3.7-0.9-7.4-1.4-11.1
			c-0.6-4.4-1.1-8.8-1.7-13.3c-0.1-0.8-0.2-1.6-0.3-2.4c0-0.5-0.1-1-0.5-1.4c-0.1,0-0.3,0-0.4,0c0,2.3,0.5,4.5,0.8,6.8
			c0.5,4.4,1.1,8.8,1.7,13.1c0.5,3.5,0.9,7.1,1.4,10.6C237.1,34.4,237.1,34.7,237.4,34.8z M219,3.5c0,2.2,0.5,4.3,0.7,6.4
			c0.3,2.6,0.7,5.2,1,7.8c0.4,3.2,0.9,6.5,1.3,9.7c0.3,2.4,0.6,4.9,0.9,7.3c0.1,0,0.3,0,0.4,0c0.3-1.2,0-2.3-0.2-3.4
			c-0.9-6.5-1.7-13-2.6-19.5c-0.3-2.5-0.7-5-0.9-7.5C219.6,3.9,219.5,3.6,219,3.5C219.1,3.5,219.1,3.5,219,3.5z M238.6,34.8
			c-0.3-2.1-0.6-4.2-0.9-6.3c-0.4-2.6-0.7-5.2-1-7.7s-0.6-5.1-1-7.6c-0.3-2.5-0.6-5.1-1-7.6c-0.1-0.7-0.1-1.3-0.1-2
			c-0.1,0-0.3,0-0.4,0c-0.3,0.3-0.2,0.7-0.1,1.1c1.3,9.7,2.5,19.3,3.8,29c0.1,0.4,0,0.9,0.3,1.3C238.3,34.8,238.4,34.8,238.6,34.8z
			 M223.7,34.8c0.1,0,0.3,0,0.4,0c0.3-1.3-0.1-2.5-0.3-3.7c-1.2-8.8-2.3-17.5-3.4-26.3c-0.1-0.4,0-0.9-0.3-1.3c-0.1,0-0.3,0-0.4,0
			c-0.1,1.8,0.3,3.6,0.5,5.4c0.5,4.4,1.1,8.8,1.7,13.3c0.5,4.1,1.1,8.2,1.6,12.3C223.5,34.6,223.6,34.7,223.7,34.8z M241.7,34.8
			c-0.4-3.2-0.9-6.3-1.3-9.5c-0.3-2.6-0.6-5.2-0.9-7.8c-0.3-2.5-0.7-4.9-1-7.4c-0.3-2.2-0.5-4.4-0.8-6.7c-0.1,0-0.3,0-0.4,0
			c0.3,2.6,0.7,5.2,1,7.7c0.3,2.6,0.7,5.2,1,7.7s0.7,5.1,1,7.6c0.3,2.7,0.7,5.5,1,8.2C241.4,34.8,241.5,34.8,241.7,34.8z
			 M221.7,34.8c0.1,0,0.3,0,0.4,0c-0.1-2.2-0.5-4.4-0.8-6.6c-0.5-4.4-1.1-8.7-1.7-13.1c-0.4-3.6-1-7.2-1.4-10.8
			c0-0.3-0.1-0.7-0.4-0.9c-0.1,0-0.1,0-0.2,0c-0.7,1.1-0.1,2.2,0,3.2c0.4,3.3,0.8,6.6,1.3,9.9c0.6,4.2,1.1,8.4,1.7,12.6
			c0.2,1.4,0.4,2.9,0.5,4.3C221.2,34,221.3,34.5,221.7,34.8z M223.7,34.8c-0.1-2.2-0.5-4.4-0.8-6.6c-0.3-2.7-0.7-5.3-1-8
			c-0.3-2.5-0.7-5-1-7.5c-0.3-2.6-0.7-5.2-1-7.7c-0.1-0.5-0.1-1-0.2-1.5c-0.1,0-0.3,0-0.4,0c0.4,1.5,0.4,3,0.7,4.6
			c0.5,3.7,1,7.4,1.5,11.1c0.3,2.6,0.6,5.2,1,7.8C222.8,29.6,223.2,32.2,223.7,34.8C223.5,34.8,223.6,34.8,223.7,34.8z M217.9,3.5
			c0.3,2.1,0.6,4.2,0.9,6.3c0.4,3.2,0.8,6.3,1.2,9.5c0.3,2.6,0.6,5.2,1,7.8s0.5,5.2,1.1,7.7c0.1,0,0.2,0,0.2,0
			c-0.2-2.1-0.5-4.2-0.8-6.3c-0.3-2.7-0.7-5.3-1-8c-0.4-3-0.8-6-1.2-9.1c-0.3-2.7-0.7-5.3-1.1-7.9C218.2,3.5,218,3.5,217.9,3.5z
			 M236.3,3.5c0.1,2.2,0.5,4.4,0.8,6.6c0.3,2.7,0.7,5.3,1,8c0.4,3.1,0.8,6.2,1.2,9.3c0.3,2,0.5,3.9,0.8,5.9c0.1,0.5,0.1,1.1,0.2,1.6
			c0.1,0,0.3,0,0.4,0c-0.2-1.4-0.5-2.9-0.7-4.3c-0.4-2.7-0.7-5.3-1-8c-0.3-2.5-0.6-5-1-7.5c-0.5-3.8-1-7.6-1.6-11.5
			C236.5,3.5,236.4,3.5,236.3,3.5z M234.8,34.8c-0.2-2.1-0.5-4.2-0.8-6.3c-0.3-2.7-0.7-5.3-1-8c-0.3-2.5-0.7-4.9-1-7.4
			c-0.3-2.6-0.7-5.2-1-7.7c-0.1-0.6-0.1-1.2-0.2-1.9c-0.1,0-0.3,0-0.4,0c-0.1,1.7,0.3,3.4,0.5,5.1c0.5,4.4,1.1,8.8,1.7,13.3
			c0.5,3.7,0.9,7.3,1.5,11c0.1,0.6-0.2,1.4,0.5,1.9C234.6,34.8,234.7,34.8,234.8,34.8z M234.6,34.8c-0.4-1.4-0.4-2.8-0.6-4.2
			c-0.4-2.6-0.7-5.2-1.1-7.9c-0.3-2.6-0.6-5.2-1-7.8c-0.3-2.5-0.6-4.9-1-7.4c-0.2-1.3-0.4-2.7-0.6-4c-0.1,0-0.1,0-0.2,0
			c0,2.3,0.5,4.4,0.7,6.7c0.3,2.6,0.7,5.2,1,7.8c0.5,3.7,1,7.5,1.5,11.2c0.2,1.9,0.4,3.7,0.7,5.6C234.3,34.8,234.4,34.8,234.6,34.8z
			 M216.1,3.5c0.2,1.4,0.5,2.9,0.7,4.3c0.4,3.1,0.8,6.3,1.2,9.4c0.3,2.6,0.7,5.2,1,7.8c0.3,2.5,0.6,5.1,1,7.6c0.1,0.7,0,1.5,0.3,2.2
			c0.1,0,0.1,0,0.2,0c0.7-1.1,0.1-2.2,0-3.2c-0.4-3.8-1-7.6-1.5-11.4c-0.4-3-0.8-6.1-1.2-9.1c-0.3-2-0.6-4.1-0.8-6.1
			c-0.1-0.5-0.1-1-0.5-1.4C216.4,3.5,216.2,3.5,216.1,3.5z M237.4,34.8c-0.2-1.4-0.5-2.9-0.7-4.3c-0.4-2.7-0.7-5.3-1-8
			c-0.3-2.5-0.6-5-1-7.5c-0.5-3.8-1-7.6-1.6-11.5c-0.1,0-0.1,0-0.2,0c0.1,2.2,0.5,4.4,0.8,6.6c0.3,2.7,0.7,5.3,1,8
			c0.3,2.5,0.7,5,1,7.5c0.3,2.6,0.7,5.2,1,7.7c0.1,0.5,0.1,1,0.2,1.5C237.1,34.8,237.3,34.8,237.4,34.8z M230.3,34.8
			c0.1-1.5-0.3-3-0.5-4.5c-0.1-1.5-0.4-2.9-0.6-4.4c-0.3-2-0.6-4.1-0.8-6.1c-0.3-2-0.5-4-0.7-6c-0.2-1.3-0.4-2.6-0.5-4
			c-0.2-1.5-0.4-2.9-0.6-4.4c-0.1-0.6-0.2-1.2-0.3-1.8c-0.1,0-0.3,0-0.4,0c-0.3,0.4,0,0.7,0,1.1c0.2,0.3,0.2,0.7,0.2,1.1
			c0,0.2,0,0.3,0,0.5c0.1,0.4,0.2,0.8,0.2,1.3c0,0.2,0,0.3,0,0.5c0.1,0.4,0.2,0.8,0.2,1.3c0,0.2,0,0.3,0,0.5
			c0.1,0.4,0.2,0.7,0.2,1.1c0,0.2,0,0.3,0,0.5c0.1,0.4,0.2,0.8,0.2,1.3c0,0.2,0,0.3,0,0.5c0.1,0.4,0.2,0.8,0.2,1.3
			c0,0.2,0,0.3,0,0.5c0.1,0.4,0.2,0.7,0.2,1.1c0,0.2,0,0.3,0,0.5c0.1,0.4,0.2,0.9,0.2,1.3c0,0.2,0,0.3,0,0.5
			c0.2,0.5,0.2,0.9,0.2,1.4c0.6,5.1,1.2,10.1,2,15.1C230,34.8,230.2,34.8,230.3,34.8z M221.7,34.8c-0.5-3.9-1-7.8-1.6-11.8
			c-0.5-3.7-1.1-7.4-1.5-11.1c-0.3-2.8-0.9-5.6-1-8.4c-0.1,0-0.3,0-0.4,0c-0.5,0.7-0.1,1.4-0.1,2c1.2,9.2,2.4,18.5,3.6,27.7
			c0.1,0.5,0,1.1,0.4,1.6C221.4,34.8,221.5,34.8,221.7,34.8z M239.9,34.8c-0.3-2.7-0.7-5.3-1-8c-0.3-2.5-0.7-5.1-1-7.6
			c-0.3-2.6-0.7-5.2-1-7.7c-0.3-2.7-0.7-5.3-1-8c-0.1,0-0.3,0-0.4,0c0.3,2.1,0.6,4.3,0.9,6.4c0.4,2.6,0.7,5.2,1,7.8
			c0.3,2.5,0.6,5.1,1,7.6c0.3,2.6,0.7,5.2,1.1,7.8c0.1,0.5,0,1,0.1,1.5C239.6,34.8,239.7,34.8,239.9,34.8z M233.7,34.8
			c-0.4-3.2-0.9-6.5-1.3-9.7c-0.4-3.1-0.8-6.3-1.2-9.4s-0.8-6.2-1.3-9.3c-0.1-1-0.2-2-0.3-3c-0.1,0-0.3,0-0.4,0
			c0.5,4,1,8.1,1.6,12.1c0.5,3.7,1.1,7.3,1.5,11c0.3,2.7,0.8,5.4,1,8.2C233.4,34.8,233.5,34.8,233.7,34.8z M246.1,3.5
			c0.1,2.8,0.7,5.5,1,8.2c0.3,2.6,0.7,5.2,1,7.7c0.4,3.1,0.8,6.3,1.2,9.4c0.3,2,0.5,4,0.8,6c0.1,0,0.3,0,0.4,0
			c-0.3-3.4-0.8-6.7-1.3-10.1c-0.5-3.7-1-7.4-1.5-11.1c-0.4-3.1-0.9-6.2-1.2-9.3C246.5,4,246.4,3.7,246.1,3.5
			C246.3,3.5,246.2,3.5,246.1,3.5z M216.5,3.5c0.5,4,1,8.1,1.6,12.1c0.6,4.2,1.2,8.3,1.7,12.5c0.3,2.2,0.7,4.4,0.7,6.7
			c0.1,0,0.3,0,0.4,0c0.4-0.8-0.1-1.6-0.2-2.4c-0.5-3.7-1-7.3-1.5-11c-0.4-3.1-0.8-6.2-1.2-9.4c-0.4-2.9-0.7-5.7-1.2-8.6
			C216.8,3.5,216.7,3.5,216.5,3.5z M220.1,3.5c0.3,2.6,0.6,5.2,1,7.9c0.3,2.6,0.7,5.2,1,7.7c0.5,3.7,1,7.5,1.5,11.2
			c0.2,1.5,0.3,3,0.5,4.5c0.1,0,0.3,0,0.4,0c-0.3-2.1-0.6-4.2-0.9-6.3c-0.4-3.1-0.8-6.3-1.2-9.4c-0.3-2.5-0.7-5.1-1-7.6
			c-0.3-2.1-0.6-4.3-0.8-6.4c-0.1-0.5,0-1-0.1-1.5C220.4,3.5,220.2,3.5,220.1,3.5z M238.1,34.8c-0.4-3.2-0.9-6.3-1.3-9.5
			c-0.3-2.6-0.6-5.2-0.9-7.8c-0.3-2.5-0.7-4.9-1-7.4c-0.3-2.2-0.5-4.4-0.8-6.7c-0.1,0-0.3,0-0.4,0c0.4,3.2,0.9,6.3,1.3,9.5
			c0.4,3.1,0.8,6.3,1.2,9.4s0.9,6.2,1.3,9.3c0.1,1.1,0.2,2.1,0.3,3.2C237.8,34.8,238,34.8,238.1,34.8z M240.1,3.5
			c0.4,3.2,0.9,6.3,1.3,9.5c0.3,2.6,0.6,5.2,0.9,7.8c0.3,2.5,0.7,4.9,1,7.4c0.3,2.2,0.5,4.4,0.8,6.7c0.1,0,0.3,0,0.4,0
			c-0.2-1.7-0.4-3.3-0.7-5c-0.3-2.5-0.7-5.1-1-7.6c-0.3-2.6-0.7-5.2-1-7.7s-0.6-5-1-7.5c-0.1-1.1-0.4-2.2-0.4-3.4
			C240.4,3.5,240.3,3.5,240.1,3.5z M227.2,13.1c0-0.1,0-0.3,0-0.4c-0.3-0.4,0.1-0.9-0.2-1.3c0-0.1,0-0.3,0-0.4
			c-0.3-0.3,0-0.8-0.2-1.1c0-0.1,0-0.3,0-0.4c-0.3-0.4,0.1-0.9-0.2-1.3c0-0.1,0-0.3,0-0.4c-0.3-0.4,0.1-0.9-0.2-1.3
			c0-0.1,0-0.3,0-0.4c-0.3-0.3,0-0.8-0.2-1.1c-0.1-0.4-0.1-0.7-0.2-1.1c-0.1,0-0.1,0-0.2,0c0.1,2.2,0.5,4.4,0.8,6.6
			c0.3,2.7,0.7,5.3,1,8c0.4,3.1,0.8,6.2,1.2,9.3c0.3,2,0.5,3.9,0.8,5.9c0.1,0.5,0.1,1.1,0.2,1.6c0.1,0,0.1,0,0.2,0
			c0-2.3-0.6-4.6-0.8-6.9c-0.3-2.8-0.8-5.6-1-8.4c-0.3-0.4,0.1-0.9-0.2-1.3c0-0.1,0-0.3,0-0.4c-0.3-0.4,0.1-0.9-0.2-1.3
			c0-0.1,0-0.3,0-0.4c-0.3-0.3,0-0.8-0.2-1.1c0-0.1,0-0.3,0-0.4C227.1,14,227.5,13.5,227.2,13.1z M256.1,34.8c-0.5-4-1-8.1-1.6-12.1
			c-0.6-4.2-1.2-8.3-1.7-12.5c-0.3-2.2-0.7-4.4-0.7-6.7c-0.1,0-0.3,0-0.4,0c-0.1,1.6,0.3,3.1,0.5,4.7c0.7,5.4,1.4,10.8,2.1,16.2
			c0.5,3.5,0.8,6.9,1.4,10.4C255.8,34.8,256,34.8,256.1,34.8z M255.7,34.8c-0.2-3.2-0.7-6.3-1.1-9.4c-0.9-7.3-1.9-14.6-2.9-21.9
			c-0.1,0-0.1,0-0.2,0c0.2,2.1,0.5,4.2,0.8,6.3c0.3,2.7,0.7,5.3,1,8c0.3,2.5,0.7,4.9,1,7.4c0.3,2.7,0.7,5.4,1,8.1
			c0.1,0.5,0.1,1,0.2,1.5C255.5,34.8,255.6,34.8,255.7,34.8z M256.5,20.6c-0.6-0.9-0.5-2.1-0.6-3.1c-0.6-3.8-1-7.7-1.5-11.6
			c-0.1-0.8-0.2-1.6-0.3-2.4c-0.1,0-0.3,0-0.4,0c-0.2,1.5,0.3,2.8,0.4,4.3c0.6,4.9,1.3,9.9,1.9,14.8c0.1,0.5-0.1,1.2,0.5,1.6
			C256.5,23,256.5,21.8,256.5,20.6z M246.3,3.5c0.3,2.1,0.6,4.2,0.9,6.3c0.3,2.5,0.7,5.1,1,7.6c0.3,2.6,0.6,5.2,1,7.9
			c0.4,3.2,0.7,6.3,1.3,9.5c0.1,0,0.2,0,0.2,0c-0.3-2.1-0.6-4.3-0.9-6.4c-0.4-2.6-0.7-5.2-1-7.8c-0.3-2.5-0.6-5.1-1-7.6
			c-0.3-2.6-0.7-5.2-1.1-7.8c-0.1-0.5,0-1-0.1-1.5C246.6,3.5,246.5,3.5,246.3,3.5z M217,3.5c0.2,2.1,0.5,4.2,0.7,6.2
			c0.3,2.6,0.7,5.2,1.1,7.8c0.5,3.7,1,7.5,1.5,11.2c0.3,2,0.5,4,0.7,6c0.1,0,0.1,0,0.2,0c-0.3-2.7-0.7-5.3-1-8
			c-0.3-2.6-0.7-5.2-1-7.7s-0.7-5.1-1-7.6c-0.3-2.7-0.7-5.3-1-8C217.1,3.5,217.1,3.5,217,3.5z M256.5,24.2c-0.6-1.7-0.6-3.5-0.8-5.3
			c-0.5-3.1-0.8-6.2-1.2-9.4c-0.3-2-0.5-4-0.8-6c-0.1,0-0.1,0-0.2,0c0.3,2.7,0.7,5.5,1,8.2c0.3,2.6,0.6,5.2,1,7.7
			c0.3,2.2,0.3,4.5,1.1,6.7C256.5,25.5,256.5,24.9,256.5,24.2z M244.6,17.7c0-2.3-0.5-4.4-0.7-6.7c-0.2-2.2-0.5-4.3-0.8-6.4
			c0-0.4-0.1-0.7-0.2-1.1c-0.1,0-0.1,0-0.2,0c0,2.2,0.5,4.4,0.7,6.6c0.3,2.8,0.7,5.7,1.1,8.5c0,0.2,0.1,0.3,0.2,0.5
			C244.7,18.6,244.7,18.2,244.6,17.7z M228.5,34.8c-0.1-0.6,0.2-1.2-0.2-1.7c0,0.6,0,1.2,0,1.7C228.4,34.8,228.5,34.8,228.5,34.8z
			 M246.8,34.8c-0.1-0.6,0.2-1.2-0.2-1.7c-0.2,0.4-0.2,0.9,0,1.3c0,0.1,0,0.3,0,0.4C246.6,34.8,246.7,34.8,246.8,34.8z M245,27.1
			c-0.1-0.6,0.2-1.2-0.2-1.8C244.9,25.9,244.6,26.5,245,27.1z M243.9,18.6c-0.1-0.6,0.2-1.2-0.2-1.8
			C243.8,17.4,243.5,18.1,243.9,18.6z M245.9,34c-0.1-0.6,0.2-1.2-0.2-1.8C245.8,32.8,245.5,33.4,245.9,34z M243.7,16.9
			c-0.1-0.6,0.2-1.2-0.2-1.8C243.6,15.7,243.2,16.3,243.7,16.9z M245.7,32.2c-0.1-0.6,0.2-1.2-0.2-1.8
			C245.6,31,245.2,31.7,245.7,32.2z M245.2,28.9c-0.1-0.6,0.2-1.2-0.2-1.8C245.1,27.7,244.8,28.3,245.2,28.9z M244.6,23.8
			c-0.1-0.6,0.2-1.2-0.2-1.8C244.4,22.6,244.1,23.2,244.6,23.8z M244.3,22c-0.1-0.6,0.2-1.2-0.2-1.8C244.2,20.8,243.9,21.4,244.3,22
			z M245.5,30.4c-0.1-0.5,0.2-1.1-0.2-1.6C245.3,29.4,245,30,245.5,30.4z M243.5,15.1c-0.1-0.5,0.2-1.1-0.2-1.6
			C243.3,14,243,14.6,243.5,15.1z M244.1,20.2c-0.1-0.5,0.2-1.1-0.2-1.6C244,19.2,243.7,19.7,244.1,20.2z M244.8,25.3
			c-0.1-0.5,0.2-1.1-0.2-1.6C244.7,24.3,244.4,24.8,244.8,25.3z M231.2,34.4c-0.1-0.5,0.2-1.1-0.2-1.6
			C231.1,33.4,230.8,34,231.2,34.4z M230.8,31.1c-0.1-0.5,0.2-1.1-0.2-1.6C230.6,30.1,230.3,30.6,230.8,31.1z M230.6,29.3
			c-0.1-0.5,0.2-1.1-0.2-1.6C230.4,28.3,230.1,28.8,230.6,29.3z M231,32.7c-0.1-0.4,0.2-0.9-0.2-1.3C230.8,31.8,230.6,32.3,231,32.7
			z M230.3,27.5c-0.1-0.4,0.2-0.9-0.2-1.3C230.2,26.6,229.9,27.1,230.3,27.5z M226.5,19.5c-0.1-0.6,0.2-1.2-0.2-1.8
			C226.4,18.3,226.1,19,226.5,19.5z M228.3,33.1c-0.1-0.6,0.2-1.2-0.2-1.8C228.2,31.9,227.9,32.6,228.3,33.1z M226.3,17.7
			c-0.1-0.6,0.2-1.2-0.2-1.8C226.2,16.6,225.9,17.2,226.3,17.7z M225.9,14.4c-0.1-0.6,0.2-1.2-0.2-1.8
			C225.8,13.2,225.4,13.9,225.9,14.4z M227,22.9c-0.1-0.6,0.2-1.2-0.2-1.8C226.9,21.7,226.5,22.3,227,22.9z M227.9,29.8
			c-0.1-0.6,0.2-1.2-0.2-1.8C227.8,28.6,227.4,29.2,227.9,29.8z M227.7,28c-0.1-0.6,0.2-1.2-0.2-1.8C227.5,26.8,227.2,27.4,227.7,28
			z M227.2,24.6c-0.1-0.6,0.2-1.2-0.2-1.8C227.1,23.5,226.8,24.1,227.2,24.6z M227.4,26.2c-0.1-0.5,0.2-1.1-0.2-1.6
			C227.3,25.2,227,25.7,227.4,26.2z M226.1,16c-0.1-0.5,0.2-1.1-0.2-1.6C226,14.9,225.7,15.5,226.1,16z M228.1,31.3
			c-0.1-0.5,0.2-1.1-0.2-1.6C228,30.3,227.7,30.8,228.1,31.3z M226.8,21.1c-0.1-0.5,0.2-1.1-0.2-1.6C226.6,20,226.3,20.6,226.8,21.1
			z M235.7,33.1c0.1,0.5-0.2,1.1,0.2,1.6C235.8,34.1,236.1,33.6,235.7,33.1z M235.4,31.3c0.1,0.5-0.2,1.1,0.2,1.6
			C235.6,32.4,235.9,31.8,235.4,31.3z M234.8,26.2c0.1,0.5-0.2,1.1,0.2,1.6C234.9,27.2,235.2,26.7,234.8,26.2z M235,28
			c0.1,0.5-0.2,1.1,0.2,1.6C235.1,29,235.4,28.4,235,28z M234.3,22.9c0.1,0.5-0.2,1.1,0.2,1.6C234.5,23.9,234.8,23.3,234.3,22.9z
			 M234.1,21.1c0.1,0.5-0.2,1.1,0.2,1.6C234.2,22.1,234.5,21.6,234.1,21.1z M235.2,29.8c0.1,0.4-0.2,0.9,0.2,1.3
			C235.4,30.6,235.6,30.2,235.2,29.8z M234.6,24.6c0.1,0.4-0.2,0.9,0.2,1.3C234.7,25.5,235,25,234.6,24.6z M233.9,19.5
			c0.1,0.4-0.2,0.9,0.2,1.3C234,20.4,234.3,19.9,233.9,19.5z M246.6,34.4c0-0.4,0-0.9,0-1.3c0-0.1,0-0.1,0-0.2
			c-0.1-0.1-0.1-0.1-0.2,0C246.4,33.4,246.1,34,246.6,34.4z M246.3,32.9c0.1,0,0.1,0,0.2,0c-0.1-0.5,0.2-1.1-0.2-1.6
			c-0.2,0.4-0.2,0.9,0,1.3C246.3,32.7,246.3,32.8,246.3,32.9z M245.7,26.2c0-0.1,0-0.1,0-0.2c-0.1-0.1-0.1-0.1-0.2,0
			c0.1,0.5-0.2,1.1,0.2,1.6C245.8,27.1,245.8,26.6,245.7,26.2z M245.7,26.2c0,0.4,0,0.9,0,1.3c0,0.1,0,0.1,0,0.2
			c0.1,0.1,0.1,0.1,0.2,0C245.8,27.2,246.1,26.7,245.7,26.2z M245.5,24.4c-0.1-0.5,0.2-1.1-0.2-1.6c-0.2,0.4-0.2,0.9,0,1.3
			c0,0.1,0,0.1,0,0.2C245.3,24.5,245.4,24.5,245.5,24.4z M245.2,24.2c0-0.4,0-0.9,0-1.3c0-0.1,0-0.1,0-0.2c-0.1-0.1-0.1-0.1-0.2,0
			C245.1,23.2,244.8,23.7,245.2,24.2z M246.1,29.5c-0.1-0.5,0.2-1.1-0.2-1.6c-0.2,0.4-0.2,0.9,0,1.3c0,0.1,0,0.1,0,0.2
			C246,29.6,246.1,29.6,246.1,29.5z M245,22.6c0.1,0,0.1,0,0.2,0c-0.1-0.5,0.2-1.1-0.2-1.6c-0.2,0.4-0.2,0.9,0,1.3
			C245,22.5,245,22.6,245,22.6z M245,22.4c0-0.4,0-0.9,0-1.3c0-0.1,0-0.1,0-0.2c-0.1-0.1-0.1-0.1-0.2,0
			C244.9,21.4,244.6,22,245,22.4z M246.3,32.7c0-0.4,0-0.9,0-1.3c0-0.1,0-0.1,0-0.2c-0.1-0.1-0.1-0.1-0.2,0
			C246.2,31.6,245.9,32.2,246.3,32.7z M245.9,29.3c0-0.4,0-0.9,0-1.3c0-0.1,0-0.1,0-0.2c-0.1,0-0.1,0-0.2,0
			C245.8,28.3,245.5,28.8,245.9,29.3z M244.6,17.7c0,0.4,0,0.9,0,1.3c0,0.1,0,0.1,0,0.2c0.1,0.1,0.1,0.1,0.2,0
			C244.7,18.8,245,18.2,244.6,17.7z M246.1,29.5c-0.1,0-0.1,0-0.2,0c0.1,0.4-0.2,0.9,0.2,1.3c0.2-0.4,0.2-0.7,0-1.1
			C246.1,29.7,246.1,29.6,246.1,29.5z M245.5,26c0.1,0,0.1,0,0.2,0c-0.1-0.4,0.2-0.9-0.2-1.3c-0.2,0.4-0.2,0.7,0,1.1
			C245.5,25.8,245.5,25.9,245.5,26z M246.1,29.8c0,0.4,0,0.7,0,1.1c0,0.1,0,0.1,0,0.2c0.1,0,0.1,0,0.2,0
			C246.3,30.6,246.5,30.1,246.1,29.8z M245.5,25.8c0-0.4,0-0.7,0-1.1c0-0.1,0-0.1,0-0.2c-0.1,0-0.1,0-0.2,0
			C245.3,24.9,245.1,25.4,245.5,25.8z M244.8,20.9c0.1,0,0.1,0,0.2,0c-0.1-0.4,0.2-0.9-0.2-1.3c-0.2,0.4-0.2,0.7,0,1.1
			C244.8,20.7,244.8,20.8,244.8,20.9z M244.8,20.6c0-0.4,0-0.7,0-1.1c0-0.1,0-0.1,0-0.2c-0.1,0-0.1,0-0.2,0
			C244.6,19.7,244.4,20.2,244.8,20.6z M227.7,16.4c0.1,0.4-0.2,0.9,0.2,1.3C227.8,17.3,228.1,16.8,227.7,16.4z M227.9,18.2
			c0.1,0.4-0.2,0.9,0.2,1.3C228,19.1,228.3,18.6,227.9,18.2z M227.2,13.1c0.1,0.4-0.2,0.9,0.2,1.3C227.4,14,227.6,13.5,227.2,13.1z
			 M227,11.3c0.1,0.4-0.2,0.9,0.2,1.3C227.1,12.2,227.4,11.7,227,11.3z M226.5,8c0.1,0.4-0.2,0.9,0.2,1.3C226.7,8.8,227,8.3,226.5,8
			z M226.3,6.2c0.1,0.4-0.2,0.9,0.2,1.3C226.5,7.1,226.7,6.6,226.3,6.2z M227.4,14.9c0.1,0.4-0.1,0.8,0.2,1.1
			C227.6,15.6,227.8,15.2,227.4,14.9z M226.8,9.7c0.1,0.4-0.1,0.8,0.2,1.1C226.9,10.5,227.1,10,226.8,9.7z M226.1,4.6
			c0.1,0.4-0.1,0.8,0.2,1.1C226.3,5.4,226.5,4.9,226.1,4.6z"/>
	</g>
	<linearGradient id="SVGID_7_" gradientUnits="userSpaceOnUse" x1="207.4" y1="39.6892" x2="238.3267" y2="39.6892">
		<stop  offset="0" style="stop-color:#00A526"/>
		<stop  offset="0.5477" style="stop-color:#52B93E"/>
		<stop  offset="1" style="stop-color:#91C951"/>
	</linearGradient>
	<path class="st4" d="M237.5,42.4c-1.6,2-4.6,3.9-4.9,3.4c-0.9-0.9,0.1-2.8-0.9-4.8c-1.1-2.2-3.4-3.9-5.9-4.5
		c-2-0.9-6.3-1.2-10.3,1.4c-0.6,0.4-3.8,3.3-4.2,4.1c-1.6,2.8-3.2,5.2-3.7,6.9c0.1-2.1,0.2-1.9-0.2-3.1c0.1-0.1,1.1-0.9,1.3-1.3
		c0.6-0.7,3-2.9,3.5-3.9c1.5-2.8,4-2.9,6.1-7.2c0.9-1.9,2.5-3.1,6.3-2.9c1,0.1,2.8,0.4,4.7,0.7c1.1-0.7,3.4-0.5,4.7,0.1
		c1.6,0.7,2.1,2.6,1.6,3c-0.4,0.3,1.6,0.6,1.4,1.4c-0.5,1.3,0.3,0.5,0.5,0.8C238.5,38.6,238.7,41,237.5,42.4z"/>
	<path class="st5" d="M222.7,24.8c0.1,0,0.4-0.3,0.4-0.5c0.1-2.5,2-9.4,5.1-12.9C225,13.6,222.6,22.6,222.7,24.8z M227.9,20.5
		c0.1,0.1,0.3-0.3,0.3-0.5c0.1-2.5,2.3-7.6,6.2-10.4C230.7,11.6,227.6,18.1,227.9,20.5z M233.4,17c0,0.1,0.4-0.1,0.4-0.3
		c0.7-2.3,2.5-6.4,7.5-8.6C236.5,9.4,234,14.3,233.4,17z M239.4,15.1c0,0,0.3,0,0.4-0.2c0.9-1.7,3-4.5,7.4-5.2
		C243,9.9,240.2,13.1,239.4,15.1z M246.4,13.9c0,0.1,0.4,0,0.4-0.1c0.7-0.6,2.1-1.7,4.3-2.3C248.9,11.7,246.6,13.7,246.4,13.9z
		 M220.1,23c-0.7,2.5-1.2,4.5-1,5.1c0,0.3,0.2,0.7,0.3,0.4c0-3.6,1.6-6,2.2-11.1C221,19.4,220.6,21.4,220.1,23z M233.7,26.1
		c-3.7-0.7-6.2-2.1-9.6-0.3c3.1-1.2,5.8-0.2,9.1,0.5c2.4,0.5,5.1,1,7.9-0.5C237.4,27.1,235.7,26.5,233.7,26.1z M228.6,22.4
		C228.5,22.4,228.5,22.5,228.6,22.4L228.6,22.4z M236.9,23.2c-3.1-0.6-5.3-2.2-8.3-0.8c2.6-0.9,5.2,0.3,8,1.1c2,0.5,6.6,0.2,9.7-1
		C242.1,23.7,238.6,23.6,236.9,23.2z M235.7,19.2c-0.3,0.1-0.9,0.1-0.9,0.2c3.7-0.5,8.4,3,13.2,0.3C242.5,22,238.4,18.7,235.7,19.2z
		 M241.6,16.7c-0.2-0.1-0.4,0-0.4,0.1c2.1,0.7,6.5,1.4,9.5,0C247,18,243.5,17.3,241.6,16.7z M218.9,35.1c-0.1,0.1,0.3,0.1,0.4,0
		c1.1-1.2,3.9-3.1,8.7-3.2C223.6,31.3,219.4,34.1,218.9,35.1z M224.1,34.3c-0.1,0.1,0.2,0.2,0.4,0.1c1-0.7,5.6-2.2,9-1.3
		C230.7,31.7,223.8,33.8,224.1,34.3z M228.9,35.7c0,0.1,0.2,0.2,0.3,0.1c0.8-0.2,3.7-0.5,5.8,0.9C233.3,34.8,228.7,35.2,228.9,35.7z
		 M231.9,38.2c0,0.1,0.2,0.2,0.3,0.1c0.4-0.3,1.7,0.6,2.7,2.8C234.4,39.2,232.8,37.4,231.9,38.2z M214.4,19.3
		c-0.3-0.8-0.7-0.8-1.1-0.9c0.3-1.6-2.6-5.9-3.9-5.3c0,0.1,0.1,0.2,0.1,0.3c0.1,0.2,0,0.2-0.2,0.1c0,0-0.1-0.1-0.1-0.2
		c0,0.2,0.2,0.3,0.4,0.3c0.2,0,0.3-0.3,0.6,0c1,0.8,3.1,3.3,2.6,5.1c-0.1,0.2,0.1,0.2,0.3,0.2c1.7,0.2,1.9,3.8,1.1,6.6
		c-0.3,1.1-0.6,1.8-0.6,2.4v0c0,0.3,0,0.6,0.1,0.9l0.1-0.3l0.1-0.8C215.3,23.9,215.4,21.2,214.4,19.3z M212.7,27
		c-0.7-1.2-5.2-2.3-7.9-1.9c1.8,0,6.6,0.3,8.2,2.9C212.8,27.6,212.6,27.1,212.7,27z M213.1,28.1C213.1,28.1,213.1,28.1,213.1,28.1
		C213.1,28.1,213.1,28.2,213.1,28.1c0,0.1,0.1,0.2,0.1,0.2C213.2,28.2,213.1,28.2,213.1,28.1z M211.5,23.3c-0.1-0.1-0.3-0.3-0.6-0.5
		c-0.7-0.4-1.9-0.9-3.2-1.1c-1.9-0.4-2.7,0.4-5.4-0.5c2.4,1.3,3.3,0.4,5.2,0.8c1.5,0.4,3,0.9,3.9,1.6c0.2,0.1,0.3,0.2,0.4,0.3
		C211.6,23.6,211.5,23.3,211.5,23.3z M211.8,23.9c0.1,0.2,0.3,0.5,0.3,0.5C212,24.2,211.9,24.1,211.8,23.9z M207.7,18.3
		c0,0-0.1,0-0.1,0c-4.2-1.9-4.9,0.1-7.6-1.3c2.3,1.2,2.9,0.4,4.5,0.6c1.3,0.2,2.7,0.7,3.7,1.3c0.2,0.2,0.4,0.3,0.5,0.5
		C208.5,18.9,208.2,18.6,207.7,18.3z M204,14.9c-0.6-0.3-2.1-0.4-3.4-1.1c1.1,0.8,3.4,1.2,3.6,1.2C204.1,15,204.1,14.9,204,14.9z
		 M204.2,15C204.2,15,204.2,15,204.2,15L204.2,15C204.2,15,204.2,15,204.2,15z M203.7,11c2.1,1.5,4.4,4.5,4.1,6.8c0,0,0,0,0,0.1
		c0,0,0,0,0,0c0.1,0.1,0.1,0.1,0.2,0.2c0,0,0,0,0,0C208.3,15.4,206,12.4,203.7,11z M213.2,26.4c0,0.1,0,0.2,0.1,0.3
		C213.3,26.7,213.3,26.6,213.2,26.4z M212.9,19.2c0.4,1.4,0.6,3.1,0.6,3.8c0,1.3-0.9,1.9-0.4,3.2c0,0,0.1,0.1,0.1,0.2
		c-0.2-1,0.3-2.1,0.5-3.2C213.9,22,213.4,20.3,212.9,19.2z M211,18.4c-1-2.9-2.3-4.1-2.9-5c0.9,1.4,2.4,4.1,2.5,4.7
		c1.3,4.2,0.5,3.8,0.8,4.6c0,0,0.4,0.9,0.5,0.7C211.4,22,212.2,21.7,211,18.4z M225.9,9.1c-2-2.4-6.5,4.5-7.1,6.2
		c-0.4-0.1-0.7-0.4-0.8-0.3c-2.1,3-3.1,5.3-2.1,9.8c0.5,2.4,1.4,5.2,0.8,7.1c1.3-1.4-0.7-5.5-0.7-9.8c0-2,0.4-4.1,1.9-5.9
		c0.5-1.2,1.2,1,2-1.6c0.5-1.6,3.9-5.5,4.9-5.3c0.5,0.1,0.6,0.9,1.2,0.7V9.2C226,9.2,225.9,9.1,225.9,9.1z M250.7,7.8
		C250.7,7.8,250.7,7.9,250.7,7.8c0,0.3-0.2,0.3-0.4,0.3c0,0.1,0,0.2,0.1,0.4c1.4-0.2,3.6,2.1,4.9,3.2c-0.5,1.2,0,2.3-1.6,5.2
		c-0.1,0.2-0.6,0.3-0.5,0.4c0,0.1,0.3,0.1,0.5,0c1.3-0.3,1.7-4.8,2.1-5.8C254.3,10.1,251.9,7.9,250.7,7.8z M234.5,31.4
		c-0.6-0.4-0.8-0.4-0.9-0.1c1,0.8,2.1,1.4,1.8,2.7c0,0.3,0.2,0.4,0.5,0.2C236.4,33.3,235.7,32.3,234.5,31.4z M235.9,34.4
		c-0.6,0-0.4,0.5-0.1,0.5c0.5,0,1.1,0.8,0.7,1.6c-0.1,0.2,0.2,0.4,0.4,0.2C237.5,35.8,236.9,34.4,235.9,34.4z M238.3,38.8
		c-0.1-1.2-0.6-1.8-0.6-2.2c-0.1-0.3-0.3-0.1-0.3,0.2c0.3,1,0.9,2.6,0,5.2c-0.4,1.3-2.6,2.3-4.1,3.6c-0.8,0.1,0.2-2,1.7-3.3
		c0.3-0.3,2.2-2,1.9-4.5c-0.1-0.5-0.9-0.7-0.8-0.2c0,0.1,0.2,0.1,0.2,0.2c0.3,0.8-0.2,2.7-1.7,4.2c-1.3,1.2-1.9,2.3-2,3
		c0.2,0.5,0.5,0.9,0.7,1.1c-0.1,0-0.3,0-0.4,0c0.2,0.1,0.3,0.1,0.5,0.1c0.5-0.1,0.5-0.6,2.5-1.9c0.9-0.5,1.6-1.5,2-2.2
		C238.3,41.4,238.4,39.9,238.3,38.8z M207.6,48.7c0-0.2,0.1-0.4,0.1-0.5c0,0,0,0,0,0V48C207.7,48.2,207.7,48.4,207.6,48.7z
		 M207.2,9.9c-0.4-0.2-0.6,0.1-0.7,0.4c0.1,0.1,0.1,0.2,0,0.3c0.1,0,0.2,0.1,0.3-0.1c0.1-0.8,1.8,1.1,2,1.9c0.2,0.4,0.2,0.7,0.4,0.9
		c0-0.1,0-0.2,0.1-0.2c0,0,0,0,0.1,0C209.1,12.3,208.5,10.9,207.2,9.9z M206.5,10.5c0-0.1,0-0.1,0-0.2c0,0,0,0,0,0
		c-1.7-1.6-3.6-1.8-3.7-0.8c0,0.3,0.2,0.3,0.6,0.1c0.5-0.8,1.9,0,2.8,0.9C206.3,10.7,206.5,10.7,206.5,10.5
		C206.5,10.6,206.5,10.5,206.5,10.5z M202.8,9.3c-1.2-1.1-5.1-0.1-5.7,0.2c0,0.6-1.6,4-0.1,5.5c0,0,0,0,0.1,0.1
		c0.1,0.1,0.2,0.1,0.3,0.2c0.2,0,0.3,0,0.2-0.3c-1.3-1-0.2-4.3,0.2-5c0.8-0.2,3.4-1.1,4.5-0.6C202.3,9.8,202.9,9.6,202.8,9.3z
		 M213.6,27.9c0,0.3,0,0.6,0.1,0.9l0.1-0.3C213.7,28.3,213.7,28.1,213.6,27.9z M213.1,28.2c0,0.1,0.1,0.1,0.1,0.1
		C213.2,28.2,213.1,28.2,213.1,28.2C213.1,28.1,213.1,28.2,213.1,28.2z M212.1,24.4c-0.1-0.2-0.2-0.3-0.3-0.5
		C211.9,24.1,212.1,24.4,212.1,24.4z M211.5,23.3c-0.1-0.1-0.3-0.3-0.6-0.5c0.2,0.2,0.3,0.5,0.4,0.7c0.2,0.1,0.3,0.2,0.4,0.3
		C211.6,23.6,211.5,23.3,211.5,23.3z M207.7,18.3c0,0-0.1,0-0.1,0c0.2,0.2,0.4,0.4,0.6,0.7c0.2,0.2,0.4,0.3,0.5,0.5
		C208.5,18.9,208.2,18.6,207.7,18.3z M246.8,6.2L246.8,6.2c-0.1,0-0.4,0-0.4-0.3c0-1.7-3.7-1.1-7.2-0.1c-0.1-2.4-4.6,0.3-7.6,1.5
		c-0.5-1-0.9-1.3-1.7-1c-1.3,0.5-2.8,1.4-4,2.8c0,0-0.1,0.1-0.1,0.1v0.7c0.1,0,0.1,0,0.2-0.1c0.5-0.4,1.5-2.2,4.5-3.1
		c0.4-0.1-0.1,0.7,0.8,0.9c1.6-0.3,4.8-2,6.6-2.3c1.1-0.1-0.1,1,1.2,1c2.8-0.9,5.3-1.2,6.4-0.7c0.5,0.2,0,0.9,0.6,1
		c0.1,0,0.1,0,0.2,0C246.4,6.6,246.8,6.3,246.8,6.2C246.8,6.2,246.8,6.2,246.8,6.2z M246.8,6.2L246.8,6.2
		C246.8,6.2,246.7,6.2,246.8,6.2c-0.2,0-0.7,0-0.8,0.1c0,0.1,0,0.2,0.1,0.3c0.1,0.1,0.2,0.1,0.4,0c2.1-0.6,3.6,0.7,3.5,1.4
		c0,0.1,0.1,0.2,0.3,0.1c0-0.2,0.1-0.3,0.2-0.3c0,0,0.1,0,0.2,0C250.1,6.1,248.6,5.9,246.8,6.2z M239.7,28.8L239.7,28.8l-0.5-0.2
		l-0.1-0.1c-0.1,0.1-0.2,0.1-0.2,0.2l0,0c-0.1,0.2,0.2,0.5,0,0.7c-0.4,0.6-5.6,1.3-7.2,1c-2.6-0.4-1.3,0.6-2.6,0.5
		c-4.3-1.1-7.6-1.3-11,1.1c-0.2,0.1-0.8,0.8-0.9,0.9c0.8-0.7,1.7-1.1,2.5-1.5c0.7-0.3,1.3-0.5,2-0.6c3.7-0.7,6.7,0.9,8.5,0.6
		c0.3-0.1,0.3-0.3,0.4-0.6C232.3,31.1,240.8,30.8,239.7,28.8z M253.7,17.7c-0.3-0.1,0.1-0.3,0-0.3c-0.1,0-0.5,0.1-0.6,0.2
		c-0.5,0.6,0.4,0.4,0.3,0.8c-0.3,0.8-1.9,2.2-4.2,3.5c-0.7,0.7,0.8,0.4,0.1,1c-1.2,1-4.4,2.3-5.5,3.2c-0.4,0.6,0.6,0.5,0.2,0.8
		c-2.3,1.4-4.1,1.5-4.8,1.7c-0.2,0-0.3,0.1-0.3,0.1l0,0l0.6,0.1c0,0,0.1,0,0.2,0c1.7-0.2,3.3-0.9,4.3-1.5c0.7-0.4,0.7-0.7,0.2-1.3
		c2.7-1.4,7.2-3.2,5.5-4C252.4,20.3,255,18.3,253.7,17.7z M220.7,28.9c-0.2,0.1,0.1,0.4,0.4,0.4c0.6,0.3,2.6,0.1,5.2-0.4
		c1.7-0.3,3.7-0.6,5.7-0.9C226.9,28,224.4,29.3,220.7,28.9z M247.8,14.9c-0.1,0-0.5,0-0.4,0.1c0.2,0.1,3.3,0.6,5.2-0.4
		C250.4,15.3,248.6,14.9,247.8,14.9z M221.6,30.8c0,0-0.1-0.1-0.1-0.1c-0.6-0.1-1.3,0.2-1.8,0.7c-0.5,0.4-0.9,1-1.3,1.6
		c-0.9,1.6-2,4,0,0.7c0.8-1.2,1.3-2.3,2.9-2.5C221.6,31.1,221.8,31,221.6,30.8z M210.1,28.9c-2.8-0.3-6-1.5-5.4-2.8
		c0.1-0.1,0.2-0.3,0-0.3c-1.8-0.2-3.1-2.4-3.3-3.4c-0.1-0.3,0.2-0.3,0.3-0.4c-0.1,0,0-0.2,0-0.2v-0.2c-0.1,0-0.2,0-0.3,0.1
		c-1.2,0.7,1.2,4.2,2.9,4.5c-0.1,0.4-0.3,0.6,0.2,1.1c1.2,1.1,3.6,1.8,7.7,2l1.1,0.2C212.6,29,211.9,29,210.1,28.9z M201.8,21.6
		c0,0,0-0.1,0-0.1c-0.1-0.1-0.5-0.3-1-0.5c-0.8-0.3-2.7-2.2-1.9-2.2c0.2,0,0.1-0.3,0-0.3c0,0,0,0-0.1,0c-0.1,0.1-0.2,0.1-0.3,0
		c0,0,0,0,0,0c-0.3,0-0.4,0.2-0.3,0.6c1.1,1.6,2.7,2.1,3.4,2.5C201.7,21.6,201.7,21.6,201.8,21.6C201.8,21.7,201.8,21.7,201.8,21.6
		C201.8,21.7,201.9,21.7,201.8,21.6C201.9,21.7,201.9,21.6,201.8,21.6z M198.8,18.1c-1-0.7-2.1-2-1.4-2.6c0-0.1,0-0.2,0-0.3
		c0-0.2-0.1-0.3-0.3-0.3c0,0,0,0-0.1,0c-0.9,0.4-0.3,2.2,1.6,3.5c0.1,0,0.2,0,0.3,0C198.9,18.4,199,18.2,198.8,18.1z M202.5,11.6
		c0.8,0.9,1.3,2,1.6,2.4c0.1,0.1,0.2,0.2,0.2,0.1C204.2,13.9,203.3,12.2,202.5,11.6z M201.9,21.7C201.9,21.7,201.9,21.6,201.9,21.7
		c0-0.1,0-0.1-0.1-0.2c0,0,0,0-0.1,0v0.1c0,0,0,0,0,0C201.8,21.7,201.8,21.7,201.9,21.7c0,0,0,0.1-0.1,0.2
		C201.8,21.8,201.9,21.8,201.9,21.7z M239.8,16.5c6.4-2.3,10.6-2.1,13.1-4.6c-3.2,2.2-5.7,2.2-8.5,2.9c-10.7,2.7-22.9,8.2-29.4,20.3
		c-0.3,0.5-0.7,1.2-1.1,1.8c0.1-0.5,0.2-1.6,0.4-3.8c0-1.6-0.2-3.2-0.5-4.6l-0.1,0.3c-0.1-0.3-0.1-0.6-0.1-0.9v0
		c-0.4-1.2-0.8-2.3-1.3-3.4c-1-2-2.5-4.3-4.3-6.4c-0.1,0-0.1-0.1-0.2-0.2c0,0,0,0,0,0c-2.2-2.6-4.9-4.9-7.8-6.2
		c1.7,1,4.6,3.1,7.6,6.5c0,0,0.1,0,0.1,0c0.5,0.3,0.8,0.6,1,1.1c-0.2-0.2-0.3-0.3-0.5-0.5c1,1.2,1.9,2.5,2.8,3.9
		c0.3,0.2,0.5,0.3,0.6,0.5c0,0,0.1,0.3,0.3,0.6c-0.1-0.1-0.2-0.2-0.4-0.3c0.2,0.2,0.3,0.5,0.4,0.7c0.6,1.2,1,2.5,1.3,3.8
		c0,0,0.1,0.1,0.1,0.2c0,0,0-0.1-0.1-0.1c0.5,2.2,0.7,4.7,0.4,7.3c-0.7,2.5-1.5,4.6-2.4,6.2c-0.6,0.7-1.1,1.5-1.6,2.3
		c-0.5,0.6-1.1,1.2-1.7,1.7l-0.3,0.2c0.2,0.5,0.2,1.2,0.2,2.1c0,0,0,0,0,0v0.1c0,0,0,0,0,0c0,0.3,0,0.6,0,0.9
		c0.5-0.4,1.7-3.6,2.7-5.1c1-1.4,2.3-3,3.4-4.5c1.3-1.1,2.9-2.1,5-2.8c4.6-1.7,10.8,0.3,12.8,4.3c0.8,1.6-0.3,4.8,1.3,5.2
		c-0.2-0.1-0.3-0.2-0.3-0.4c-0.1-0.2-0.1-0.4,0-0.7c-0.2-0.5-0.3-1.1-0.2-1.6c0.2-4.2-5.6-8.3-11.2-7.9c5.7-1.1,11,1.6,11.3,6.5
		c0,0.5,0.2,0.3,0.2,0.1c-0.1-7.4-11.2-10-18.8-4.1c0.7-1.1,1.7-2.8,1.7-2.8C221.4,24.3,232,19.4,239.8,16.5z M211.8,23.9
		c0.2,0.2,0.3,0.3,0.3,0.5C212.1,24.4,211.9,24.1,211.8,23.9z"/>
</g>
</svg>
