<?xml version="1.0" encoding="utf-8"?>
<!-- Generator: Adobe Illustrator 21.0.2, SVG Export Plug-In . SVG Version: 6.00 Build 0)  -->
<svg version="1.1" id="Layer_1" xmlns="http://www.w3.org/2000/svg" xmlns:xlink="http://www.w3.org/1999/xlink" x="0px" y="0px"
	 viewBox="0 0 60 60" style="enable-background:new 0 0 60 60;" xml:space="preserve">
<style type="text/css">
	.st0{clip-path:url(#SVGID_2_);fill:url(#SVGID_3_);}
	.st1{clip-path:url(#SVGID_5_);fill:url(#SVGID_6_);}
	.st2{fill:url(#SVGID_7_);}
	.st3{fill:#00653E;}
</style>
<g id="Tulsi">
	<g>
		<g>
			<defs>
				<path id="SVGID_1_" d="M1.2,18c-1.4,1,0.1,3,1.3,3.3c-0.1,1.1,0.9,2.6,3.1,3.3c-1.4,1.2,0.9,4.2,2.9,4.4
					c-0.9,2.8,5.7,2.9,8.5,3.6c0.8,0.3,1.1,0.8,0.5,1.5V32c3.1-11.2-0.4-9.4-0.5-10.1c-0.2-3.9-3.4-5.6-3.7-5.2
					c-2.4-5.1-2.8-2.5-3-3c-0.1-0.3-2.9-1.9-3.6-1.1c-0.7-0.3-4.5-1-5.4,0.5C-0.5,15.8,0.9,17.5,1.2,18L1.2,18z"/>
			</defs>
			<clipPath id="SVGID_2_">
				<use xlink:href="#SVGID_1_"  style="overflow:visible;"/>
			</clipPath>
			
				<linearGradient id="SVGID_3_" gradientUnits="userSpaceOnUse" x1="21.5208" y1="99.6355" x2="-0.7792" y2="99.6355" gradientTransform="matrix(1 0 0 -1 0 122.271)">
				<stop  offset="0" style="stop-color:#25B34B"/>
				<stop  offset="1" style="stop-color:#91C951"/>
			</linearGradient>
			<path class="st0" d="M-0.8,22.7c0,3.6,0,7.3,0,10.9c0,0.6,0.1,0.7,0.7,0.7c7,0,13.9,0,20.9,0c0.6,0,0.7-0.1,0.7-0.7
				c0-7.3,0-14.7,0-22c0-0.6-0.1-0.7-0.7-0.7c-7,0-13.9,0-20.9,0c-0.6,0-0.7,0.1-0.7,0.7C-0.8,15.3-0.8,19-0.8,22.7z M16.5,11.2
				c-5.4,0-10.8,0-16.2,0c-0.5,0-0.7,0.2-0.7,0.7c0,5.1,0,10.2,0,15.3c0.6,0.2,1-0.3,1.3-0.6c3.9-3.8,8-7.5,12-11.2
				c1-1,2.1-1.9,3.1-3C16.4,12,16.8,11.7,16.5,11.2z M4.1,33.8c0.7,0,1.5,0,2.2,0c0.3-0.1,0.6-0.3,0.8-0.5c2.7-2.7,5.5-5.2,8.3-7.8
				c1.6-1.5,3.1-3.1,4.8-4.4c0.3-0.3,0.6-0.6,0.7-1c0-0.7,0-1.3,0-2c-0.5-0.3-0.7,0.1-1,0.4c-1.8,1.4-3.3,3-5,4.6
				c-2.9,2.8-6,5.4-8.8,8.3c-0.5,0.5-1.1,0.9-1.6,1.4C4.3,33,3.8,33.3,4.1,33.8z M16.5,11.2c-0.6,1.3-1.7,2.1-2.7,3
				c-1.5,1.2-2.8,2.7-4.3,4c-3,2.7-5.9,5.6-8.8,8.3c-0.3,0.3-0.7,0.5-1,0.7c0,0.4,0,0.9,0,1.3c0.7,0.3,1.1-0.2,1.5-0.6
				C2.1,27,2.9,26,4,25.3c4.5-4.3,9.1-8.6,13.7-12.8c0.4-0.3,1-0.6,0.7-1.3C17.7,11.2,17.1,11.2,16.5,11.2z M-0.3,32.1
				c0,0.4,0,0.9,0,1.3c0.5,0.3,0.8-0.1,1-0.4c2.8-2.8,5.7-5.4,8.6-8.1c3.8-3.5,7.5-7.1,11.4-10.6c0.1-0.1,0.2-0.2,0.3-0.3
				c0-0.4,0-0.9,0-1.3c-0.4-0.3-0.7,0.1-1,0.3c-2,1.7-3.9,3.6-5.9,5.4c-4,3.8-8.2,7.5-12.1,11.4C1.2,30.6,0.3,31.2-0.3,32.1z
				 M1.4,33.8c0.4,0,0.9,0,1.3,0c1.2-1.1,2.4-2.2,3.6-3.3c4.1-4,8.4-7.7,12.4-11.7c0.7-0.7,1.6-1.2,2.2-2c0-0.4,0-0.9,0-1.3
				c-0.5-0.3-0.8,0.2-1.1,0.5c-3.8,3.6-7.6,7.1-11.3,10.6c-2.1,2-4.4,4-6.5,6.1C1.7,32.9,1.1,33.1,1.4,33.8z M21,16.7
				c-0.9,0.3-1.5,1.1-2.2,1.8c-3.1,2.8-6,5.7-9.1,8.6C7.6,29,5.5,31,3.5,32.9c-0.3,0.3-0.7,0.5-0.7,1c0.4,0,0.9,0,1.3,0
				c0-0.4,0.3-0.6,0.6-0.9c3.6-3.2,7.1-6.5,10.6-9.9c1.6-1.5,3.3-3,4.9-4.5c0.2-0.2,0.4-0.5,0.8-0.5C21,17.6,21,17.2,21,16.7z
				 M-0.3,30.3c0,0.3,0,0.6,0,0.9c0.5,0.3,0.7-0.1,1-0.4c1.8-1.4,3.3-3,5-4.6c2.9-2.8,5.9-5.5,8.8-8.3c1.9-1.8,3.8-3.6,5.8-5.4
				c0.3-0.2,0.5-0.4,0.7-0.7c0.2-0.9-0.4-0.7-0.9-0.6c-0.8,0.7-1.6,1.4-2.4,2.1c-2.9,2.9-5.9,5.6-8.9,8.4c-2.6,2.4-5.1,4.9-7.8,7.2
				C0.5,29.3,0,29.8-0.3,30.3z M21,11.8c-1.2,0.6-2,1.6-2.9,2.4c-3.1,2.8-6,5.7-9,8.5c-2.9,2.7-5.9,5.4-8.8,8.1
				C0.1,31,0,31.1-0.3,31.1c0,0.3,0,0.6,0,0.9c1-0.4,1.6-1.3,2.4-1.9c1.4-1.1,2.7-2.4,4-3.7c4.1-3.9,8.2-7.8,12.3-11.6
				c0.8-0.7,1.5-1.7,2.6-2.2C21,12.4,21,12.1,21,11.8z M-0.3,30.3c1-0.4,1.7-1.3,2.5-2c1.8-1.6,3.5-3.4,5.3-5
				c3.6-3.3,7.1-6.7,10.7-10c0.7-0.6,1.6-1.1,2-2.1c-0.3,0-0.6,0-0.9,0c-0.3,0.1-0.5,0.3-0.7,0.5c-3,3-6.2,5.8-9.3,8.8
				c-1.8,1.7-3.6,3.4-5.4,5.1C2.6,27,1,28.1-0.2,29.5C-0.3,29.7-0.3,30-0.3,30.3z M21,14c-0.5,0.1-0.9,0.4-1.3,0.8
				c-1.5,1.4-3,2.9-4.6,4.3c-3.9,3.7-7.7,7.4-11.7,11c-1,0.9-1.9,1.8-2.8,2.6c-0.3,0.2-0.5,0.6-0.9,0.6c0,0.8,0.5,0.3,0.9,0.4
				c1.8-1.5,3.5-3.1,5.1-4.7c4.9-4.6,9.8-9.1,14.7-13.7c0.2-0.2,0.4-0.4,0.6-0.6C21,14.5,21,14.3,21,14z M21,14.7
				c-1.1,0.4-1.7,1.4-2.6,2.2c-1.5,1.2-2.9,2.7-4.4,4.1c-3.9,3.7-7.8,7.3-11.7,11c-0.6,0.6-1.5,0.9-1.8,1.9c0.3,0,0.6,0,0.9,0
				c0.6-1.3,1.7-2.1,2.7-3c1.6-1.3,2.9-2.8,4.4-4.1c3.1-2.8,6-5.8,9.1-8.5c1.1-0.9,1.9-2.1,3.2-2.8C21,15.2,21,14.9,21,14.7z
				 M21,20.1c-2.2,1.7-4.1,3.8-6.2,5.7c-2.6,2.4-5.1,4.8-7.6,7.2c-0.3,0.3-0.5,0.6-0.8,0.9c0.4,0,0.7,0,1.1,0
				c1.8-1.3,3.4-2.8,4.9-4.5c0.4-0.6,1-1.2,1.6-1.6c0.1-0.1,0.2-0.2,0.4-0.3c1.4-1.7,3-3.1,4.6-4.5c0.6-0.7,1.7-0.9,2.1-2
				C21,20.6,21,20.4,21,20.1z M3.9,25.6c5.2-4.7,10.4-9.4,15.3-14.4c-0.3,0-0.6,0-0.9,0c0,0.5-0.4,0.7-0.7,1
				c-3.5,3.2-7,6.5-10.5,9.8c-1.1,1.1-2.3,2.1-3.3,3.3C3.7,25.3,3.7,25.5,3.9,25.6z M21,25.6c0-0.3,0-0.6,0-0.9
				c-0.5-0.1-0.7,0.3-1,0.6c-2.1,2.2-4.4,4.2-6.6,6.3c-0.7,0.7-1.6,1.2-1.9,2.2c0.3,0,0.6,0,0.9,0c0.3-0.1,0.6-0.3,0.8-0.5
				c2.2-2.3,4.6-4.4,6.9-6.5C20.5,26.4,20.8,26.1,21,25.6z M11.4,33.8c1.3-1.5,2.8-2.6,4.1-4c1.5-1.5,3.3-2.6,4.5-4.5
				c-0.5-0.3-0.8,0.1-1.1,0.4c-0.6,0.5-1,1.1-1.6,1.4c-1.5,1.3-3.1,2.6-4.5,4.1c-0.6,0.6-1.2,1.3-1.9,1.8c-0.2,0.2-0.5,0.4-0.4,0.7
				C10.8,33.8,11.1,33.8,11.4,33.8z M21,27.6c0-0.3,0-0.6,0-0.9c-1,0.1-1.4,0.9-2.1,1.5c-1.6,1.5-3.2,2.9-4.7,4.4
				c-0.3,0.3-0.8,0.5-0.7,1.1c0.3,0,0.6,0,0.9,0c1-0.5,1.7-1.3,2.5-2c1.2-1,2.2-2.3,3.5-3.2C20.6,28.3,20.8,28,21,27.6z M10.5,33.8
				c2.3-2.1,4.6-4.3,6.9-6.4c0.3-0.2,0.7-0.4,0.5-0.9c-0.1-0.1-0.3-0.2-0.5-0.2c-0.5,0.1-0.8,0.5-1.1,0.9c-0.3,0.5-0.8,0.9-1.2,1.3
				c-0.1,0.1-0.1,0.1-0.2,0.2c-0.3,0.3-0.6,0.6-1,0.8c-0.8,0.8-1.9,1.1-2.5,2.1c-0.4,0.8-1.5,1.1-1.6,2.1
				C10.1,33.8,10.3,33.8,10.5,33.8z M13.4,33.8c1.6-1.5,3.1-3.1,4.8-4.5c0.9-0.8,1.8-1.7,2.7-2.6c0-0.2,0-0.4,0-0.7
				c-1,0.3-1.6,1.2-2.3,1.8c-1.8,1.7-3.7,3.3-5.4,5.1c-0.2,0.2-0.6,0.4-0.5,0.8C13,33.8,13.2,33.8,13.4,33.8z M21,27.6
				c-2.3,2-4.5,4-6.6,6.2c0.3,0,0.6,0,0.9,0c1-0.6,1.9-1.4,2.7-2.2c1-1,2.1-1.9,3-3.1C21,28.2,21,27.9,21,27.6z M21,28.5
				c-2.1,1.6-3.9,3.5-5.7,5.3c0.4,0,0.7,0,1.1,0c1.1-0.6,1.8-1.6,2.6-2.5c0.4-0.5,0.8-1,1.4-1.3c0.2-0.2,0.4-0.3,0.4-0.6
				C20.9,29.1,21.1,28.8,21,28.5z M12.8,33.8c2.1-2.1,4.2-4.1,6.4-6.1c0.6-0.5,1.2-1.1,1.8-1.7c0-0.1,0-0.3,0-0.4
				c-2.9,2.7-6,5.2-8.6,8.2C12.5,33.8,12.6,33.8,12.8,33.8z M8.5,33.8c0.2,0,0.4,0,0.7,0c0.7-0.6,1.4-1.2,2.1-1.9
				c0.7-1,1.7-1.6,2.6-2.4c0.6-0.5,1.1-0.9,1.5-1.6c0.1-0.2,0.2-0.4,0-0.6c-0.6-0.2-0.9,0.3-1.2,0.6c-1,0.9-1.8,1.9-2.8,2.7
				c-0.6,0.5-1.1,1.2-1.8,1.5c-0.1,0.1-0.3,0.2-0.4,0.3C9,32.8,8.4,33.1,8.5,33.8z M9.4,32.5c0.1-0.1,0.1-0.1,0.2-0.2
				c0.7-0.5,1.2-1.2,1.9-1.7c0.9-0.8,1.8-1.5,2.6-2.4c0.2-0.2,0.6-0.4,0.4-0.8c-0.2-0.1-0.3-0.1-0.4,0.1c-0.1,0.1-0.1,0.1-0.2,0.2
				c-0.7,0.4-1.1,1.1-1.8,1.6c-1.2,1.5-2.7,2.6-4,3.9c-0.2,0.2-0.5,0.5-0.6,0.8c0.1,0,0.3,0,0.4,0C8.6,33.6,8.8,32.8,9.4,32.5z
				 M3.9,25.6c0-0.1,0-0.3,0-0.4c-1.2,0.5-1.8,1.6-2.7,2.4c-0.4,0.4-0.8,0.9-1.5,0.9c0,0.3,0,0.6,0,0.9C1.2,28.3,2.7,27.1,3.9,25.6z
				 M18.5,33.8c2.5,0.1,2.5,0.1,2.4-2.4C19.8,31.8,19,32.7,18.5,33.8z M20.8,29.4c-0.2,0.1-0.4,0.2-0.5,0.5c-0.6,0.4-1,1-1.6,1.3
				c-0.8,0.9-1.6,1.8-2.4,2.6c0.2,0,0.4,0,0.7,0c1-0.6,1.9-1.4,2.8-2.3c0.4-0.5,1-0.9,1.2-1.5C21,29.8,21.1,29.5,20.8,29.4z
				 M17.4,26.5c0.1,0,0.3,0,0.4,0c1.3-0.6,2.3-1.4,3.1-2.7c0-0.3,0-0.6,0-0.9c-0.9,0.1-1.4,0.8-2,1.4c-0.3,0.5-0.6,0.9-1.1,1.2
				C17.6,25.8,17.3,26,17.4,26.5z M21,22.1c0-0.2,0-0.4,0-0.7c-0.9,0.3-1.4,1.3-2.3,1.7c-0.6,0.8-1.7,1.2-1.9,2.4
				c0.1,0.1,0.3,0.1,0.4,0.1c0.6-0.4,1.2-1,1.9-1.3C19.7,23.5,20.6,23,21,22.1z M21,23.8c-1,0.9-2.1,1.8-3.1,2.7
				c0,0.4-0.3,0.6-0.4,0.9c0.7-0.1,1-0.8,1.5-1.2c0.4-0.3,0.6-0.8,1.1-0.8c0.3-0.2,0.6-0.4,0.9-0.7C21,24.4,21,24.1,21,23.8z
				 M18.5,33.8c0.7-0.9,1.5-1.7,2.4-2.4c0-0.1,0-0.3,0-0.4c-0.7-0.2-1,0.5-1.4,0.8c-0.4,0.4-0.7,0.7-1.2,1c-0.3,0.2-0.8,0.5-0.5,1
				C18.1,33.8,18.3,33.8,18.5,33.8z M17.9,33.8c0.2-1,1.4-1.1,1.8-2c0.1-0.1,0.1-0.3,0-0.4c-0.9,0.8-1.9,1.4-2.7,2.4
				C17.3,33.8,17.6,33.8,17.9,33.8z M21,22.1c-0.7,0.6-1.4,1.2-2,2c-0.2,0.1-0.4,0.2-0.2,0.5c0.2,0.1,0.3,0.1,0.4-0.1
				c0.4-0.7,1.2-1,1.7-1.6C21,22.7,21,22.4,21,22.1z M11.2,31.8c-0.7,0.6-1.6,1-2,2c0.2,0,0.4,0,0.7,0c0.6-0.7,1.2-1.3,1.8-2
				C11.5,31.7,11.4,31.7,11.2,31.8z M18.8,23.2c1-0.3,1.4-1.3,2.2-1.8c0-0.1,0-0.3,0-0.4c-0.7,0.6-1.5,1.2-2.2,1.8
				C18.6,22.9,18.6,23,18.8,23.2z M19.7,31.4c0,0.1,0,0.3,0,0.4c0.4-0.3,0.9-0.6,1.3-0.9c0-0.3,0-0.6,0-0.9
				C20.5,30.4,20,30.9,19.7,31.4z M9.4,32.5c-0.8,0.2-1.1,0.8-1.6,1.3c0.2,0,0.4,0,0.7,0C8.8,33.4,9.1,32.9,9.4,32.5z M18.8,23.2
				c0-0.1,0-0.3,0-0.4c-1.6,1.5-3.4,2.8-4.7,4.7c0.1,0,0.3,0,0.4,0c0.9-0.5,1.6-1.2,2.2-2C17.4,24.6,18.1,23.9,18.8,23.2z
				 M12.1,29.2c0.8-0.2,1.3-1,1.8-1.6C13,27.8,12.6,28.6,12.1,29.2z M11.2,31.8c0.1,0,0.3,0,0.4,0c0.5-1.1,1.9-1.2,2.4-2.2
				c0.4-0.3,0.7-0.6,1.1-0.9l0,0c0.1-0.3,0.6-0.5,0.4-0.9c-0.2-0.1-0.3-0.1-0.4,0.1c-0.9,1.3-2.3,1.9-3.2,3.1
				C11.7,31.2,11.5,31.5,11.2,31.8z M20.4,23.8c-0.3,0-0.8,0-1,0c-1.8,0-2.3,1.2-3.3,2.4c-0.8,1.7-3.6,2.4-3.3,4.9
				c0.5,0.2,0.8,0.2,1-0.2c0.5-1,1.3-1.7,2.3-2.2C17,26.7,19.6,26,20.4,23.8z M16.5,27.4c-0.1,0-0.3,0-0.4,0
				c-0.4-0.1-0.5,0.1-0.4,0.4c-0.1,0.3-0.5,0.5-0.4,0.9C15.7,28.4,16.2,27.9,16.5,27.4z M15.2,28.7c-0.6,0.1-0.8,0.5-1.1,0.9
				C14.7,29.6,14.9,29.1,15.2,28.7z M18.8,31.2c0.8-0.2,1.1-0.8,1.6-1.3C19.6,30,19.2,30.6,18.8,31.2z M16.8,25.4
				c-0.9,0.5-1.6,1.2-2.2,2c-0.8,1.3-2.2,1.9-3.1,3.1c-0.1,0-0.1,0.1-0.1,0.1s0,0.1,0.1,0.1c1-0.3,1.4-1.2,2.1-1.7
				c0.7-0.5,1-1.4,1.9-1.6c0.8-0.4,1.3-1.1,1.8-1.7c0-0.1,0-0.2,0-0.3C17.1,25.4,16.9,25.4,16.8,25.4z M17.2,25.6
				c-0.7,0.5-1.3,1.1-1.8,1.8c-0.1,0.1-0.1,0.3-0.2,0.4c0.1,0,0.3,0,0.4,0c0.1-0.2,0.2-0.4,0.4-0.4c0.5-0.6,1-1.2,1.6-1.8
				C17.5,25.5,17.4,25.5,17.2,25.6z M11.4,30.7c0-0.1,0-0.1,0-0.2c-0.7,0.5-1.3,1.1-1.8,1.8C10.5,32.1,10.9,31.3,11.4,30.7z
				 M17.2,25.6c0.1,0,0.3,0,0.4,0c0.3-0.5,0.7-0.8,1.1-1.1c0.1-0.1,0.1-0.3,0.2-0.4c-0.7,0.2-1.4,0.7-1.8,1.3
				C17.2,25.5,17.2,25.5,17.2,25.6z"/>
		</g>
	</g>
	<g>
		<g>
			<defs>
				<path id="SVGID_4_" d="M22.1,18.5c1.4,1.5,3.2-7.6,7.5-6c0.5-1,5.7-4.6,5.6-2c2-0.5,8.5-3.5,7.6-1.3c2.1-1,7.6-1.7,7.3,0.3
					c1.5-0.5,3.6,0,4.2,1.5c2.6,0.7,4.8,3.9,5.2,3.6c0.5,0.6-0.6,5.1-2.4,5.9c1.2,0.7-0.7,2.7-3.8,4.6c1.7,0.9-6.6,4.1-5.4,4.3
					c1.2,0.4-2.9,2.2-4.8,2.3c0,0.7,0.8,1.8-9,2c-1,1.7-9.1-3.8-14.2,3.8c-0.1,0.1-0.5,0.5-0.6,0.6c0.1-0.4,0.4-1,0.5-1.4
					c0.3-0.4,0.3-0.9,0.5-1.3C22.5,30.6,16.1,25,22.1,18.5L22.1,18.5z"/>
			</defs>
			<clipPath id="SVGID_5_">
				<use xlink:href="#SVGID_4_"  style="overflow:visible;"/>
			</clipPath>
			
				<linearGradient id="SVGID_6_" gradientUnits="userSpaceOnUse" x1="15.8208" y1="99.7062" x2="61.2208" y2="99.7062" gradientTransform="matrix(1 0 0 -1 0 122.271)">
				<stop  offset="0" style="stop-color:#25B34B"/>
				<stop  offset="1" style="stop-color:#91C951"/>
			</linearGradient>
			<path class="st1" d="M15.8,6.4c0,10.4,0,20.8,0,31.3c0,0.7,0.1,0.8,0.8,0.8c14.6,0,29.2,0,43.8,0c0.7,0,0.8-0.1,0.8-0.8
				c0-10.2,0-20.3,0-30.5c0-0.7-0.1-0.8-0.8-0.8C45.5,6.4,30.6,6.4,15.8,6.4z M19.3,6.6c-1,0-2.3-0.4-2.9,0.1
				c-0.6,0.5-0.2,1.8-0.2,2.7c0,9.1,0,18.2,0,27.3c0,0.9,0.2,1.2,1.1,1.1c2-0.1,4,0,6-0.1c0.4-0.4,0.3-0.9,0.2-1.4
				c-1.2-9.4-2.4-18.8-3.7-28.3C19.8,7.7,19.8,7.1,19.3,6.6z M45.4,39.6c1.8,1.2,3.1,2.1,4.9,3.4c1.5,0.7,1.3,0,1.5-0.2
				c0.1-6.8-0.2-14-0.1-20.7c0.1-4.9,0.2-9.7-0.2-14.9c-0.2-0.6,0-0.9-0.8-1.7c-1.8-1.2-3.1-2.1-4.9-3.4c-3.7-1.3-1.6,1.4-1.8,2.6
				c-0.2,6,0.2,12.1,0,18.1c-0.1,4.9,0.3,10,0.2,14.9C43.6,37.6,44.2,38.5,45.4,39.6z M28.9,37.9c0.4,0,0.7,0,1.1,0
				c0.4-1.4-0.1-2.7-0.2-4c-0.5-3.8-1-7.6-1.5-11.4c-0.4-3-0.8-6.1-1.2-9.1c-0.3-1.9-0.5-3.9-0.8-5.8c0-0.3-0.1-0.7-0.3-0.9
				c-0.4,0-0.7,0-1.1,0c-0.4,1.1,0,2.2,0.2,3.3c0.9,6.5,1.7,13,2.6,19.5c0.4,2.6,0.7,5.1,1,7.7C28.6,37.4,28.7,37.7,28.9,37.9z
				 M46,37.9c0.3,0,0.6,0,0.9,0c0.4-0.4,0.3-0.8,0.2-1.3c-1.2-9.4-2.5-18.8-3.7-28.3c-0.1-0.6-0.1-1.3-0.5-1.8c-0.3,0-0.6,0-0.9,0
				c-0.4,1.3,0.1,2.6,0.2,3.9c0.5,3.8,1,7.5,1.5,11.3c0.5,3.7,1,7.3,1.4,11c0.2,1.4,0.4,2.7,0.6,4.1C45.7,37.3,45.7,37.7,46,37.9z
				 M19.3,6.6c0.3,2.6,0.7,5.2,1,7.7c0.3,2.6,0.7,5.2,1,7.7c0.4,3.1,0.8,6.2,1.2,9.4c0.3,2.1,0.5,4.3,0.8,6.4c0.3,0,0.6,0,0.9,0
				c0.3-0.7,0.1-1.5,0-2.2c-0.4-3.2-0.8-6.4-1.2-9.5c-0.4-3-0.8-6-1.2-9c-0.4-3.1-0.8-6.3-1.3-9.4c-0.1-0.4,0-0.9-0.5-1.1
				C19.8,6.6,19.5,6.6,19.3,6.6z M42.9,6.6c0.2,2.1,0.5,4.2,0.7,6.2c0.3,2.6,0.7,5.2,1.1,7.8c0.5,3.7,1,7.5,1.5,11.2
				c0.3,2,0.5,4,0.7,6c0.3,0,0.6,0,0.9,0c0.3-1.1-0.1-2.2-0.2-3.3c-0.6-5-1.3-10-1.9-15c-0.5-4-1.1-8-1.6-12.1
				c0-0.4-0.2-0.7-0.5-0.9C43.4,6.6,43.1,6.6,42.9,6.6z M45.2,6.6c-0.6,0-1.1,0-1.7,0c-0.6,1.8,0.6,3.5,0.9,5.3
				c0.7,3.7,1.8,7.5,2.6,11.2c0.7,3.1,1.5,6.2,2.2,9.3c0.4,1.4,0.6,2.9,0.9,4.3c0.2,0.5,0.2,1,1.1,1.3c0.4,0,0.7,0,1.3,0
				c0.4-0.2,0.4-0.5,0.4-0.8c-0.4-0.5-0.2-1.1-0.4-1.6c0-0.1,0-0.2-0.2-0.3c-0.4-0.5-0.2-1-0.4-1.5c0-0.1,0-0.2-0.2-0.3
				c-0.4-0.4-0.2-0.9-0.4-1.3c0-0.1,0-0.2-0.2-0.3c-0.4-0.5-0.2-1-0.2-1.5c0-0.1,0-0.2-0.2-0.3c-0.4-0.5-0.2-1-0.4-1.5
				c0-0.1,0-0.2-0.2-0.3c-0.4-0.4-0.2-0.9-0.4-1.3c0-0.1,0-0.2-0.2-0.3c-0.4-0.5-0.2-1-0.2-1.5c0-0.1,0-0.2-0.2-0.3
				c-0.4-0.5-0.2-1-0.4-1.5c0-0.1,0-0.2-0.2-0.3c-0.4-0.4-0.2-0.9-0.4-1.3c0-0.1,0-0.2-0.2-0.3c-0.4-0.5-0.2-1-0.2-1.5
				c0-0.1,0-0.2-0.2-0.3c-0.4-0.5-0.2-1-0.4-1.5c0-0.1,0-0.2-0.2-0.3c-0.2-0.5,0-1-0.2-1.5c-0.6-2.7-1.3-5.3-1.8-8
				C46.1,7.8,45.9,7.2,45.2,6.6z M27.3,6.6c-0.2,0-0.4,0-0.7,0c-0.7,1-0.1,2.1,0,3.1c0.5,3.8,1,7.5,1.5,11.3
				c0.6,4.3,1.1,8.6,1.7,12.9c0.1,0.9,0.3,1.8,0.3,2.6c0,0.5,0.1,1,0.5,1.3c0.2,0,0.4,0,0.7,0c0.3-0.3,0.3-0.7,0.2-1
				c-0.8-5.9-1.6-11.8-2.3-17.6c-0.5-3.7-1-7.4-1.4-11.2C27.8,7.6,27.7,7.1,27.3,6.6z M60.4,23.7c0-5.4,0-10.9,0-16.3
				c0-0.6-0.1-0.9-0.8-0.8c-0.5,0.1-1.1,0-1.7,0c-0.5,0.7-0.1,1.4,0,2c0.5,3.7,0.9,7.4,1.4,11.1c0.1,0.9,0.3,1.8,0.3,2.6
				C59.8,22.9,59.8,23.5,60.4,23.7z M30.9,6.6c-0.2,0-0.4,0-0.7,0c-0.3,0.3-0.2,0.7-0.1,1c0.4,3.2,0.8,6.4,1.2,9.6
				c0.3,2.4,0.6,4.8,1,7.2c0.5,3.7,1,7.4,1.4,11.1c0.1,0.8,0.2,1.6,0.5,2.4c0.3,0,0.6,0,0.9,0c0.1-0.1,0.2-0.3,0.1-0.5
				c-0.1-0.5-0.1-1-0.1-1.4c0-0.1,0-0.2-0.1-0.3c-0.2-0.4-0.1-0.8-0.2-1.3c0-0.1,0-0.2-0.1-0.3c-0.2-0.5-0.1-1-0.2-1.4
				c0-0.1,0-0.2-0.1-0.3c-0.2-0.5-0.1-1-0.2-1.5c0-0.1,0-0.2-0.1-0.3c-0.2-0.5-0.1-1-0.2-1.4c-0.6-4.3-1.1-8.7-1.7-13
				c-0.4-2.9-0.8-5.8-1.1-8.7C31.4,7.1,31.2,6.8,30.9,6.6z M58,37.9c0.3,0,0.6,0,0.9,0c0.3-1.3-0.1-2.6-0.2-3.8
				c-0.6-4.4-1.1-8.8-1.7-13.2c-0.5-3.7-0.9-7.4-1.5-11.1c-0.1-0.7-0.2-1.5-0.3-2.2c-0.1-0.4-0.2-0.8-0.5-1.1c-0.1,0-0.3,0-0.4,0
				c-0.7,1.2-0.1,2.4,0,3.6c0.6,4.9,1.3,9.8,1.9,14.7c0.5,4.1,1.1,8.3,1.6,12.4C57.8,37.6,57.9,37.8,58,37.9z M42.5,37.9
				c0.2,0,0.4,0,0.7,0c0.3-1.8-0.3-3.6-0.5-5.4c-0.4-3.7-1-7.5-1.4-11.2c-0.4-3.1-0.8-6.1-1.2-9.2c-0.2-1.5-0.4-2.9-0.6-4.4
				c-0.1-0.4,0-0.9-0.5-1.1c-0.1,0-0.3,0-0.4,0c-0.7,1.1-0.1,2.2,0,3.3c0.5,4.5,1.1,8.9,1.7,13.4c0.6,4.2,1,8.4,1.7,12.6
				C42,36.7,41.8,37.4,42.5,37.9z M30.7,37.9c-0.3-2.1-0.6-4.3-0.9-6.4c-0.5-3.8-1-7.6-1.5-11.3c-0.4-3.1-0.8-6.2-1.2-9.3
				c-0.2-1.4-0.5-2.8-0.4-4.3c-0.2,0-0.4,0-0.7,0c0,2.2,0.5,4.3,0.7,6.4c0.3,2.6,0.7,5.2,1,7.8c0.4,3.2,0.9,6.5,1.3,9.7
				c0.3,2.4,0.6,4.9,0.9,7.3C30.2,37.9,30.4,37.9,30.7,37.9z M28.9,37.9c0.1-2.3-0.5-4.6-0.7-6.9c-0.3-2.6-0.7-5.2-1-7.8
				c-0.5-3.7-1-7.5-1.5-11.2c-0.2-1.5-0.3-2.9-0.5-4.4c0-0.3,0-0.7-0.2-1c-0.2,0-0.3,0-0.5,0c-0.7,1.2-0.1,2.3,0,3.5
				c0.4,3.8,1,7.6,1.5,11.4c0.4,3,0.8,6.1,1.2,9.1c0.3,2,0.6,4,0.8,6c0.1,0.5,0.1,1,0.5,1.3C28.6,37.9,28.7,37.9,28.9,37.9z
				 M49.1,37.9c-0.3-2.1-0.6-4.1-0.9-6.2c-0.5-3.8-1-7.6-1.5-11.3c-0.4-3.1-0.7-6.2-1.2-9.3c-0.2-1.5-0.2-3-0.6-4.5
				c-0.2,0-0.3,0-0.5,0c-0.7,1-0.1,2.1,0,3.1c0.5,3.8,1,7.5,1.5,11.3c0.6,4.3,1.1,8.6,1.7,12.9c0.1,0.9,0.3,1.8,0.3,2.6
				c0,0.5,0.1,1,0.5,1.3C48.7,37.9,48.9,37.9,49.1,37.9z M33.1,6.6c-0.2,0-0.4,0-0.7,0c-0.3,1,0,2.1,0.2,3.1c1,7.7,1.9,15.4,3,23.1
				c0.2,1.3,0.3,2.6,0.5,3.9c0,0.5,0.1,0.9,0.5,1.2c0.1,0,0.3,0,0.4,0c0.7-1.1,0.1-2.2,0-3.2c-0.5-3.8-1-7.6-1.5-11.4
				c-0.4-3-0.8-6.1-1.2-9.1c-0.3-2-0.6-4.1-0.8-6.1C33.6,7.5,33.5,7,33.1,6.6z M48.9,6.6c0,2.2,0.5,4.3,0.7,6.4
				c0.3,2.6,0.7,5.2,1,7.8c0.5,3.7,1,7.5,1.5,11.2c0.3,1.9,0.5,3.9,0.7,5.8c0.2,0,0.4,0,0.7,0c0.3-1,0-2.1-0.2-3.1
				c-0.7-5.4-1.4-10.8-2.1-16.2c-0.5-3.6-1-7.2-1.4-10.9c-0.1-0.5-0.1-0.9-0.5-1.2C49.2,6.6,49.1,6.6,48.9,6.6z M40.2,37.9
				c0.2,0,0.4,0,0.7,0c0.4-1.3-0.1-2.6-0.2-3.9c-0.4-3.3-0.8-6.5-1.2-9.8c-0.4-3-0.8-6.1-1.2-9.1c-0.3-2.5-0.6-5.1-1-7.6
				c0-0.3-0.1-0.7-0.3-0.9c-0.2,0-0.4,0-0.7,0c-0.5,0.7-0.1,1.4,0,2c0.6,4.3,1.1,8.6,1.7,12.9c0.5,4.2,1.1,8.4,1.7,12.6
				C39.7,35.4,39.6,36.8,40.2,37.9z M57.8,37.5c-1.4-4-2.9-8.1-4.6-12.1c-1.4-3.7-3.2-7.3-4.3-11C48,11.7,46.6,9,46,6.2
				c-0.6,0-1.2,0-2,0c-1.4,0.6-0.3,1.3-0.3,1.9c1.2,3.7,2.6,7.3,4,11c1.7,4.3,3.2,8.6,4.9,13c0.9,1.8,0.6,3.7,2.6,5.4
				C56.6,37.5,57.2,37.5,57.8,37.5z M22.9,6.6c-0.2,0-0.4,0-0.7,0c-0.5,0.8-0.1,1.6,0,2.4c0.9,6.5,1.6,13,2.6,19.4
				c0.4,2.9,0.7,5.8,1.1,8.7c0,0.3,0.1,0.6,0.3,0.8c0.2,0,0.4,0,0.7,0c0.4-0.7,0.1-1.5,0-2.2c-0.7-5-1.3-10-2-15
				c-0.6-4.4-1.1-8.8-1.7-13.2C23.2,7.2,23.1,6.9,22.9,6.6z M30.8,4.8c-0.8-0.3-1.5-0.7-2.7-1.2c-2.2-0.2-1,1.2-0.9,2
				c0.6,4.9,0.9,9.7,1.5,14.7c0.4,5.4,1.2,11.1,1.7,16.5c0.2,0.7-0.1,1.4,1.2,2.5c0.8,0.3,1.5,0.7,2.7,1.2c2.1-0.5,0.6-2.6,0.8-3.9
				c-0.3-3.7-0.5-7.3-0.8-11c-0.4-3.4-0.7-6.9-1.1-10.3c-0.2-2.8-0.3-5.7-0.9-8.6C31.3,5.7,31.5,5.4,30.8,4.8z M44.7,37.9
				c0.1,0,0.3,0,0.4,0c0.6-1,0.1-2,0-2.9c-0.6-4.4-1.1-8.8-1.7-13.3c-0.6-4.6-1.2-9.2-1.8-13.8c-0.1-0.5-0.1-1-0.5-1.3
				c-0.2,0-0.4,0-0.7,0c-0.3,0.5-0.1,1-0.1,1.4c0.6,4.3,1.1,8.6,1.7,12.8c0.6,4.3,1.2,8.6,1.6,13c0.1,1.1,0.4,2.2,0.4,3.3
				C44.2,37.5,44.3,37.8,44.7,37.9z M36.7,37.9c-0.3-2.1-0.6-4.1-0.9-6.2c-0.5-3.8-1-7.6-1.5-11.3c-0.4-3.2-0.8-6.3-1.2-9.5
				c-0.2-1.4-0.4-2.8-0.7-4.2c-0.2,0-0.3,0-0.5,0c-0.6,0.9-0.1,1.9,0,2.8c0.4,3.3,0.8,6.6,1.3,9.9c0.6,4.2,1.1,8.4,1.7,12.6
				c0.2,1.4,0.3,2.9,0.5,4.3c0.1,0.6,0.1,1.3,0.5,1.8C36.2,37.9,36.5,37.9,36.7,37.9z M38.7,37.9c0.2,0,0.4,0,0.7,0
				c0.4-0.8,0.1-1.5,0-2.3c-0.7-5-1.3-10-1.9-14.9c-0.6-4.4-1.1-8.9-1.8-13.3c0-0.3-0.1-0.6-0.3-0.8c-0.2,0-0.4,0-0.7,0
				c-0.5,0.6-0.1,1.3-0.1,1.9c0.4,3.7,0.9,7.3,1.4,11s1,7.5,1.5,11.2c0.3,2.1,0.5,4.3,0.9,6.4C38.4,37.4,38.4,37.7,38.7,37.9z
				 M52,6.6c-0.2,0-0.3,0-0.5,0c-0.6,0.9-0.1,1.8,0,2.7c0.7,5.6,1.4,11.1,2.2,16.7c0.5,3.5,0.9,7,1.4,10.6c0.1,0.5,0.1,1,0.5,1.3
				c0.2,0,0.4,0,0.7,0c0.4-1.3-0.1-2.6-0.2-3.8c-0.6-4.4-1.1-8.8-1.7-13.2c-0.6-4.5-1.2-8.9-1.8-13.4C52.5,7.2,52.4,6.8,52,6.6z
				 M31.8,37.9c0.1,0,0.3,0,0.4,0c0.4-0.4,0.3-1,0.2-1.5c0-0.1,0-0.2,0-0.3c-0.2-0.5-0.1-1-0.2-1.5c0-0.1,0-0.2-0.1-0.3
				C32,33.9,32,33.4,31.9,33c0-0.1,0-0.2-0.1-0.3c-0.1-0.5-0.1-1-0.2-1.5c0-0.1,0-0.2-0.1-0.3c-0.2-0.5-0.1-1-0.2-1.5
				c0-0.1,0-0.2-0.1-0.3c-0.1-0.4-0.1-0.9-0.2-1.3c0-0.1,0-0.2-0.1-0.3c-0.1-0.5-0.1-1-0.2-1.5c0-0.1,0-0.2-0.1-0.3
				c-0.2-0.5-0.1-1-0.2-1.5c0-0.1,0-0.2-0.1-0.3c-0.1-0.4-0.1-0.9-0.2-1.3c0-0.1,0-0.2-0.1-0.3c-0.1-0.5-0.1-1-0.2-1.5
				c0-0.1,0-0.2-0.1-0.3c-0.2-0.5-0.1-1-0.2-1.5c0-0.1,0-0.2-0.1-0.3c-0.1-0.4-0.1-0.9-0.2-1.4c0-0.1,0-0.2-0.1-0.3
				c-0.1-0.6-0.1-1.1-0.2-1.7c-0.3-2.6-0.7-5.2-1-7.9c0-0.4-0.1-0.8-0.5-1.1c-0.1,0-0.3,0-0.4,0c-0.2,0.2-0.2,0.5-0.2,0.8
				c0.5,3.5,0.9,7.1,1.4,10.6c0.6,4.4,1.2,8.7,1.7,13.1c0.2,1.9,0.5,3.8,0.7,5.7C31.5,37.3,31.5,37.6,31.8,37.9z M55.6,37.9
				c-0.2-2-0.5-4.1-0.7-6.1c-0.3-2.7-0.7-5.3-1-8c-0.3-2.5-0.7-4.9-1-7.4c-0.3-2.6-0.7-5.2-1-7.7c-0.1-0.7-0.2-1.4-0.2-2.1
				c-0.2,0-0.4,0-0.7,0c-0.3,0.7-0.1,1.5,0,2.2c0.4,3.2,0.8,6.4,1.2,9.5c0.4,3,0.8,5.9,1.2,8.9c0.4,3.2,0.8,6.4,1.3,9.7
				c0.1,0.4,0,0.7,0.3,1C55.1,37.9,55.4,37.9,55.6,37.9z M46,37.9c-0.1-2.8-0.7-5.6-1-8.4c-0.3-2.6-0.7-5.2-1-7.7s-0.6-5-1-7.5
				c-0.3-2.1-0.5-4.1-0.8-6.2c-0.1-0.5-0.1-0.9-0.2-1.4c-0.1,0-0.3,0-0.4,0c-0.3,0.4-0.2,0.8-0.1,1.3c0.7,4.9,1.3,9.8,1.9,14.7
				c0.6,4.2,1,8.3,1.7,12.5c0.1,0.9,0,1.9,0.5,2.8C45.7,37.9,45.9,37.9,46,37.9z M52,6.6c0.4,1.4,0.4,2.8,0.6,4.2
				c0.4,2.6,0.7,5.2,1.1,7.9c0.3,2.6,0.6,5.2,1,7.8c0.3,2.5,0.6,4.9,1,7.4c0.2,1.3,0.4,2.7,0.6,4c0.1,0,0.3,0,0.4,0
				c0.3-0.3,0.3-0.7,0.2-1C56,29.9,55.1,23,54.1,16c-0.4-2.8-0.7-5.6-1.1-8.4c-0.1-0.3-0.1-0.7-0.3-0.9C52.5,6.6,52.3,6.6,52,6.6z
				 M58,37.9c-0.1-2.9-0.7-5.8-1-8.6c-0.3-2.6-0.7-5.2-1-7.8c-0.4-3.1-0.8-6.2-1.2-9.3c-0.2-1.9-0.6-3.7-0.6-5.6c-0.2,0-0.4,0-0.7,0
				c-0.5,0.7-0.1,1.4,0,2c0.4,3,0.8,6,1.2,9c0.4,3.2,0.8,6.4,1.2,9.7s0.8,6.5,1.3,9.8c0,0.3,0.1,0.6,0.3,0.8
				C57.7,37.9,57.9,37.9,58,37.9z M34.9,35.8c0,0.1,0,0.1,0,0.2c0.3,0.5-0.1,1.1,0.2,1.6c0,0.1,0,0.3,0,0.4c0.1,0,0.3,0,0.4,0
				c0.3-0.4,0.2-0.8,0.1-1.3c-0.7-4.9-1.3-9.8-1.9-14.7c-0.6-4.3-1.1-8.6-1.7-12.8c-0.1-0.8-0.1-1.7-0.5-2.5c-0.2,0-0.4,0-0.7,0
				c0.2,1.4,0.5,2.8,0.7,4.2c0.4,3.2,0.9,6.5,1.3,9.7c0.3,2.6,0.6,5.2,0.9,7.8c0,0.3,0.1,0.7,0.2,1c0.3,0.4-0.1,0.9,0.2,1.3
				c0,0.1,0,0.1,0,0.2c0.3,0.5-0.1,1.1,0.2,1.6c0,0.1,0,0.1,0,0.2c0.3,0.5-0.1,1.1,0.2,1.6c0,0.1,0,0.1,0,0.2
				C35,34.8,34.6,35.3,34.9,35.8z M52.7,6.6c0.3,2,0.5,4.1,0.8,6.1c0.3,2.7,0.7,5.3,1,8c0.3,2.5,0.7,4.9,1,7.4
				c0.3,2.6,0.7,5.2,1,7.7c0.1,0.7,0.2,1.4,0.2,2.1c0.1,0,0.3,0,0.4,0c0.5-1.1,0-2.1-0.1-3.1c-0.7-5.6-1.4-11.1-2.1-16.7
				c-0.4-3.5-0.9-7-1.4-10.4c0-0.4-0.1-0.7-0.4-1C53,6.6,52.8,6.6,52.7,6.6z M49.4,6.6c0.3,2.1,0.6,4.2,0.9,6.3
				c0.3,2.5,0.7,5.1,1,7.6c0.3,2.6,0.7,5.2,1,7.8c0.3,2.5,0.6,5.1,1,7.6c0.1,0.6-0.1,1.3,0.3,1.9c0.2,0,0.3,0,0.5,0
				c0.3-0.3,0.2-0.7,0.2-1c-0.8-5.6-1.5-11.3-2.2-16.9c-0.6-4.1-1-8.3-1.6-12.4c0-0.3,0-0.7-0.3-0.9C49.8,6.6,49.6,6.6,49.4,6.6z
				 M60.4,36.6c0-1.2,0-2.4,0-3.6c-0.3-4.1-0.9-8.2-1.5-12.3C58.4,17,58,13.3,57.4,9.6c-0.2-1-0.1-2.1-0.6-3c-0.2,0-0.4,0-0.7,0
				c-0.3,0.5-0.1,1-0.1,1.5c0.4,3.1,0.8,6.1,1.2,9.2c0.5,3.7,1,7.4,1.5,11.2c0.3,2.4,0.7,4.8,0.9,7.2C59.8,36.2,59.9,36.6,60.4,36.6
				z M54.7,6.6c0.5,2,0.6,4,0.9,6c0.5,3.8,1,7.6,1.5,11.3c0.4,3.1,0.8,6.1,1.2,9.2c0.2,1.6,0.4,3.2,0.7,4.8c0.1,0,0.3,0,0.4,0
				c0.4-0.6,0.1-1.2,0-1.8c-0.5-3.7-1-7.3-1.4-11c-0.5-3.8-1-7.6-1.5-11.4c-0.3-2.1-0.5-4.2-0.8-6.3c0-0.3-0.1-0.6-0.3-0.8
				C55.1,6.6,54.9,6.6,54.7,6.6z M40.2,37.9c-0.2-2.1-0.5-4.2-0.7-6.2c-0.3-2.6-0.7-5.2-1.1-7.8c-0.4-3.2-0.9-6.5-1.3-9.7
				c-0.3-2.5-0.6-5-0.9-7.5c-0.1,0-0.3,0-0.4,0c-0.6,1.1,0,2.1,0.1,3.1c0.5,4,1.1,7.9,1.5,11.9c0,0.3,0.2,0.6,0.2,1
				c0.1,0.4,0.2,0.8,0.2,1.3c0,0.1,0,0.2,0,0.3c0.1,0.5,0.1,1,0.2,1.4c0,0.1,0,0.2,0,0.3c0.1,0.5,0.1,1,0.2,1.4c0,0.1,0,0.2,0,0.3
				c0.1,0.4,0.2,0.8,0.2,1.3c0,0.1,0,0.2,0,0.3c0.1,0.5,0.1,1,0.2,1.4c0,0.1,0,0.2,0,0.3c0.1,0.5,0.1,1,0.2,1.4c0,0.1,0,0.2,0,0.3
				c0.1,0.4,0.2,0.8,0.2,1.3c0,0.1,0,0.2,0,0.3c0.1,0.5,0.1,1,0.2,1.4c0,0.1,0,0.2,0,0.3c0.2,0.5,0.1,1,0.2,1.4
				c0,0.1,0.1,0.2,0.2,0.3C39.9,37.9,40.1,37.9,40.2,37.9z M45.8,6.6c0.3,2.6,0.6,5.3,1,7.9c0.1,0.7-0.1,1.4,0.3,2
				c0.3,0.5-0.1,1.1,0.2,1.6c0.3,0.6-0.1,1.2,0.2,1.8c0.3,0.6-0.1,1.2,0.2,1.8c0.3,0.5-0.1,1.1,0.2,1.6c0.3,0.6-0.1,1.2,0.2,1.8
				c0.3,0.6-0.1,1.2,0.2,1.8c0.3,0.5-0.1,1.1,0.2,1.6c0.3,0.6-0.1,1.2,0.2,1.8c0.3,0.6-0.1,1.2,0.2,1.8c0.3,0.5-0.1,1.1,0.2,1.6
				c0.3,0.6-0.1,1.2,0.2,1.8c0.3,0.6-0.1,1.2,0.2,1.8c0,0.3,0,0.6,0,0.9c0.2,0,0.4,0,0.7,0c0.1-0.1,0.2-0.3,0.1-0.5
				c-0.1-0.5-0.1-1-0.1-1.5c0-0.1,0-0.2-0.1-0.3c-0.2-0.5-0.1-1-0.2-1.4c0-0.1,0-0.2-0.1-0.3c-0.2-0.4-0.1-0.8-0.2-1.3
				c0-0.1,0-0.2-0.1-0.3c-0.2-0.5-0.1-1-0.2-1.4c0-0.1,0-0.2-0.1-0.3c-0.2-0.5-0.1-1-0.2-1.4c0-0.1,0-0.2-0.1-0.3
				c-0.2-0.4-0.1-0.8-0.2-1.3c0-0.1,0-0.2-0.1-0.3c-0.2-0.5-0.1-1-0.2-1.4c0-0.1,0-0.2-0.1-0.3c-0.2-0.5-0.1-1-0.2-1.5
				c0-0.1,0-0.2-0.1-0.3c-0.2-0.4-0.1-0.9-0.2-1.4c0-0.1,0-0.2-0.1-0.4c-0.6-4.8-1.2-9.7-1.9-14.5c0-0.3-0.1-0.6-0.3-0.8
				C46.2,6.6,46,6.6,45.8,6.6z M28.2,6.6c0.3,2.2,0.6,4.4,0.9,6.5c0.1,0.9,0,1.8,0.4,2.6c0.3,0.6-0.1,1.2,0.2,1.8
				c0.3,0.5-0.1,1.1,0.2,1.6c0.3,0.6-0.1,1.2,0.2,1.8c0.3,0.6-0.1,1.2,0.2,1.8c0.3,0.5-0.1,1.1,0.2,1.6c0.3,0.6-0.1,1.2,0.2,1.8
				c0.3,0.6-0.1,1.2,0.2,1.8c0.3,0.5-0.1,1.1,0.2,1.6c0.3,0.6-0.1,1.2,0.2,1.8c0.3,0.6-0.1,1.2,0.2,1.8l0,0c0.3,0.5-0.1,1.1,0.2,1.6
				l0,0c0.3,0.6-0.1,1.2,0.2,1.8l0,0c0.3,0.6-0.1,1.2,0.2,1.7c0.1,0,0.3,0,0.4,0C32.3,36.1,32,34,31.8,32c-0.3-2.6-0.7-5.2-1.1-7.8
				c-0.4-3.2-0.9-6.5-1.3-9.7c-0.3-2.5-0.6-5-0.9-7.5C28.7,6.6,28.4,6.6,28.2,6.6z M38.5,27.7c0-0.1,0-0.1,0-0.2
				c-0.3-0.5,0.1-1.1-0.2-1.6c0-0.1,0-0.1,0-0.2c-0.3-0.5,0.1-1.1-0.2-1.6c0-0.1,0-0.1,0-0.2c-0.3-0.4,0.1-0.9-0.2-1.3
				c-0.3-2.1-0.5-4.3-0.8-6.4c-0.2-1.9-0.5-3.8-0.8-5.7c-0.2-1.3-0.4-2.6-0.4-3.9c-0.1,0-0.3,0-0.4,0c0.1,2.2,0.5,4.4,0.8,6.6
				c0.3,2.7,0.7,5.3,1,8c0.3,2.5,0.7,5,1,7.5c0.3,2.6,0.7,5.2,1,7.7c0.1,0.5,0.1,1,0.2,1.5c0.1,0,0.3,0,0.4,0c0-0.1,0-0.1,0-0.2
				c-0.3-0.5,0.1-1.1-0.2-1.6c0-0.1,0-0.1,0-0.2c-0.3-0.5,0.1-1.1-0.2-1.6c0-0.1,0-0.1,0-0.2c-0.3-0.4,0.1-0.9-0.2-1.3
				c0-0.1,0-0.1,0-0.2c-0.3-0.5,0.1-1.1-0.2-1.6c0-0.1,0-0.1,0-0.2c-0.3-0.5,0.1-1.1-0.2-1.6c0-0.1,0-0.1,0-0.2
				C38.4,28.7,38.7,28.2,38.5,27.7z M38.9,6.6c0.4,1.5,0.4,3,0.6,4.5c0.4,2.6,0.7,5.2,1.1,7.9c0.3,2.6,0.6,5.2,1,7.8
				c0.3,2.5,0.6,5,1,7.4c0.2,1.3,0.2,2.6,0.6,3.8c0.1,0,0.2,0,0.2,0c0.7-1.1,0.1-2.3,0-3.3c-0.5-3.8-0.9-7.5-1.5-11.3
				c-0.6-4.3-1.1-8.6-1.7-13c-0.1-0.8-0.3-1.7-0.3-2.5c0-0.5-0.1-0.9-0.5-1.2C39.2,6.6,39.1,6.6,38.9,6.6z M54.9,37.9
				c-0.1-2.9-0.7-5.7-1-8.5c-0.3-2.6-0.7-5.2-1-7.7s-0.6-5-0.9-7.5c-0.3-2.1-0.6-4.3-0.8-6.4c0-0.4-0.1-0.7-0.2-1.1
				c-0.1,0-0.1,0-0.2,0c-0.4,0.5-0.3,1-0.2,1.6c0.5,3.8,1,7.7,1.5,11.5c0.6,4.7,1.2,9.4,1.9,14.2c0.1,0.9,0.2,1.8,0.3,2.7
				C54.4,37.2,54.4,37.7,54.9,37.9C54.8,37.9,54.8,37.9,54.9,37.9z M60.4,36.6c-0.7-0.7-0.4-1.7-0.6-2.5c-0.6-3.7-0.9-7.4-1.4-11.1
				c-0.4-3.1-0.9-6.2-1.3-9.3c-0.3-2-0.5-4-0.7-6c0-0.4-0.1-0.7-0.2-1.1c-0.1,0-0.1,0-0.2,0c-0.7,1-0.1,2,0,3
				c0.5,3.9,1,7.8,1.5,11.7c0.6,4.2,1.1,8.3,1.6,12.5c0.1,0.9,0.3,1.8,0.3,2.7c0,0.5,0.1,1,0.5,1.3C61,37.7,60.3,37.1,60.4,36.6z
				 M56.9,6.6c0.1,2.1,0.5,4.2,0.7,6.3c0.3,2.7,0.7,5.4,1,8.1c0.4,3.1,0.8,6.2,1.2,9.4c0.1,0.9,0,1.8,0.5,2.7c0-1.3,0-2.5,0-3.8
				c-0.3-2.8-0.6-5.6-1-8.3c-0.4-3.1-0.8-6.3-1.2-9.4c-0.2-1.4-0.3-2.7-0.6-4.1c-0.1-0.3-0.1-0.6-0.3-0.8
				C57.2,6.6,57.1,6.6,56.9,6.6z M40.2,6.6c-0.1,0-0.3,0-0.4,0c-0.3,1.3,0.1,2.5,0.3,3.7c1.2,8.8,2.3,17.6,3.4,26.3
				c0.1,0.4,0,0.9,0.3,1.3c0.1,0,0.3,0,0.4,0c0.2-1.2-0.1-2.3-0.3-3.4c-0.7-5.6-1.4-11.2-2.2-16.8c-0.5-3.5-0.9-7.1-1.4-10.6
				C40.4,7,40.4,6.8,40.2,6.6z M51.1,37.9c-0.2-2.1-0.5-4.2-0.8-6.3c-0.3-2.7-0.7-5.3-1-8c-0.3-2.5-0.7-4.9-1-7.4
				c-0.3-2.6-0.7-5.2-1-7.7c-0.1-0.6-0.1-1.2-0.2-1.9c-0.1,0-0.3,0-0.4,0c-0.1,1.5,0.3,3,0.5,4.5c0.4,3.2,0.8,6.4,1.2,9.5
				c0.2,0.5,0,1.1,0.2,1.6c0,0.1,0,0.2,0,0.3c0.1,0.4,0.1,0.9,0.2,1.3c0,0.1,0,0.2,0,0.3c0.1,0.5,0,1,0.2,1.4c0,0.1,0,0.2,0,0.3
				c0.1,0.5,0,1,0.2,1.4c0,0.1,0,0.2,0,0.3c0.1,0.4,0.1,0.9,0.2,1.3c0,0.1,0,0.2,0,0.3c0.1,0.5,0,1,0.2,1.4c0,0.1,0,0.2,0,0.3
				c0.1,0.5,0,1,0.2,1.4c0,0.1,0,0.2,0,0.3c0.1,0.4,0.1,0.9,0.2,1.3c0,0.1,0,0.2,0,0.3c0.1,0.5,0,1,0.2,1.5c0,0.1,0,0.2,0.1,0.3
				c0.1,0.6,0,1.1,0.3,1.7C50.8,37.9,51,37.9,51.1,37.9z M31.6,6.6c0.4,3.2,0.9,6.3,1.3,9.5c0.3,2.6,0.6,5.2,0.9,7.8
				c0.3,2.5,0.7,4.9,1,7.4c0.3,2.2,0.5,4.4,0.8,6.7c0.1,0,0.3,0,0.4,0c-0.3-2.6-0.7-5.2-1-7.7c-0.3-2.6-0.7-5.2-1-7.7
				s-0.7-5.1-1-7.6c-0.3-2.7-0.7-5.5-1-8.2C31.9,6.6,31.7,6.6,31.6,6.6z M53.1,6.6c0.3,2,0.6,4.1,0.9,6.1c0.3,2.7,0.6,5.3,1,8
				c0.3,2.6,0.7,5.2,1,7.8c0.4,2.6,0.7,5.2,1.1,7.8c0.1,0.5,0,1,0,1.5c0.1,0,0.3,0,0.4,0c-0.2-2.1-0.5-4.2-0.7-6.2
				c-0.3-2.6-0.7-5.2-1.1-7.8c-0.4-3.2-0.9-6.5-1.3-9.7c-0.3-2.5-0.6-5-0.9-7.5C53.4,6.6,53.3,6.6,53.1,6.6z M43.6,6.6
				c0.3,2.1,0.6,4.2,0.9,6.3c0.3,2.5,0.7,5.1,1,7.6c0.3,2.6,0.6,5.2,1,7.9c0.4,3.2,0.7,6.3,1.3,9.5c0.1,0,0.2,0,0.2,0
				c0.3-1.3-0.1-2.6-0.3-3.8c-1-8-2.1-16.1-3.2-24.1c-0.2-1.1-0.1-2.3-0.6-3.3C43.9,6.6,43.7,6.6,43.6,6.6z M34,6.6
				c-0.1,0-0.3,0-0.4,0c-0.4,0.7,0,1.5,0,2.2c1.2,9.3,2.4,18.6,3.6,27.9c0.1,0.4,0,0.9,0.3,1.3c0.1,0,0.3,0,0.4,0
				c0.4-1.3-0.1-2.5-0.2-3.7c-0.6-5-1.3-10.1-2-15.1c-0.5-3.9-1-7.8-1.5-11.7C34.3,7.1,34.2,6.8,34,6.6z M31.8,37.9
				c-0.5-4-1-8.1-1.6-12.1c-0.5-3.7-1.1-7.3-1.5-11c-0.3-2.7-0.8-5.4-1-8.2c-0.1,0-0.3,0-0.4,0c0.3,2.6,0.6,5.2,1,7.9
				c0.3,2.6,0.7,5.2,1,7.7c0.5,3.7,1,7.5,1.5,11.2c0.2,1.5,0.3,3,0.5,4.5C31.5,37.9,31.6,37.9,31.8,37.9z M41.3,37.9
				c0.1,0,0.2,0,0.2,0c0.7-1,0.1-2.1,0-3.1c-0.5-3.7-0.9-7.4-1.4-11.1c-0.6-4.4-1.1-8.8-1.7-13.3c-0.1-0.8-0.2-1.6-0.3-2.4
				c0-0.5-0.1-1-0.5-1.4c-0.1,0-0.3,0-0.4,0c0,2.3,0.5,4.5,0.8,6.8c0.5,4.4,1.1,8.8,1.7,13.1c0.5,3.5,0.9,7.1,1.4,10.6
				C41,37.5,41,37.8,41.3,37.9z M22.9,6.6c0,2.2,0.5,4.3,0.7,6.4c0.3,2.6,0.7,5.2,1,7.8c0.4,3.2,0.9,6.5,1.3,9.7
				c0.3,2.4,0.6,4.9,0.9,7.3c0.1,0,0.3,0,0.4,0c0.3-1.2,0-2.3-0.2-3.4c-0.9-6.5-1.7-13-2.6-19.5c-0.3-2.5-0.7-5-0.9-7.5
				C23.5,7,23.4,6.7,22.9,6.6C23,6.6,23,6.6,22.9,6.6z M42.5,37.9c-0.3-2.1-0.6-4.2-0.9-6.3c-0.4-2.6-0.7-5.2-1-7.7s-0.6-5.1-1-7.6
				c-0.3-2.5-0.6-5.1-1-7.6c-0.1-0.7-0.1-1.3-0.1-2c-0.1,0-0.3,0-0.4,0C37.8,7,37.9,7.4,38,7.8c1.3,9.7,2.5,19.3,3.8,29
				c0.1,0.4,0,0.9,0.3,1.3C42.2,37.9,42.3,37.9,42.5,37.9z M27.6,37.9c0.1,0,0.3,0,0.4,0c0.3-1.3-0.1-2.5-0.3-3.7
				c-1.2-8.8-2.3-17.5-3.4-26.3c-0.1-0.4,0-0.9-0.3-1.3c-0.1,0-0.3,0-0.4,0c-0.1,1.8,0.3,3.6,0.5,5.4c0.5,4.4,1.1,8.8,1.7,13.3
				c0.5,4.1,1.1,8.2,1.6,12.3C27.4,37.7,27.5,37.8,27.6,37.9z M45.6,37.9c-0.4-3.2-0.9-6.3-1.3-9.5c-0.3-2.6-0.6-5.2-0.9-7.8
				c-0.3-2.5-0.7-4.9-1-7.4c-0.3-2.2-0.5-4.4-0.8-6.7c-0.1,0-0.3,0-0.4,0c0.3,2.6,0.7,5.2,1,7.7c0.3,2.6,0.7,5.2,1,7.7
				s0.7,5.1,1,7.6c0.3,2.7,0.7,5.5,1,8.2C45.3,37.9,45.4,37.9,45.6,37.9z M25.6,37.9c0.1,0,0.3,0,0.4,0c-0.1-2.2-0.5-4.4-0.8-6.6
				c-0.5-4.4-1.1-8.7-1.7-13.1c-0.4-3.6-1-7.2-1.4-10.8c0-0.3-0.1-0.7-0.4-0.9c-0.1,0-0.1,0-0.2,0c-0.7,1.1-0.1,2.2,0,3.2
				c0.4,3.3,0.8,6.6,1.3,9.9c0.6,4.2,1.1,8.4,1.7,12.6c0.2,1.4,0.4,2.9,0.5,4.3C25.1,37.1,25.2,37.6,25.6,37.9z M27.6,37.9
				c-0.1-2.2-0.5-4.4-0.8-6.6c-0.3-2.7-0.7-5.3-1-8c-0.3-2.5-0.7-5-1-7.5c-0.3-2.6-0.7-5.2-1-7.7c-0.1-0.5-0.1-1-0.2-1.5
				c-0.1,0-0.3,0-0.4,0c0.4,1.5,0.4,3,0.7,4.6c0.5,3.7,1,7.4,1.5,11.1c0.3,2.6,0.6,5.2,1,7.8C26.7,32.7,27.1,35.3,27.6,37.9
				C27.4,37.9,27.5,37.9,27.6,37.9z M21.8,6.6c0.3,2.1,0.6,4.2,0.9,6.3c0.4,3.2,0.8,6.3,1.2,9.5c0.3,2.6,0.6,5.2,1,7.8
				s0.5,5.2,1.1,7.7c0.1,0,0.2,0,0.2,0c-0.2-2.1-0.5-4.2-0.8-6.3c-0.3-2.7-0.7-5.3-1-8c-0.4-3-0.8-6-1.2-9.1
				c-0.3-2.7-0.7-5.3-1.1-7.9C22.1,6.6,21.9,6.6,21.8,6.6z M40.2,6.6c0.1,2.2,0.5,4.4,0.8,6.6c0.3,2.7,0.7,5.3,1,8
				c0.4,3.1,0.8,6.2,1.2,9.3c0.3,2,0.5,3.9,0.8,5.9c0.1,0.5,0.1,1.1,0.2,1.6c0.1,0,0.3,0,0.4,0c-0.2-1.4-0.5-2.9-0.7-4.3
				c-0.4-2.7-0.7-5.3-1-8c-0.3-2.5-0.6-5-1-7.5c-0.5-3.8-1-7.6-1.6-11.5C40.4,6.6,40.3,6.6,40.2,6.6z M38.7,37.9
				c-0.2-2.1-0.5-4.2-0.8-6.3c-0.3-2.7-0.7-5.3-1-8c-0.3-2.5-0.7-4.9-1-7.4c-0.3-2.6-0.7-5.2-1-7.7c-0.1-0.6-0.1-1.2-0.2-1.9
				c-0.1,0-0.3,0-0.4,0c-0.1,1.7,0.3,3.4,0.5,5.1c0.5,4.4,1.1,8.8,1.7,13.3c0.5,3.7,0.9,7.3,1.5,11c0.1,0.6-0.2,1.4,0.5,1.9
				C38.5,37.9,38.6,37.9,38.7,37.9z M38.5,37.9c-0.4-1.4-0.4-2.8-0.6-4.2c-0.4-2.6-0.7-5.2-1.1-7.9c-0.3-2.6-0.6-5.2-1-7.8
				c-0.3-2.5-0.6-4.9-1-7.4c-0.2-1.3-0.4-2.7-0.6-4c-0.1,0-0.1,0-0.2,0c0,2.3,0.5,4.4,0.7,6.7c0.3,2.6,0.7,5.2,1,7.8
				c0.5,3.7,1,7.5,1.5,11.2c0.2,1.9,0.4,3.7,0.7,5.6C38.2,37.9,38.3,37.9,38.5,37.9z M20,6.6c0.2,1.4,0.5,2.9,0.7,4.3
				c0.4,3.1,0.8,6.3,1.2,9.4c0.3,2.6,0.7,5.2,1,7.8c0.3,2.5,0.6,5.1,1,7.6c0.1,0.7,0,1.5,0.3,2.2c0.1,0,0.1,0,0.2,0
				c0.7-1.1,0.1-2.2,0-3.2c-0.4-3.8-1-7.6-1.5-11.4c-0.4-3-0.8-6.1-1.2-9.1c-0.3-2-0.6-4.1-0.8-6.1c-0.1-0.5-0.1-1-0.5-1.4
				C20.3,6.6,20.1,6.6,20,6.6z M41.3,37.9c-0.2-1.4-0.5-2.9-0.7-4.3c-0.4-2.7-0.7-5.3-1-8c-0.3-2.5-0.6-5-1-7.5
				c-0.5-3.8-1-7.6-1.6-11.5c-0.1,0-0.1,0-0.2,0c0.1,2.2,0.5,4.4,0.8,6.6c0.3,2.7,0.7,5.3,1,8c0.3,2.5,0.7,5,1,7.5
				c0.3,2.6,0.7,5.2,1,7.7c0.1,0.5,0.1,1,0.2,1.5C41,37.9,41.2,37.9,41.3,37.9z M34.2,37.9c0.1-1.5-0.3-3-0.5-4.5
				c-0.1-1.5-0.4-2.9-0.6-4.4c-0.3-2-0.6-4.1-0.8-6.1c-0.3-2-0.5-4-0.7-6c-0.2-1.3-0.4-2.6-0.5-4c-0.2-1.5-0.4-2.9-0.6-4.4
				c-0.1-0.6-0.2-1.2-0.3-1.8c-0.1,0-0.3,0-0.4,0c-0.3,0.4,0,0.7,0,1.1C30,8.1,30,8.5,30,8.9c0,0.2,0,0.3,0,0.5
				c0.1,0.4,0.2,0.8,0.2,1.3c0,0.2,0,0.3,0,0.5c0.1,0.4,0.2,0.8,0.2,1.3c0,0.2,0,0.3,0,0.5c0.1,0.4,0.2,0.7,0.2,1.1
				c0,0.2,0,0.3,0,0.5c0.1,0.4,0.2,0.8,0.2,1.3c0,0.2,0,0.3,0,0.5c0.1,0.4,0.2,0.8,0.2,1.3c0,0.2,0,0.3,0,0.5
				c0.1,0.4,0.2,0.7,0.2,1.1c0,0.2,0,0.3,0,0.5c0.1,0.4,0.2,0.9,0.2,1.3c0,0.2,0,0.3,0,0.5c0.2,0.5,0.2,0.9,0.2,1.4
				c0.6,5.1,1.2,10.1,2,15.1C33.9,37.9,34.1,37.9,34.2,37.9z M25.6,37.9c-0.5-3.9-1-7.8-1.6-11.8c-0.5-3.7-1.1-7.4-1.5-11.1
				c-0.3-2.8-0.9-5.6-1-8.4c-0.1,0-0.3,0-0.4,0C20.6,7.3,21,8,21,8.6c1.2,9.2,2.4,18.5,3.6,27.7c0.1,0.5,0,1.1,0.4,1.6
				C25.3,37.9,25.4,37.9,25.6,37.9z M43.8,37.9c-0.3-2.7-0.7-5.3-1-8c-0.3-2.5-0.7-5.1-1-7.6c-0.3-2.6-0.7-5.2-1-7.7
				c-0.3-2.7-0.7-5.3-1-8c-0.1,0-0.3,0-0.4,0c0.3,2.1,0.6,4.3,0.9,6.4c0.4,2.6,0.7,5.2,1,7.8c0.3,2.5,0.6,5.1,1,7.6
				c0.3,2.6,0.7,5.2,1.1,7.8c0.1,0.5,0,1,0.1,1.5C43.5,37.9,43.6,37.9,43.8,37.9z M37.6,37.9c-0.4-3.2-0.9-6.5-1.3-9.7
				c-0.4-3.1-0.8-6.3-1.2-9.4s-0.8-6.2-1.3-9.3c-0.1-1-0.2-2-0.3-3c-0.1,0-0.3,0-0.4,0c0.5,4,1,8.1,1.6,12.1c0.5,3.7,1.1,7.3,1.5,11
				c0.3,2.7,0.8,5.4,1,8.2C37.3,37.9,37.4,37.9,37.6,37.9z M50,6.6c0.1,2.8,0.7,5.5,1,8.2c0.3,2.6,0.7,5.2,1,7.7
				c0.4,3.1,0.8,6.3,1.2,9.4c0.3,2,0.5,4,0.8,6c0.1,0,0.3,0,0.4,0c-0.3-3.4-0.8-6.7-1.3-10.1c-0.5-3.7-1-7.4-1.5-11.1
				c-0.4-3.1-0.9-6.2-1.2-9.3C50.4,7.1,50.3,6.8,50,6.6C50.2,6.6,50.1,6.6,50,6.6z M20.4,6.6c0.5,4,1,8.1,1.6,12.1
				c0.6,4.2,1.2,8.3,1.7,12.5c0.3,2.2,0.7,4.4,0.7,6.7c0.1,0,0.3,0,0.4,0c0.4-0.8-0.1-1.6-0.2-2.4c-0.5-3.7-1-7.3-1.5-11
				c-0.4-3.1-0.8-6.2-1.2-9.4c-0.4-2.9-0.7-5.7-1.2-8.6C20.7,6.6,20.6,6.6,20.4,6.6z M24,6.6c0.3,2.6,0.6,5.2,1,7.9
				c0.3,2.6,0.7,5.2,1,7.7c0.5,3.7,1,7.5,1.5,11.2c0.2,1.5,0.3,3,0.5,4.5c0.1,0,0.3,0,0.4,0c-0.3-2.1-0.6-4.2-0.9-6.3
				c-0.4-3.1-0.8-6.3-1.2-9.4c-0.3-2.5-0.7-5.1-1-7.6c-0.3-2.1-0.6-4.3-0.8-6.4c-0.1-0.5,0-1-0.1-1.5C24.3,6.6,24.1,6.6,24,6.6z
				 M42,37.9c-0.4-3.2-0.9-6.3-1.3-9.5c-0.3-2.6-0.6-5.2-0.9-7.8c-0.3-2.5-0.7-4.9-1-7.4C38.5,11,38.3,8.8,38,6.5
				c-0.1,0-0.3,0-0.4,0c0.4,3.2,0.9,6.3,1.3,9.5c0.4,3.1,0.8,6.3,1.2,9.4s0.9,6.2,1.3,9.3c0.1,1.1,0.2,2.1,0.3,3.2
				C41.7,37.9,41.9,37.9,42,37.9z M44,6.6c0.4,3.2,0.9,6.3,1.3,9.5c0.3,2.6,0.6,5.2,0.9,7.8c0.3,2.5,0.7,4.9,1,7.4
				c0.3,2.2,0.5,4.4,0.8,6.7c0.1,0,0.3,0,0.4,0c-0.2-1.7-0.4-3.3-0.7-5c-0.3-2.5-0.7-5.1-1-7.6c-0.3-2.6-0.7-5.2-1-7.7s-0.6-5-1-7.5
				c-0.1-1.1-0.4-2.2-0.4-3.4C44.3,6.6,44.2,6.6,44,6.6z M31.1,16.2c0-0.1,0-0.3,0-0.4c-0.3-0.4,0.1-0.9-0.2-1.3c0-0.1,0-0.3,0-0.4
				c-0.3-0.3,0-0.8-0.2-1.1c0-0.1,0-0.3,0-0.4c-0.3-0.4,0.1-0.9-0.2-1.3c0-0.1,0-0.3,0-0.4c-0.3-0.4,0.1-0.9-0.2-1.3
				c0-0.1,0-0.3,0-0.4c-0.3-0.3,0-0.8-0.2-1.1C30,7.7,30,7.4,29.9,7c-0.1,0-0.1,0-0.2,0c0.1,2.2,0.5,4.4,0.8,6.6
				c0.3,2.7,0.7,5.3,1,8c0.4,3.1,0.8,6.2,1.2,9.3c0.3,2,0.5,3.9,0.8,5.9c0.1,0.5,0.1,1.1,0.2,1.6c0.1,0,0.1,0,0.2,0
				c0-2.3-0.6-4.6-0.8-6.9c-0.3-2.8-0.8-5.6-1-8.4c-0.3-0.4,0.1-0.9-0.2-1.3c0-0.1,0-0.3,0-0.4c-0.3-0.4,0.1-0.9-0.2-1.3
				c0-0.1,0-0.3,0-0.4c-0.3-0.3,0-0.8-0.2-1.1c0-0.1,0-0.3,0-0.4C31,17.1,31.4,16.6,31.1,16.2z M60,37.9c-0.5-4-1-8.1-1.6-12.1
				c-0.6-4.2-1.2-8.3-1.7-12.5C56.4,11.1,56,8.9,56,6.6c-0.1,0-0.3,0-0.4,0c-0.1,1.6,0.3,3.1,0.5,4.7c0.7,5.4,1.4,10.8,2.1,16.2
				c0.5,3.5,0.8,6.9,1.4,10.4C59.7,37.9,59.9,37.9,60,37.9z M59.6,37.9c-0.2-3.2-0.7-6.3-1.1-9.4c-0.9-7.3-1.9-14.6-2.9-21.9
				c-0.1,0-0.1,0-0.2,0c0.2,2.1,0.5,4.2,0.8,6.3c0.3,2.7,0.7,5.3,1,8c0.3,2.5,0.7,4.9,1,7.4c0.3,2.7,0.7,5.4,1,8.1
				c0.1,0.5,0.1,1,0.2,1.5C59.4,37.9,59.5,37.9,59.6,37.9z M60.4,23.7c-0.6-0.9-0.5-2.1-0.6-3.1c-0.6-3.8-1-7.7-1.5-11.6
				c-0.1-0.8-0.2-1.6-0.3-2.4c-0.1,0-0.3,0-0.4,0c-0.2,1.5,0.3,2.8,0.4,4.3c0.6,4.9,1.3,9.9,1.9,14.8c0.1,0.5-0.1,1.2,0.5,1.6
				C60.4,26.1,60.4,24.9,60.4,23.7z M50.2,6.6c0.3,2.1,0.6,4.2,0.9,6.3c0.3,2.5,0.7,5.1,1,7.6c0.3,2.6,0.6,5.2,1,7.9
				c0.4,3.2,0.7,6.3,1.3,9.5c0.1,0,0.2,0,0.2,0c-0.3-2.1-0.6-4.3-0.9-6.4c-0.4-2.6-0.7-5.2-1-7.8c-0.3-2.5-0.6-5.1-1-7.6
				c-0.3-2.6-0.7-5.2-1.1-7.8c-0.1-0.5,0-1-0.1-1.5C50.5,6.6,50.4,6.6,50.2,6.6z M20.9,6.6c0.2,2.1,0.5,4.2,0.7,6.2
				c0.3,2.6,0.7,5.2,1.1,7.8c0.5,3.7,1,7.5,1.5,11.2c0.3,2,0.5,4,0.7,6c0.1,0,0.1,0,0.2,0c-0.3-2.7-0.7-5.3-1-8
				c-0.3-2.6-0.7-5.2-1-7.7s-0.7-5.1-1-7.6c-0.3-2.7-0.7-5.3-1-8C21,6.6,21,6.6,20.9,6.6z M60.4,27.3c-0.6-1.7-0.6-3.5-0.8-5.3
				c-0.5-3.1-0.8-6.2-1.2-9.4c-0.3-2-0.5-4-0.8-6c-0.1,0-0.1,0-0.2,0c0.3,2.7,0.7,5.5,1,8.2c0.3,2.6,0.6,5.2,1,7.7
				c0.3,2.2,0.3,4.5,1.1,6.7C60.4,28.6,60.4,28,60.4,27.3z M48.5,20.8c0-2.3-0.5-4.4-0.7-6.7c-0.2-2.2-0.5-4.3-0.8-6.4
				c0-0.4-0.1-0.7-0.2-1.1c-0.1,0-0.1,0-0.2,0c0,2.2,0.5,4.4,0.7,6.6c0.3,2.8,0.7,5.7,1.1,8.5c0,0.2,0.1,0.3,0.2,0.5
				C48.6,21.7,48.6,21.3,48.5,20.8z M32.4,37.9c-0.1-0.6,0.2-1.2-0.2-1.7c0,0.6,0,1.2,0,1.7C32.3,37.9,32.4,37.9,32.4,37.9z
				 M50.7,37.9c-0.1-0.6,0.2-1.2-0.2-1.7c-0.2,0.4-0.2,0.9,0,1.3c0,0.1,0,0.3,0,0.4C50.5,37.9,50.6,37.9,50.7,37.9z M48.9,30.2
				c-0.1-0.6,0.2-1.2-0.2-1.8C48.8,29,48.5,29.6,48.9,30.2z M47.8,21.7c-0.1-0.6,0.2-1.2-0.2-1.8C47.7,20.5,47.4,21.2,47.8,21.7z
				 M49.8,37.1c-0.1-0.6,0.2-1.2-0.2-1.8C49.7,35.9,49.4,36.5,49.8,37.1z M47.6,20c-0.1-0.6,0.2-1.2-0.2-1.8
				C47.5,18.8,47.1,19.4,47.6,20z M49.6,35.3c-0.1-0.6,0.2-1.2-0.2-1.8C49.5,34.1,49.1,34.8,49.6,35.3z M49.1,32
				c-0.1-0.6,0.2-1.2-0.2-1.8C49,30.8,48.7,31.4,49.1,32z M48.5,26.9c-0.1-0.6,0.2-1.2-0.2-1.8C48.3,25.7,48,26.3,48.5,26.9z
				 M48.2,25.1c-0.1-0.6,0.2-1.2-0.2-1.8C48.1,23.9,47.8,24.5,48.2,25.1z M49.4,33.5c-0.1-0.5,0.2-1.1-0.2-1.6
				C49.2,32.5,48.9,33.1,49.4,33.5z M47.4,18.2c-0.1-0.5,0.2-1.1-0.2-1.6C47.2,17.1,46.9,17.7,47.4,18.2z M48,23.3
				c-0.1-0.5,0.2-1.1-0.2-1.6C47.9,22.3,47.6,22.8,48,23.3z M48.7,28.4c-0.1-0.5,0.2-1.1-0.2-1.6C48.6,27.4,48.3,27.9,48.7,28.4z
				 M35.1,37.5c-0.1-0.5,0.2-1.1-0.2-1.6C35,36.5,34.7,37.1,35.1,37.5z M34.7,34.2c-0.1-0.5,0.2-1.1-0.2-1.6
				C34.5,33.2,34.2,33.7,34.7,34.2z M34.5,32.4c-0.1-0.5,0.2-1.1-0.2-1.6C34.3,31.4,34,31.9,34.5,32.4z M34.9,35.8
				c-0.1-0.4,0.2-0.9-0.2-1.3C34.7,34.9,34.5,35.4,34.9,35.8z M34.2,30.6c-0.1-0.4,0.2-0.9-0.2-1.3C34.1,29.7,33.8,30.2,34.2,30.6z
				 M30.4,22.6c-0.1-0.6,0.2-1.2-0.2-1.8C30.3,21.4,30,22.1,30.4,22.6z M32.2,36.2c-0.1-0.6,0.2-1.2-0.2-1.8
				C32.1,35,31.8,35.7,32.2,36.2z M30.2,20.8c-0.1-0.6,0.2-1.2-0.2-1.8C30.1,19.7,29.8,20.3,30.2,20.8z M29.8,17.5
				c-0.1-0.6,0.2-1.2-0.2-1.8C29.7,16.3,29.3,17,29.8,17.5z M30.9,26c-0.1-0.6,0.2-1.2-0.2-1.8C30.8,24.8,30.4,25.4,30.9,26z
				 M31.8,32.9c-0.1-0.6,0.2-1.2-0.2-1.8C31.7,31.7,31.3,32.3,31.8,32.9z M31.6,31.1c-0.1-0.6,0.2-1.2-0.2-1.8
				C31.4,29.9,31.1,30.5,31.6,31.1z M31.1,27.7c-0.1-0.6,0.2-1.2-0.2-1.8C31,26.6,30.7,27.2,31.1,27.7z M31.3,29.3
				c-0.1-0.5,0.2-1.1-0.2-1.6C31.2,28.3,30.9,28.8,31.3,29.3z M30,19.1c-0.1-0.5,0.2-1.1-0.2-1.6C29.9,18,29.6,18.6,30,19.1z
				 M32,34.4c-0.1-0.5,0.2-1.1-0.2-1.6C31.9,33.4,31.6,33.9,32,34.4z M30.7,24.2c-0.1-0.5,0.2-1.1-0.2-1.6
				C30.5,23.1,30.2,23.7,30.7,24.2z M39.6,36.2c0.1,0.5-0.2,1.1,0.2,1.6C39.7,37.2,40,36.7,39.6,36.2z M39.3,34.4
				c0.1,0.5-0.2,1.1,0.2,1.6C39.5,35.5,39.8,34.9,39.3,34.4z M38.7,29.3c0.1,0.5-0.2,1.1,0.2,1.6C38.8,30.3,39.1,29.8,38.7,29.3z
				 M38.9,31.1c0.1,0.5-0.2,1.1,0.2,1.6C39,32.1,39.3,31.5,38.9,31.1z M38.2,26c0.1,0.5-0.2,1.1,0.2,1.6C38.4,27,38.7,26.4,38.2,26z
				 M38,24.2c0.1,0.5-0.2,1.1,0.2,1.6C38.1,25.2,38.4,24.7,38,24.2z M39.1,32.9c0.1,0.4-0.2,0.9,0.2,1.3
				C39.3,33.7,39.5,33.3,39.1,32.9z M38.5,27.7c0.1,0.4-0.2,0.9,0.2,1.3C38.6,28.6,38.9,28.1,38.5,27.7z M37.8,22.6
				c0.1,0.4-0.2,0.9,0.2,1.3C37.9,23.5,38.2,23,37.8,22.6z M50.5,37.5c0-0.4,0-0.9,0-1.3c0-0.1,0-0.1,0-0.2c-0.1-0.1-0.1-0.1-0.2,0
				C50.3,36.5,50,37.1,50.5,37.5z M50.2,36c0.1,0,0.1,0,0.2,0c-0.1-0.5,0.2-1.1-0.2-1.6c-0.2,0.4-0.2,0.9,0,1.3
				C50.2,35.8,50.2,35.9,50.2,36z M49.6,29.3c0-0.1,0-0.1,0-0.2c-0.1-0.1-0.1-0.1-0.2,0c0.1,0.5-0.2,1.1,0.2,1.6
				C49.7,30.2,49.7,29.7,49.6,29.3z M49.6,29.3c0,0.4,0,0.9,0,1.3c0,0.1,0,0.1,0,0.2c0.1,0.1,0.1,0.1,0.2,0
				C49.7,30.3,50,29.8,49.6,29.3z M49.4,27.5c-0.1-0.5,0.2-1.1-0.2-1.6c-0.2,0.4-0.2,0.9,0,1.3c0,0.1,0,0.1,0,0.2
				C49.2,27.6,49.3,27.6,49.4,27.5z M49.1,27.3c0-0.4,0-0.9,0-1.3c0-0.1,0-0.1,0-0.2c-0.1-0.1-0.1-0.1-0.2,0
				C49,26.3,48.7,26.8,49.1,27.3z M50,32.6c-0.1-0.5,0.2-1.1-0.2-1.6c-0.2,0.4-0.2,0.9,0,1.3c0,0.1,0,0.1,0,0.2
				C49.9,32.7,50,32.7,50,32.6z M48.9,25.7c0.1,0,0.1,0,0.2,0c-0.1-0.5,0.2-1.1-0.2-1.6c-0.2,0.4-0.2,0.9,0,1.3
				C48.9,25.6,48.9,25.7,48.9,25.7z M48.9,25.5c0-0.4,0-0.9,0-1.3c0-0.1,0-0.1,0-0.2c-0.1-0.1-0.1-0.1-0.2,0
				C48.8,24.5,48.5,25.1,48.9,25.5z M50.2,35.8c0-0.4,0-0.9,0-1.3c0-0.1,0-0.1,0-0.2c-0.1-0.1-0.1-0.1-0.2,0
				C50.1,34.7,49.8,35.3,50.2,35.8z M49.8,32.4c0-0.4,0-0.9,0-1.3c0-0.1,0-0.1,0-0.2c-0.1,0-0.1,0-0.2,0
				C49.7,31.4,49.4,31.9,49.8,32.4z M48.5,20.8c0,0.4,0,0.9,0,1.3c0,0.1,0,0.1,0,0.2c0.1,0.1,0.1,0.1,0.2,0
				C48.6,21.9,48.9,21.3,48.5,20.8z M50,32.6c-0.1,0-0.1,0-0.2,0c0.1,0.4-0.2,0.9,0.2,1.3c0.2-0.4,0.2-0.7,0-1.1
				C50,32.8,50,32.7,50,32.6z M49.4,29.1c0.1,0,0.1,0,0.2,0c-0.1-0.4,0.2-0.9-0.2-1.3c-0.2,0.4-0.2,0.7,0,1.1
				C49.4,28.9,49.4,29,49.4,29.1z M50,32.9c0,0.4,0,0.7,0,1.1c0,0.1,0,0.1,0,0.2c0.1,0,0.1,0,0.2,0C50.2,33.7,50.4,33.2,50,32.9z
				 M49.4,28.9c0-0.4,0-0.7,0-1.1c0-0.1,0-0.1,0-0.2c-0.1,0-0.1,0-0.2,0C49.2,28,49,28.5,49.4,28.9z M48.7,24c0.1,0,0.1,0,0.2,0
				c-0.1-0.4,0.2-0.9-0.2-1.3c-0.2,0.4-0.2,0.7,0,1.1C48.7,23.8,48.7,23.9,48.7,24z M48.7,23.7c0-0.4,0-0.7,0-1.1c0-0.1,0-0.1,0-0.2
				c-0.1,0-0.1,0-0.2,0C48.5,22.8,48.3,23.3,48.7,23.7z M31.6,19.5c0.1,0.4-0.2,0.9,0.2,1.3C31.7,20.4,32,19.9,31.6,19.5z
				 M31.8,21.3c0.1,0.4-0.2,0.9,0.2,1.3C31.9,22.2,32.2,21.7,31.8,21.3z M31.1,16.2c0.1,0.4-0.2,0.9,0.2,1.3
				C31.3,17.1,31.5,16.6,31.1,16.2z M30.9,14.4c0.1,0.4-0.2,0.9,0.2,1.3C31,15.3,31.3,14.8,30.9,14.4z M30.4,11.1
				c0.1,0.4-0.2,0.9,0.2,1.3C30.6,11.9,30.9,11.4,30.4,11.1z M30.2,9.3c0.1,0.4-0.2,0.9,0.2,1.3C30.4,10.2,30.6,9.7,30.2,9.3z
				 M31.3,18c0.1,0.4-0.1,0.8,0.2,1.1C31.5,18.7,31.7,18.3,31.3,18z M30.7,12.8c0.1,0.4-0.1,0.8,0.2,1.1
				C30.8,13.6,31,13.1,30.7,12.8z M30,7.7c0.1,0.4-0.1,0.8,0.2,1.1C30.2,8.5,30.4,8,30,7.7z"/>
		</g>
	</g>
	
		<linearGradient id="SVGID_7_" gradientUnits="userSpaceOnUse" x1="11.3209" y1="79.4463" x2="42.2475" y2="79.4463" gradientTransform="matrix(1 0 0 -1 0 122.271)">
		<stop  offset="0" style="stop-color:#00A526"/>
		<stop  offset="0.5477" style="stop-color:#52B93E"/>
		<stop  offset="1" style="stop-color:#91C951"/>
	</linearGradient>
	<path class="st2" d="M41.4,45.5c-1.6,2-4.6,3.9-4.9,3.4c-0.9-0.9,0.1-2.8-0.9-4.8c-1.1-2.2-3.4-3.9-5.9-4.5
		c-2-0.9-6.3-1.2-10.3,1.4c-0.6,0.4-3.8,3.3-4.2,4.1c-1.6,2.8-3.2,5.2-3.7,6.9c0.1-2.1,0.2-1.9-0.2-3.1c0.1-0.1,1.1-0.9,1.3-1.3
		c0.6-0.7,3-2.9,3.5-3.9c1.5-2.8,4-2.9,6.1-7.2c0.9-1.9,2.5-3.1,6.3-2.9c1,0.1,2.8,0.4,4.7,0.7c1.1-0.7,3.4-0.5,4.7,0.1
		c1.6,0.7,2.1,2.6,1.6,3c-0.4,0.3,1.6,0.6,1.4,1.4c-0.5,1.3,0.3,0.5,0.5,0.8C42.4,41.7,42.6,44.1,41.4,45.5z"/>
	<path class="st3" d="M26.6,27.9c0.1,0,0.4-0.3,0.4-0.5c0.1-2.5,2-9.4,5.1-12.9C28.9,16.7,26.5,25.7,26.6,27.9z M31.8,23.6
		c0.1,0.1,0.3-0.3,0.3-0.5c0.1-2.5,2.3-7.6,6.2-10.4C34.6,14.7,31.5,21.2,31.8,23.6z M37.3,20.1c0,0.1,0.4-0.1,0.4-0.3
		c0.7-2.3,2.5-6.4,7.5-8.6C40.4,12.5,37.9,17.4,37.3,20.1z M43.3,18.2c0,0,0.3,0,0.4-0.2c0.9-1.7,3-4.5,7.4-5.2
		C46.9,13,44.1,16.2,43.3,18.2z M50.3,17c0,0.1,0.4,0,0.4-0.1c0.7-0.6,2.1-1.7,4.3-2.3C52.8,14.8,50.5,16.8,50.3,17z M24,26.1
		c-0.7,2.5-1.2,4.5-1,5.1c0,0.3,0.2,0.7,0.3,0.4c0-3.6,1.6-6,2.2-11.1C24.9,22.5,24.5,24.5,24,26.1z M37.6,29.2
		c-3.7-0.7-6.2-2.1-9.6-0.3c3.1-1.2,5.8-0.2,9.1,0.5c2.4,0.5,5.1,1,7.9-0.5C41.3,30.2,39.6,29.6,37.6,29.2z M32.5,25.5
		C32.4,25.5,32.4,25.6,32.5,25.5L32.5,25.5z M40.8,26.3c-3.1-0.6-5.3-2.2-8.3-0.8c2.6-0.9,5.2,0.3,8,1.1c2,0.5,6.6,0.2,9.7-1
		C46,26.8,42.5,26.7,40.8,26.3z M39.6,22.3c-0.3,0.1-0.9,0.1-0.9,0.2c3.7-0.5,8.4,3,13.2,0.3C46.4,25.1,42.3,21.8,39.6,22.3z
		 M45.5,19.8c-0.2-0.1-0.4,0-0.4,0.1c2.1,0.7,6.5,1.4,9.5,0C50.9,21.1,47.4,20.4,45.5,19.8z M22.8,38.2c-0.1,0.1,0.3,0.1,0.4,0
		c1.1-1.2,3.9-3.1,8.7-3.2C27.5,34.4,23.3,37.2,22.8,38.2z M28,37.4c-0.1,0.1,0.2,0.2,0.4,0.1c1-0.7,5.6-2.2,9-1.3
		C34.6,34.8,27.7,36.9,28,37.4z M32.8,38.8c0,0.1,0.2,0.2,0.3,0.1c0.8-0.2,3.7-0.5,5.8,0.9C37.2,37.9,32.6,38.3,32.8,38.8z
		 M35.8,41.3c0,0.1,0.2,0.2,0.3,0.1c0.4-0.3,1.7,0.6,2.7,2.8C38.3,42.3,36.7,40.5,35.8,41.3z M18.3,22.4c-0.3-0.8-0.7-0.8-1.1-0.9
		c0.3-1.6-2.6-5.9-3.9-5.3c0,0.1,0.1,0.2,0.1,0.3c0.1,0.2,0,0.2-0.2,0.1c0,0-0.1-0.1-0.1-0.2c0,0.2,0.2,0.3,0.4,0.3s0.3-0.3,0.6,0
		c1,0.8,3.1,3.3,2.6,5.1C16.6,22,16.8,22,17,22c1.7,0.2,1.9,3.8,1.1,6.6c-0.3,1.1-0.6,1.8-0.6,2.4l0,0c0,0.3,0,0.6,0.1,0.9l0.1-0.3
		l0.1-0.8C19.2,27,19.3,24.3,18.3,22.4z M16.6,30.1c-0.7-1.2-5.2-2.3-7.9-1.9c1.8,0,6.6,0.3,8.2,2.9C16.7,30.7,16.5,30.2,16.6,30.1z
		 M17,31.2L17,31.2C17,31.2,17,31.3,17,31.2c0,0.1,0.1,0.2,0.1,0.2C17.1,31.3,17,31.3,17,31.2z M15.4,26.4c-0.1-0.1-0.3-0.3-0.6-0.5
		c-0.7-0.4-1.9-0.9-3.2-1.1c-1.9-0.4-2.7,0.4-5.4-0.5c2.4,1.3,3.3,0.4,5.2,0.8c1.5,0.4,3,0.9,3.9,1.6c0.2,0.1,0.3,0.2,0.4,0.3
		C15.5,26.7,15.4,26.4,15.4,26.4z M15.7,27c0.1,0.2,0.3,0.5,0.3,0.5C15.9,27.3,15.8,27.2,15.7,27z M11.6,21.4h-0.1
		c-4.2-1.9-4.9,0.1-7.6-1.3c2.3,1.2,2.9,0.4,4.5,0.6c1.3,0.2,2.7,0.7,3.7,1.3c0.2,0.2,0.4,0.3,0.5,0.5C12.4,22,12.1,21.7,11.6,21.4z
		 M7.9,18c-0.6-0.3-2.1-0.4-3.4-1.1c1.1,0.8,3.4,1.2,3.6,1.2C8,18.1,8,18,7.9,18z M8.1,18.1L8.1,18.1L8.1,18.1L8.1,18.1z M7.6,14.1
		c2.1,1.5,4.4,4.5,4.1,6.8c0,0,0,0,0,0.1l0,0c0.1,0.1,0.1,0.1,0.2,0.2l0,0C12.2,18.5,9.9,15.5,7.6,14.1z M17.1,29.5
		c0,0.1,0,0.2,0.1,0.3C17.2,29.8,17.2,29.7,17.1,29.5z M16.8,22.3c0.4,1.4,0.6,3.1,0.6,3.8c0,1.3-0.9,1.9-0.4,3.2
		c0,0,0.1,0.1,0.1,0.2c-0.2-1,0.3-2.1,0.5-3.2C17.8,25.1,17.3,23.4,16.8,22.3z M14.9,21.5c-1-2.9-2.3-4.1-2.9-5
		c0.9,1.4,2.4,4.1,2.5,4.7c1.3,4.2,0.5,3.8,0.8,4.6c0,0,0.4,0.9,0.5,0.7C15.3,25.1,16.1,24.8,14.9,21.5z M29.8,12.2
		c-2-2.4-6.5,4.5-7.1,6.2c-0.4-0.1-0.7-0.4-0.8-0.3c-2.1,3-3.1,5.3-2.1,9.8c0.5,2.4,1.4,5.2,0.8,7.1c1.3-1.4-0.7-5.5-0.7-9.8
		c0-2,0.4-4.1,1.9-5.9c0.5-1.2,1.2,1,2-1.6c0.5-1.6,3.9-5.5,4.9-5.3c0.5,0.1,0.6,0.9,1.2,0.7L29.8,12.2
		C29.9,12.3,29.8,12.2,29.8,12.2z M54.6,10.9C54.6,10.9,54.6,11,54.6,10.9c0,0.3-0.2,0.3-0.4,0.3c0,0.1,0,0.2,0.1,0.4
		c1.4-0.2,3.6,2.1,4.9,3.2c-0.5,1.2,0,2.3-1.6,5.2c-0.1,0.2-0.6,0.3-0.5,0.4c0,0.1,0.3,0.1,0.5,0c1.3-0.3,1.7-4.8,2.1-5.8
		C58.2,13.2,55.8,11,54.6,10.9z M38.4,34.5c-0.6-0.4-0.8-0.4-0.9-0.1c1,0.8,2.1,1.4,1.8,2.7c0,0.3,0.2,0.4,0.5,0.2
		C40.3,36.4,39.6,35.4,38.4,34.5z M39.8,37.5c-0.6,0-0.4,0.5-0.1,0.5c0.5,0,1.1,0.8,0.7,1.6c-0.1,0.2,0.2,0.4,0.4,0.2
		C41.4,38.9,40.8,37.5,39.8,37.5z M42.2,41.9c-0.1-1.2-0.6-1.8-0.6-2.2c-0.1-0.3-0.3-0.1-0.3,0.2c0.3,1,0.9,2.6,0,5.2
		c-0.4,1.3-2.6,2.3-4.1,3.6c-0.8,0.1,0.2-2,1.7-3.3c0.3-0.3,2.2-2,1.9-4.5c-0.1-0.5-0.9-0.7-0.8-0.2c0,0.1,0.2,0.1,0.2,0.2
		c0.3,0.8-0.2,2.7-1.7,4.2c-1.3,1.2-1.9,2.3-2,3c0.2,0.5,0.5,0.9,0.7,1.1c-0.1,0-0.3,0-0.4,0c0.2,0.1,0.3,0.1,0.5,0.1
		c0.5-0.1,0.5-0.6,2.5-1.9c0.9-0.5,1.6-1.5,2-2.2C42.2,44.5,42.3,43,42.2,41.9z M11.5,51.8c0-0.2,0.1-0.4,0.1-0.5l0,0v-0.2
		C11.6,51.3,11.6,51.5,11.5,51.8z M11.1,13c-0.4-0.2-0.6,0.1-0.7,0.4c0.1,0.1,0.1,0.2,0,0.3c0.1,0,0.2,0.1,0.3-0.1
		c0.1-0.8,1.8,1.1,2,1.9c0.2,0.4,0.2,0.7,0.4,0.9c0-0.1,0-0.2,0.1-0.2c0,0,0,0,0.1,0C13,15.4,12.4,14,11.1,13z M10.4,13.6
		c0-0.1,0-0.1,0-0.2l0,0c-1.7-1.6-3.6-1.8-3.7-0.8c0,0.3,0.2,0.3,0.6,0.1c0.5-0.8,1.9,0,2.8,0.9C10.2,13.8,10.4,13.8,10.4,13.6
		C10.4,13.7,10.4,13.6,10.4,13.6z M6.7,12.4c-1.2-1.1-5.1-0.1-5.7,0.2c0,0.6-1.6,4-0.1,5.5c0,0,0,0,0.1,0.1s0.2,0.1,0.3,0.2
		c0.2,0,0.3,0,0.2-0.3c-1.3-1-0.2-4.3,0.2-5c0.8-0.2,3.4-1.1,4.5-0.6C6.2,12.9,6.8,12.7,6.7,12.4z M17.5,31c0,0.3,0,0.6,0.1,0.9
		l0.1-0.3C17.6,31.4,17.6,31.2,17.5,31z M17,31.3c0,0.1,0.1,0.1,0.1,0.1C17.1,31.3,17,31.3,17,31.3C17,31.2,17,31.3,17,31.3z
		 M16,27.5c-0.1-0.2-0.2-0.3-0.3-0.5C15.8,27.2,16,27.5,16,27.5z M15.4,26.4c-0.1-0.1-0.3-0.3-0.6-0.5c0.2,0.2,0.3,0.5,0.4,0.7
		c0.2,0.1,0.3,0.2,0.4,0.3C15.5,26.7,15.4,26.4,15.4,26.4z M11.6,21.4h-0.1c0.2,0.2,0.4,0.4,0.6,0.7c0.2,0.2,0.4,0.3,0.5,0.5
		C12.4,22,12.1,21.7,11.6,21.4z M50.7,9.3L50.7,9.3c-0.1,0-0.4,0-0.4-0.3c0-1.7-3.7-1.1-7.2-0.1c-0.1-2.4-4.6,0.3-7.6,1.5
		c-0.5-1-0.9-1.3-1.7-1c-1.3,0.5-2.8,1.4-4,2.8l-0.1,0.1V13c0.1,0,0.1,0,0.2-0.1c0.5-0.4,1.5-2.2,4.5-3.1c0.4-0.1-0.1,0.7,0.8,0.9
		c1.6-0.3,4.8-2,6.6-2.3c1.1-0.1-0.1,1,1.2,1c2.8-0.9,5.3-1.2,6.4-0.7c0.5,0.2,0,0.9,0.6,1c0.1,0,0.1,0,0.2,0S50.7,9.4,50.7,9.3
		L50.7,9.3z M50.7,9.3L50.7,9.3C50.7,9.3,50.6,9.3,50.7,9.3c-0.2,0-0.7,0-0.8,0.1c0,0.1,0,0.2,0.1,0.3s0.2,0.1,0.4,0
		c2.1-0.6,3.6,0.7,3.5,1.4c0,0.1,0.1,0.2,0.3,0.1c0-0.2,0.1-0.3,0.2-0.3c0,0,0.1,0,0.2,0C54,9.2,52.5,9,50.7,9.3z M43.6,31.9
		L43.6,31.9l-0.5-0.2L43,31.6c-0.1,0.1-0.2,0.1-0.2,0.2l0,0c-0.1,0.2,0.2,0.5,0,0.7c-0.4,0.6-5.6,1.3-7.2,1C33,33.1,34.3,34.1,33,34
		c-4.3-1.1-7.6-1.3-11,1.1c-0.2,0.1-0.8,0.8-0.9,0.9c0.8-0.7,1.7-1.1,2.5-1.5c0.7-0.3,1.3-0.5,2-0.6c3.7-0.7,6.7,0.9,8.5,0.6
		c0.3-0.1,0.3-0.3,0.4-0.6C36.2,34.2,44.7,33.9,43.6,31.9z M57.6,20.8c-0.3-0.1,0.1-0.3,0-0.3s-0.5,0.1-0.6,0.2
		c-0.5,0.6,0.4,0.4,0.3,0.8c-0.3,0.8-1.9,2.2-4.2,3.5c-0.7,0.7,0.8,0.4,0.1,1c-1.2,1-4.4,2.3-5.5,3.2c-0.4,0.6,0.6,0.5,0.2,0.8
		c-2.3,1.4-4.1,1.5-4.8,1.7c-0.2,0-0.3,0.1-0.3,0.1l0,0l0.6,0.1c0,0,0.1,0,0.2,0c1.7-0.2,3.3-0.9,4.3-1.5c0.7-0.4,0.7-0.7,0.2-1.3
		c2.7-1.4,7.2-3.2,5.5-4C56.3,23.4,58.9,21.4,57.6,20.8z M24.6,32c-0.2,0.1,0.1,0.4,0.4,0.4c0.6,0.3,2.6,0.1,5.2-0.4
		c1.7-0.3,3.7-0.6,5.7-0.9C30.8,31.1,28.3,32.4,24.6,32z M51.7,18c-0.1,0-0.5,0-0.4,0.1c0.2,0.1,3.3,0.6,5.2-0.4
		C54.3,18.4,52.5,18,51.7,18z M25.5,33.9l-0.1-0.1c-0.6-0.1-1.3,0.2-1.8,0.7c-0.5,0.4-0.9,1-1.3,1.6c-0.9,1.6-2,4,0,0.7
		c0.8-1.2,1.3-2.3,2.9-2.5C25.5,34.2,25.7,34.1,25.5,33.9z M14,32c-2.8-0.3-6-1.5-5.4-2.8c0.1-0.1,0.2-0.3,0-0.3
		c-1.8-0.2-3.1-2.4-3.3-3.4c-0.1-0.3,0.2-0.3,0.3-0.4c-0.1,0,0-0.2,0-0.2v-0.2c-0.1,0-0.2,0-0.3,0.1c-1.2,0.7,1.2,4.2,2.9,4.5
		c-0.1,0.4-0.3,0.6,0.2,1.1c1.2,1.1,3.6,1.8,7.7,2l1.1,0.2C16.5,32.1,15.8,32.1,14,32z M5.7,24.7v-0.1c-0.1-0.1-0.5-0.3-1-0.5
		c-0.8-0.3-2.7-2.2-1.9-2.2c0.2,0,0.1-0.3,0-0.3c0,0,0,0-0.1,0c-0.1,0.1-0.2,0.1-0.3,0l0,0c-0.3,0-0.4,0.2-0.3,0.6
		c1.1,1.6,2.7,2.1,3.4,2.5C5.6,24.7,5.6,24.7,5.7,24.7C5.7,24.8,5.7,24.8,5.7,24.7C5.7,24.8,5.8,24.8,5.7,24.7
		C5.8,24.8,5.8,24.7,5.7,24.7z M2.7,21.2c-1-0.7-2.1-2-1.4-2.6c0-0.1,0-0.2,0-0.3C1.3,18.1,1.2,18,1,18c0,0,0,0-0.1,0
		c-0.9,0.4-0.3,2.2,1.6,3.5c0.1,0,0.2,0,0.3,0C2.8,21.5,2.9,21.3,2.7,21.2z M6.4,14.7c0.8,0.9,1.3,2,1.6,2.4
		c0.1,0.1,0.2,0.2,0.2,0.1C8.1,17,7.2,15.3,6.4,14.7z M5.8,24.8C5.8,24.8,5.8,24.7,5.8,24.8c0-0.1,0-0.1-0.1-0.2c0,0,0,0-0.1,0v0.1
		l0,0C5.7,24.8,5.7,24.8,5.8,24.8c0,0,0,0.1-0.1,0.2C5.7,24.9,5.8,24.9,5.8,24.8z M43.7,19.6c6.4-2.3,10.6-2.1,13.1-4.6
		c-3.2,2.2-5.7,2.2-8.5,2.9c-10.7,2.7-22.9,8.2-29.4,20.3c-0.3,0.5-0.7,1.2-1.1,1.8c0.1-0.5,0.2-1.6,0.4-3.8c0-1.6-0.2-3.2-0.5-4.6
		l-0.1,0.3c-0.1-0.3-0.1-0.6-0.1-0.9l0,0c-0.4-1.2-0.8-2.3-1.3-3.4c-1-2-2.5-4.3-4.3-6.4c-0.1,0-0.1-0.1-0.2-0.2l0,0
		c-2.2-2.6-4.9-4.9-7.8-6.2c1.7,1,4.6,3.1,7.6,6.5h0.1c0.5,0.3,0.8,0.6,1,1.1c-0.2-0.2-0.3-0.3-0.5-0.5c1,1.2,1.9,2.5,2.8,3.9
		c0.3,0.2,0.5,0.3,0.6,0.5c0,0,0.1,0.3,0.3,0.6c-0.1-0.1-0.2-0.2-0.4-0.3c0.2,0.2,0.3,0.5,0.4,0.7c0.6,1.2,1,2.5,1.3,3.8
		c0,0,0.1,0.1,0.1,0.2c0,0,0-0.1-0.1-0.1c0.5,2.2,0.7,4.7,0.4,7.3c-0.7,2.5-1.5,4.6-2.4,6.2c-0.6,0.7-1.1,1.5-1.6,2.3
		c-0.5,0.6-1.1,1.2-1.7,1.7l-0.3,0.2c0.2,0.5,0.2,1.2,0.2,2.1l0,0v0.1l0,0c0,0.3,0,0.6,0,0.9c0.5-0.4,1.7-3.6,2.7-5.1
		c1-1.4,2.3-3,3.4-4.5c1.3-1.1,2.9-2.1,5-2.8c4.6-1.7,10.8,0.3,12.8,4.3c0.8,1.6-0.3,4.8,1.3,5.2c-0.2-0.1-0.3-0.2-0.3-0.4
		c-0.1-0.2-0.1-0.4,0-0.7c-0.2-0.5-0.3-1.1-0.2-1.6c0.2-4.2-5.6-8.3-11.2-7.9c5.7-1.1,11,1.6,11.3,6.5c0,0.5,0.2,0.3,0.2,0.1
		c-0.1-7.4-11.2-10-18.8-4.1c0.7-1.1,1.7-2.8,1.7-2.8C25.3,27.4,35.9,22.5,43.7,19.6z M15.7,27c0.2,0.2,0.3,0.3,0.3,0.5
		C16,27.5,15.8,27.2,15.7,27z"/>
</g>
</svg>
