<svg version="1" xmlns="http://www.w3.org/2000/svg" width="248" height="248" viewBox="0 0 186.000000 186.000000"><path d="M40 38c-.7.4-1.4 2.8-1.5 5.2-.2 5.1-1.9 9.6-3.9 10.4-1.5.6-6.8 9.7-7.1 12.3-.1.9-.9 3.4-1.9 5.5-2 4.5-2.6 6.7-2.8 11.4-.1 1.8-.7 3.7-1.5 4.3-.7.6-1 1.5-.7 2 .3.5.1.9-.4.9-.8 0-.8 6.5.1 20 .3 3.6 1.2 8.2 2.1 10.3.8 2.1 1.5 4.3 1.3 4.8-.1.5 1.6 3.1 3.8 5.7 4.7 5.7 13 10.1 20.1 10.7 2.5.2 4.9.6 5.2.9.3.3 1 .2 1.7-.4.7-.6 1.6-.2 2.6 1.2 6.4 9.4 18.6 15.7 31.4 16.2 9.2.4 25.7-5.2 26.9-9.2.4-1 2.7-2.8 5.3-4.1 9-4.4 20.3-15 20.3-19.2 0-1.1 2.2-4.2 4.8-6.9 7.1-7.4 11.2-16.6 8.2-18.5-.5-.3.6-2.7 2.5-5.3 2-2.6 3.6-5.2 3.6-5.7 0-.6.4-1.5.9-2 .4-.6 1.5-3.3 2.3-6.1 1.3-4.3 1.3-5.4.2-6.5-1.1-1.2-.8-2.5 1.7-7.9 3-6.5 3.6-8.1 4.5-13.3 1.1-5.6-3.6-7.4-9-3.3-4.3 3.3-14.2 5-15.6 2.7-.8-1.2-13.8-.6-17.6.9-1.6.6-5 1.3-7.5 1.5-6.2.4-8.2 1-14.8 4.2-3.1 1.5-6.6 2.6-7.6 2.5-4.7-.6-14.8 4.1-20.8 9.6l-2.6 2.4-1.8-3.7c-1.1-2.3-2.8-4.1-4.6-4.7-1.5-.6-2.8-1.6-2.8-2.4C65 61 57.6 51 55.1 51c-1 0-3.4-2.4-5.5-5.4-4.2-6.2-7.6-8.8-9.6-7.6z"/></svg>